%TF.GenerationSoftware,KiCad,Pcbnew,(6.0.11)*%
%TF.CreationDate,2024-10-13T21:18:45+03:00*%
%TF.ProjectId,sincos_interpolator,73696e63-6f73-45f6-996e-746572706f6c,rev?*%
%TF.SameCoordinates,Original*%
%TF.FileFunction,Soldermask,Top*%
%TF.FilePolarity,Negative*%
%FSLAX46Y46*%
G04 Gerber Fmt 4.6, Leading zero omitted, Abs format (unit mm)*
G04 Created by KiCad (PCBNEW (6.0.11)) date 2024-10-13 21:18:45*
%MOMM*%
%LPD*%
G01*
G04 APERTURE LIST*
G04 Aperture macros list*
%AMRoundRect*
0 Rectangle with rounded corners*
0 $1 Rounding radius*
0 $2 $3 $4 $5 $6 $7 $8 $9 X,Y pos of 4 corners*
0 Add a 4 corners polygon primitive as box body*
4,1,4,$2,$3,$4,$5,$6,$7,$8,$9,$2,$3,0*
0 Add four circle primitives for the rounded corners*
1,1,$1+$1,$2,$3*
1,1,$1+$1,$4,$5*
1,1,$1+$1,$6,$7*
1,1,$1+$1,$8,$9*
0 Add four rect primitives between the rounded corners*
20,1,$1+$1,$2,$3,$4,$5,0*
20,1,$1+$1,$4,$5,$6,$7,0*
20,1,$1+$1,$6,$7,$8,$9,0*
20,1,$1+$1,$8,$9,$2,$3,0*%
%AMFreePoly0*
4,1,22,0.500000,-0.750000,0.000000,-0.750000,0.000000,-0.745033,-0.079941,-0.743568,-0.215256,-0.701293,-0.333266,-0.622738,-0.424486,-0.514219,-0.481581,-0.384460,-0.499164,-0.250000,-0.500000,-0.250000,-0.500000,0.250000,-0.499164,0.250000,-0.499963,0.256109,-0.478152,0.396186,-0.417904,0.524511,-0.324060,0.630769,-0.204165,0.706417,-0.067858,0.745374,0.000000,0.744959,0.000000,0.750000,
0.500000,0.750000,0.500000,-0.750000,0.500000,-0.750000,$1*%
%AMFreePoly1*
4,1,20,0.000000,0.744959,0.073905,0.744508,0.209726,0.703889,0.328688,0.626782,0.421226,0.519385,0.479903,0.390333,0.500000,0.250000,0.500000,-0.250000,0.499851,-0.262216,0.476331,-0.402017,0.414519,-0.529596,0.319384,-0.634700,0.198574,-0.708877,0.061801,-0.746166,0.000000,-0.745033,0.000000,-0.750000,-0.500000,-0.750000,-0.500000,0.750000,0.000000,0.750000,0.000000,0.744959,
0.000000,0.744959,$1*%
%AMFreePoly2*
4,1,22,0.550000,-0.750000,0.000000,-0.750000,0.000000,-0.745033,-0.079941,-0.743568,-0.215256,-0.701293,-0.333266,-0.622738,-0.424486,-0.514219,-0.481581,-0.384460,-0.499164,-0.250000,-0.500000,-0.250000,-0.500000,0.250000,-0.499164,0.250000,-0.499963,0.256109,-0.478152,0.396186,-0.417904,0.524511,-0.324060,0.630769,-0.204165,0.706417,-0.067858,0.745374,0.000000,0.744959,0.000000,0.750000,
0.550000,0.750000,0.550000,-0.750000,0.550000,-0.750000,$1*%
%AMFreePoly3*
4,1,20,0.000000,0.744959,0.073905,0.744508,0.209726,0.703889,0.328688,0.626782,0.421226,0.519385,0.479903,0.390333,0.500000,0.250000,0.500000,-0.250000,0.499851,-0.262216,0.476331,-0.402017,0.414519,-0.529596,0.319384,-0.634700,0.198574,-0.708877,0.061801,-0.746166,0.000000,-0.745033,0.000000,-0.750000,-0.550000,-0.750000,-0.550000,0.750000,0.000000,0.750000,0.000000,0.744959,
0.000000,0.744959,$1*%
G04 Aperture macros list end*
%ADD10FreePoly0,270.000000*%
%ADD11FreePoly1,270.000000*%
%ADD12C,3.200000*%
%ADD13FreePoly2,270.000000*%
%ADD14R,1.500000X1.000000*%
%ADD15FreePoly3,270.000000*%
%ADD16C,1.600000*%
%ADD17O,1.600000X1.600000*%
%ADD18R,1.905000X2.000000*%
%ADD19O,1.905000X2.000000*%
%ADD20FreePoly0,0.000000*%
%ADD21FreePoly1,0.000000*%
%ADD22R,2.600000X2.600000*%
%ADD23C,2.600000*%
%ADD24R,1.800000X1.800000*%
%ADD25C,1.800000*%
%ADD26FreePoly0,90.000000*%
%ADD27FreePoly1,90.000000*%
%ADD28R,1.500000X1.050000*%
%ADD29O,1.500000X1.050000*%
%ADD30RoundRect,0.100000X0.100000X-0.637500X0.100000X0.637500X-0.100000X0.637500X-0.100000X-0.637500X0*%
%ADD31FreePoly0,180.000000*%
%ADD32FreePoly1,180.000000*%
%ADD33R,1.600000X1.600000*%
%ADD34RoundRect,0.150000X-0.150000X0.825000X-0.150000X-0.825000X0.150000X-0.825000X0.150000X0.825000X0*%
%ADD35C,3.250000*%
%ADD36RoundRect,0.400000X-0.400000X-0.400000X0.400000X-0.400000X0.400000X0.400000X-0.400000X0.400000X0*%
%ADD37C,2.500000*%
%ADD38RoundRect,0.400000X0.400000X0.400000X-0.400000X0.400000X-0.400000X-0.400000X0.400000X-0.400000X0*%
%ADD39R,2.200000X2.200000*%
%ADD40O,2.200000X2.200000*%
%ADD41RoundRect,0.575000X0.575000X0.575000X-0.575000X0.575000X-0.575000X-0.575000X0.575000X-0.575000X0*%
%ADD42C,2.300000*%
G04 APERTURE END LIST*
D10*
%TO.C,JP32*%
X176530000Y-134635000D03*
D11*
X176530000Y-135935000D03*
%TD*%
D12*
%TO.C,H2*%
X140000000Y-147000000D03*
%TD*%
D13*
%TO.C,JP5*%
X154940000Y-146655000D03*
D14*
X154940000Y-147955000D03*
D15*
X154940000Y-149255000D03*
%TD*%
D16*
%TO.C,R8*%
X164465000Y-117475000D03*
D17*
X174625000Y-117475000D03*
%TD*%
D18*
%TO.C,Q1*%
X154940000Y-116205000D03*
D19*
X157480000Y-116205000D03*
X160020000Y-116205000D03*
%TD*%
D20*
%TO.C,JP9*%
X132080000Y-116840000D03*
D21*
X133380000Y-116840000D03*
%TD*%
D22*
%TO.C,J11*%
X125730000Y-121920000D03*
D23*
X125730000Y-127000000D03*
%TD*%
D13*
%TO.C,JP1*%
X151130000Y-146655000D03*
D14*
X151130000Y-147955000D03*
D15*
X151130000Y-149255000D03*
%TD*%
D24*
%TO.C,D2*%
X200660000Y-118110000D03*
D25*
X198120000Y-118110000D03*
%TD*%
D16*
%TO.C,R13*%
X172720000Y-123190000D03*
D17*
X162560000Y-123190000D03*
%TD*%
D24*
%TO.C,D21*%
X168910000Y-137160000D03*
D25*
X166370000Y-137160000D03*
%TD*%
D22*
%TO.C,J21*%
X125730000Y-132080000D03*
D23*
X125730000Y-137160000D03*
%TD*%
D16*
%TO.C,C5*%
X182880000Y-134620000D03*
X185380000Y-134620000D03*
%TD*%
D12*
%TO.C,H3*%
X200000000Y-107000000D03*
%TD*%
%TO.C,H1*%
X140000000Y-107000000D03*
%TD*%
D22*
%TO.C,J12*%
X214630000Y-127000000D03*
D23*
X214630000Y-121920000D03*
%TD*%
D16*
%TO.C,R1*%
X200660000Y-114300000D03*
D17*
X190500000Y-114300000D03*
%TD*%
D26*
%TO.C,JP23*%
X177800000Y-121330000D03*
D27*
X177800000Y-120030000D03*
%TD*%
D16*
%TO.C,R6*%
X177800000Y-111125000D03*
D17*
X187960000Y-111125000D03*
%TD*%
D22*
%TO.C,J2*%
X125730000Y-106680000D03*
D23*
X125730000Y-111760000D03*
X125730000Y-116840000D03*
%TD*%
D16*
%TO.C,R7*%
X187960000Y-114300000D03*
D17*
X177800000Y-114300000D03*
%TD*%
D16*
%TO.C,C6*%
X181610000Y-117475000D03*
X179110000Y-117475000D03*
%TD*%
D13*
%TO.C,JP4*%
X158750000Y-146685000D03*
D14*
X158750000Y-147985000D03*
D15*
X158750000Y-149285000D03*
%TD*%
D16*
%TO.C,C3*%
X157480000Y-122428000D03*
X159980000Y-122428000D03*
%TD*%
D28*
%TO.C,Q2*%
X169545000Y-114300000D03*
D29*
X169545000Y-113030000D03*
X169545000Y-111760000D03*
%TD*%
D30*
%TO.C,U1*%
X153285000Y-132402500D03*
X153935000Y-132402500D03*
X154585000Y-132402500D03*
X155235000Y-132402500D03*
X155885000Y-132402500D03*
X156535000Y-132402500D03*
X157185000Y-132402500D03*
X157835000Y-132402500D03*
X158485000Y-132402500D03*
X159135000Y-132402500D03*
X159135000Y-126677500D03*
X158485000Y-126677500D03*
X157835000Y-126677500D03*
X157185000Y-126677500D03*
X156535000Y-126677500D03*
X155885000Y-126677500D03*
X155235000Y-126677500D03*
X154585000Y-126677500D03*
X153935000Y-126677500D03*
X153285000Y-126677500D03*
%TD*%
D22*
%TO.C,J22*%
X214630000Y-137160000D03*
D23*
X214630000Y-132080000D03*
%TD*%
D22*
%TO.C,J31*%
X125730000Y-142240000D03*
D23*
X125730000Y-147320000D03*
%TD*%
D16*
%TO.C,C4*%
X157480000Y-119380000D03*
X159980000Y-119380000D03*
%TD*%
D31*
%TO.C,JP8*%
X161290000Y-103505000D03*
D32*
X159990000Y-103505000D03*
%TD*%
D10*
%TO.C,JP33*%
X176530000Y-137825000D03*
D11*
X176530000Y-139125000D03*
%TD*%
D22*
%TO.C,J1*%
X214630000Y-116840000D03*
D23*
X214630000Y-111760000D03*
X214630000Y-106680000D03*
%TD*%
D33*
%TO.C,C1*%
X148590000Y-106680000D03*
D16*
X148590000Y-109180000D03*
%TD*%
D13*
%TO.C,JP2*%
X147320000Y-146685000D03*
D14*
X147320000Y-147985000D03*
D15*
X147320000Y-149285000D03*
%TD*%
D34*
%TO.C,U2*%
X185420000Y-127095000D03*
X184150000Y-127095000D03*
X182880000Y-127095000D03*
X181610000Y-127095000D03*
X180340000Y-127095000D03*
X179070000Y-127095000D03*
X177800000Y-127095000D03*
X176530000Y-127095000D03*
X176530000Y-132045000D03*
X177800000Y-132045000D03*
X179070000Y-132045000D03*
X180340000Y-132045000D03*
X181610000Y-132045000D03*
X182880000Y-132045000D03*
X184150000Y-132045000D03*
X185420000Y-132045000D03*
%TD*%
D28*
%TO.C,U3*%
X173990000Y-111760000D03*
D29*
X173990000Y-113030000D03*
X173990000Y-114300000D03*
%TD*%
D12*
%TO.C,H4*%
X200000000Y-147000000D03*
%TD*%
D16*
%TO.C,R22*%
X151130000Y-137795000D03*
D17*
X151130000Y-140335000D03*
%TD*%
D16*
%TO.C,R4*%
X154940000Y-108750000D03*
D17*
X165100000Y-108750000D03*
%TD*%
D16*
%TO.C,R3*%
X150495000Y-115570000D03*
D17*
X140335000Y-115570000D03*
%TD*%
D35*
%TO.C,J3*%
X142240000Y-135890000D03*
X142240000Y-124460000D03*
D36*
X135890000Y-134620000D03*
D16*
X133350000Y-133350000D03*
X135890000Y-132080000D03*
X133350000Y-130810000D03*
X135890000Y-129540000D03*
X133350000Y-128270000D03*
X135890000Y-127000000D03*
X133350000Y-125730000D03*
D37*
X145290000Y-122375000D03*
X145290000Y-137975000D03*
%TD*%
D10*
%TO.C,JP6*%
X154305000Y-118745000D03*
D11*
X154305000Y-120045000D03*
%TD*%
D16*
%TO.C,R11*%
X151130000Y-118745000D03*
D17*
X151130000Y-121285000D03*
%TD*%
D31*
%TO.C,JP7*%
X208280000Y-116840000D03*
D32*
X206980000Y-116840000D03*
%TD*%
D35*
%TO.C,J4*%
X197485000Y-135890000D03*
X197485000Y-124460000D03*
D38*
X203835000Y-125730000D03*
D16*
X206375000Y-127000000D03*
X203835000Y-128270000D03*
X206375000Y-129540000D03*
X203835000Y-130810000D03*
X206375000Y-132080000D03*
X203835000Y-133350000D03*
X206375000Y-134620000D03*
D37*
X194435000Y-122375000D03*
X194435000Y-137975000D03*
%TD*%
D16*
%TO.C,R12*%
X151130000Y-123825000D03*
D17*
X151130000Y-126365000D03*
%TD*%
D10*
%TO.C,JP21*%
X153670000Y-135225000D03*
D11*
X153670000Y-136525000D03*
%TD*%
D24*
%TO.C,D11*%
X168910000Y-127000000D03*
D25*
X166370000Y-127000000D03*
%TD*%
D24*
%TO.C,D31*%
X168910000Y-147320000D03*
D25*
X166370000Y-147320000D03*
%TD*%
D16*
%TO.C,R21*%
X151130000Y-132715000D03*
D17*
X151130000Y-135255000D03*
%TD*%
D26*
%TO.C,JP22*%
X177800000Y-124490000D03*
D27*
X177800000Y-123190000D03*
%TD*%
D22*
%TO.C,J32*%
X214630000Y-147320000D03*
D23*
X214630000Y-142240000D03*
%TD*%
D39*
%TO.C,D1*%
X184785000Y-117475000D03*
D40*
X194945000Y-117475000D03*
%TD*%
D16*
%TO.C,R23*%
X172720000Y-133350000D03*
D17*
X162560000Y-133350000D03*
%TD*%
D16*
%TO.C,R5*%
X165100000Y-111760000D03*
D17*
X154940000Y-111760000D03*
%TD*%
D16*
%TO.C,R33*%
X172720000Y-143510000D03*
D17*
X162560000Y-143510000D03*
%TD*%
D26*
%TO.C,JP12*%
X185420000Y-124490000D03*
D27*
X185420000Y-123190000D03*
%TD*%
D26*
%TO.C,JP11*%
X154305000Y-123855000D03*
D27*
X154305000Y-122555000D03*
%TD*%
D26*
%TO.C,JP13*%
X185450000Y-121345000D03*
D27*
X185450000Y-120045000D03*
%TD*%
D41*
%TO.C,F1*%
X193040000Y-106680000D03*
X187240000Y-106680000D03*
D42*
X178340000Y-106680000D03*
X172540000Y-106680000D03*
%TD*%
D13*
%TO.C,JP3*%
X162560000Y-146655000D03*
D14*
X162560000Y-147955000D03*
D15*
X162560000Y-149255000D03*
%TD*%
M02*
