M48
; DRILL file {KiCad (6.0.11)} date Sun Aug 20 08:38:20 2023
; FORMAT={-:-/ absolute / metric / decimal}
; #@! TF.CreationDate,2023-08-20T08:38:20+03:00
; #@! TF.GenerationSoftware,Kicad,Pcbnew,(6.0.11)
; #@! TF.FileFunction,Plated,1,2,PTH
FMAT,2
METRIC
; #@! TA.AperFunction,Plated,PTH,ViaDrill
T1C0.400
; #@! TA.AperFunction,Plated,PTH,ComponentDrill
T2C0.800
; #@! TA.AperFunction,Plated,PTH,ComponentDrill
T3C0.900
; #@! TA.AperFunction,Plated,PTH,ComponentDrill
T4C1.000
; #@! TA.AperFunction,Plated,PTH,ComponentDrill
T5C1.100
; #@! TA.AperFunction,Plated,PTH,ComponentDrill
T6C1.300
; #@! TA.AperFunction,Plated,PTH,ComponentDrill
T7C1.700
%
G90
G05
T1
X142.24Y-127.635
X142.24Y-131.445
X146.05Y-123.825
X146.05Y-132.715
X147.32Y-145.415
X149.225Y-127.635
X149.225Y-130.899
X150.495Y-128.18
X150.495Y-130.175
X151.13Y-145.415
X152.4Y-130.81
X152.419Y-124.37
X152.419Y-134.709
X154.94Y-145.415
X155.448Y-124.968
X158.75Y-145.415
X162.56Y-145.415
X164.846Y-128.778
X164.846Y-130.899
X175.26Y-128.211
X175.26Y-130.899
X175.26Y-133.35
X177.8Y-128.935
X177.8Y-139.095
X179.07Y-120.045
X180.467Y-133.634
X181.61Y-125.476
X181.61Y-128.87
X184.15Y-120.045
X184.15Y-134.015
X185.42Y-134.015
X187.325Y-122.49
X187.325Y-123.889
X189.23Y-130.175
X189.23Y-136.589
X190.5Y-128.905
X190.5Y-133.985
X196.215Y-127.0
X196.215Y-132.715
X196.85Y-123.825
X197.485Y-125.73
X197.485Y-132.715
T2
X142.875Y-115.57
X149.86Y-106.68
X149.86Y-109.18
X151.13Y-118.745
X151.13Y-121.285
X151.13Y-123.825
X151.13Y-126.365
X151.13Y-132.715
X151.13Y-135.255
X151.13Y-137.795
X151.13Y-140.335
X153.035Y-115.57
X157.48Y-120.015
X157.48Y-122.515
X160.02Y-120.015
X160.02Y-122.515
X162.56Y-123.19
X162.56Y-133.35
X162.56Y-143.51
X170.18Y-111.76
X170.18Y-114.26
X172.72Y-111.252
X172.72Y-114.3
X172.72Y-123.19
X172.72Y-133.35
X172.72Y-143.51
X175.26Y-121.96
X175.26Y-124.46
X180.34Y-114.3
X182.88Y-111.252
X185.42Y-113.665
X195.58Y-113.665
T3
X166.37Y-127.0
X166.37Y-137.16
X166.37Y-147.32
X168.91Y-127.0
X168.91Y-137.16
X168.91Y-147.32
X200.025Y-114.295
X200.025Y-116.835
T4
X144.78Y-125.095
X144.78Y-127.635
X144.78Y-130.175
X144.78Y-132.715
X147.32Y-126.365
X147.32Y-128.905
X147.32Y-131.445
X147.32Y-133.985
X191.77Y-125.095
X191.77Y-127.635
X191.77Y-130.175
X191.77Y-132.715
X194.31Y-126.365
X194.31Y-128.905
X194.31Y-131.445
X194.31Y-133.985
T5
X160.02Y-114.3
X162.56Y-114.3
X165.1Y-114.3
X185.42Y-116.84
X195.58Y-116.84
T6
X125.73Y-106.68
X125.73Y-111.76
X125.73Y-116.84
X125.73Y-121.92
X125.73Y-127.0
X125.73Y-132.08
X125.73Y-137.16
X125.73Y-142.24
X125.73Y-147.32
X172.54Y-106.68
X178.34Y-106.68
X187.24Y-106.68
X193.04Y-106.68
X214.63Y-106.68
X214.63Y-111.76
X214.63Y-116.84
X214.63Y-121.92
X214.63Y-127.0
X214.63Y-132.08
X214.63Y-137.16
X214.63Y-142.24
X214.63Y-147.32
T7
X135.38Y-121.74
X135.38Y-137.34
X203.71Y-121.74
X203.71Y-137.34
T0
M30
