%TF.GenerationSoftware,KiCad,Pcbnew,(6.0.11)*%
%TF.CreationDate,2024-10-13T21:18:45+03:00*%
%TF.ProjectId,sincos_interpolator,73696e63-6f73-45f6-996e-746572706f6c,rev?*%
%TF.SameCoordinates,Original*%
%TF.FileFunction,Legend,Bot*%
%TF.FilePolarity,Positive*%
%FSLAX46Y46*%
G04 Gerber Fmt 4.6, Leading zero omitted, Abs format (unit mm)*
G04 Created by KiCad (PCBNEW (6.0.11)) date 2024-10-13 21:18:45*
%MOMM*%
%LPD*%
G01*
G04 APERTURE LIST*
G04 Aperture macros list*
%AMRoundRect*
0 Rectangle with rounded corners*
0 $1 Rounding radius*
0 $2 $3 $4 $5 $6 $7 $8 $9 X,Y pos of 4 corners*
0 Add a 4 corners polygon primitive as box body*
4,1,4,$2,$3,$4,$5,$6,$7,$8,$9,$2,$3,0*
0 Add four circle primitives for the rounded corners*
1,1,$1+$1,$2,$3*
1,1,$1+$1,$4,$5*
1,1,$1+$1,$6,$7*
1,1,$1+$1,$8,$9*
0 Add four rect primitives between the rounded corners*
20,1,$1+$1,$2,$3,$4,$5,0*
20,1,$1+$1,$4,$5,$6,$7,0*
20,1,$1+$1,$6,$7,$8,$9,0*
20,1,$1+$1,$8,$9,$2,$3,0*%
G04 Aperture macros list end*
%ADD10C,3.200000*%
%ADD11C,1.600000*%
%ADD12O,1.600000X1.600000*%
%ADD13R,1.905000X2.000000*%
%ADD14O,1.905000X2.000000*%
%ADD15R,2.600000X2.600000*%
%ADD16C,2.600000*%
%ADD17R,1.800000X1.800000*%
%ADD18C,1.800000*%
%ADD19R,1.500000X1.050000*%
%ADD20O,1.500000X1.050000*%
%ADD21R,1.600000X1.600000*%
%ADD22C,3.250000*%
%ADD23RoundRect,0.400000X-0.400000X-0.400000X0.400000X-0.400000X0.400000X0.400000X-0.400000X0.400000X0*%
%ADD24C,2.500000*%
%ADD25RoundRect,0.400000X0.400000X0.400000X-0.400000X0.400000X-0.400000X-0.400000X0.400000X-0.400000X0*%
%ADD26R,2.200000X2.200000*%
%ADD27O,2.200000X2.200000*%
%ADD28RoundRect,0.575000X0.575000X0.575000X-0.575000X0.575000X-0.575000X-0.575000X0.575000X-0.575000X0*%
%ADD29C,2.300000*%
G04 APERTURE END LIST*
%LPC*%
D10*
%TO.C,H2*%
X140000000Y-147000000D03*
%TD*%
D11*
%TO.C,R8*%
X164465000Y-117475000D03*
D12*
X174625000Y-117475000D03*
%TD*%
D13*
%TO.C,Q1*%
X154940000Y-116205000D03*
D14*
X157480000Y-116205000D03*
X160020000Y-116205000D03*
%TD*%
D15*
%TO.C,J11*%
X125730000Y-121920000D03*
D16*
X125730000Y-127000000D03*
%TD*%
D17*
%TO.C,D2*%
X200660000Y-118110000D03*
D18*
X198120000Y-118110000D03*
%TD*%
D11*
%TO.C,R13*%
X172720000Y-123190000D03*
D12*
X162560000Y-123190000D03*
%TD*%
D17*
%TO.C,D21*%
X168910000Y-137160000D03*
D18*
X166370000Y-137160000D03*
%TD*%
D15*
%TO.C,J21*%
X125730000Y-132080000D03*
D16*
X125730000Y-137160000D03*
%TD*%
D11*
%TO.C,C5*%
X182880000Y-134620000D03*
X185380000Y-134620000D03*
%TD*%
D10*
%TO.C,H3*%
X200000000Y-107000000D03*
%TD*%
%TO.C,H1*%
X140000000Y-107000000D03*
%TD*%
D15*
%TO.C,J12*%
X214630000Y-127000000D03*
D16*
X214630000Y-121920000D03*
%TD*%
D11*
%TO.C,R1*%
X200660000Y-114300000D03*
D12*
X190500000Y-114300000D03*
%TD*%
D11*
%TO.C,R6*%
X177800000Y-111125000D03*
D12*
X187960000Y-111125000D03*
%TD*%
D15*
%TO.C,J2*%
X125730000Y-106680000D03*
D16*
X125730000Y-111760000D03*
X125730000Y-116840000D03*
%TD*%
D11*
%TO.C,R7*%
X187960000Y-114300000D03*
D12*
X177800000Y-114300000D03*
%TD*%
D11*
%TO.C,C6*%
X181610000Y-117475000D03*
X179110000Y-117475000D03*
%TD*%
%TO.C,C3*%
X157480000Y-122428000D03*
X159980000Y-122428000D03*
%TD*%
D19*
%TO.C,Q2*%
X169545000Y-114300000D03*
D20*
X169545000Y-113030000D03*
X169545000Y-111760000D03*
%TD*%
D15*
%TO.C,J22*%
X214630000Y-137160000D03*
D16*
X214630000Y-132080000D03*
%TD*%
D15*
%TO.C,J31*%
X125730000Y-142240000D03*
D16*
X125730000Y-147320000D03*
%TD*%
D11*
%TO.C,C4*%
X157480000Y-119380000D03*
X159980000Y-119380000D03*
%TD*%
D15*
%TO.C,J1*%
X214630000Y-116840000D03*
D16*
X214630000Y-111760000D03*
X214630000Y-106680000D03*
%TD*%
D21*
%TO.C,C1*%
X148590000Y-106680000D03*
D11*
X148590000Y-109180000D03*
%TD*%
D19*
%TO.C,U3*%
X173990000Y-111760000D03*
D20*
X173990000Y-113030000D03*
X173990000Y-114300000D03*
%TD*%
D10*
%TO.C,H4*%
X200000000Y-147000000D03*
%TD*%
D11*
%TO.C,R22*%
X151130000Y-137795000D03*
D12*
X151130000Y-140335000D03*
%TD*%
D11*
%TO.C,R4*%
X154940000Y-108750000D03*
D12*
X165100000Y-108750000D03*
%TD*%
D11*
%TO.C,R3*%
X150495000Y-115570000D03*
D12*
X140335000Y-115570000D03*
%TD*%
D22*
%TO.C,J3*%
X142240000Y-135890000D03*
X142240000Y-124460000D03*
D23*
X135890000Y-134620000D03*
D11*
X133350000Y-133350000D03*
X135890000Y-132080000D03*
X133350000Y-130810000D03*
X135890000Y-129540000D03*
X133350000Y-128270000D03*
X135890000Y-127000000D03*
X133350000Y-125730000D03*
D24*
X145290000Y-122375000D03*
X145290000Y-137975000D03*
%TD*%
D11*
%TO.C,R11*%
X151130000Y-118745000D03*
D12*
X151130000Y-121285000D03*
%TD*%
D22*
%TO.C,J4*%
X197485000Y-135890000D03*
X197485000Y-124460000D03*
D25*
X203835000Y-125730000D03*
D11*
X206375000Y-127000000D03*
X203835000Y-128270000D03*
X206375000Y-129540000D03*
X203835000Y-130810000D03*
X206375000Y-132080000D03*
X203835000Y-133350000D03*
X206375000Y-134620000D03*
D24*
X194435000Y-122375000D03*
X194435000Y-137975000D03*
%TD*%
D11*
%TO.C,R12*%
X151130000Y-123825000D03*
D12*
X151130000Y-126365000D03*
%TD*%
D17*
%TO.C,D11*%
X168910000Y-127000000D03*
D18*
X166370000Y-127000000D03*
%TD*%
D17*
%TO.C,D31*%
X168910000Y-147320000D03*
D18*
X166370000Y-147320000D03*
%TD*%
D11*
%TO.C,R21*%
X151130000Y-132715000D03*
D12*
X151130000Y-135255000D03*
%TD*%
D15*
%TO.C,J32*%
X214630000Y-147320000D03*
D16*
X214630000Y-142240000D03*
%TD*%
D26*
%TO.C,D1*%
X184785000Y-117475000D03*
D27*
X194945000Y-117475000D03*
%TD*%
D11*
%TO.C,R23*%
X172720000Y-133350000D03*
D12*
X162560000Y-133350000D03*
%TD*%
D11*
%TO.C,R5*%
X165100000Y-111760000D03*
D12*
X154940000Y-111760000D03*
%TD*%
D11*
%TO.C,R33*%
X172720000Y-143510000D03*
D12*
X162560000Y-143510000D03*
%TD*%
D28*
%TO.C,F1*%
X193040000Y-106680000D03*
X187240000Y-106680000D03*
D29*
X178340000Y-106680000D03*
X172540000Y-106680000D03*
%TD*%
M02*
