%TF.GenerationSoftware,KiCad,Pcbnew,(6.0.11)*%
%TF.CreationDate,2023-08-20T08:35:00+03:00*%
%TF.ProjectId,sincos_interpolator,73696e63-6f73-45f6-996e-746572706f6c,rev?*%
%TF.SameCoordinates,Original*%
%TF.FileFunction,Copper,L1,Top*%
%TF.FilePolarity,Positive*%
%FSLAX46Y46*%
G04 Gerber Fmt 4.6, Leading zero omitted, Abs format (unit mm)*
G04 Created by KiCad (PCBNEW (6.0.11)) date 2023-08-20 08:35:00*
%MOMM*%
%LPD*%
G01*
G04 APERTURE LIST*
G04 Aperture macros list*
%AMRoundRect*
0 Rectangle with rounded corners*
0 $1 Rounding radius*
0 $2 $3 $4 $5 $6 $7 $8 $9 X,Y pos of 4 corners*
0 Add a 4 corners polygon primitive as box body*
4,1,4,$2,$3,$4,$5,$6,$7,$8,$9,$2,$3,0*
0 Add four circle primitives for the rounded corners*
1,1,$1+$1,$2,$3*
1,1,$1+$1,$4,$5*
1,1,$1+$1,$6,$7*
1,1,$1+$1,$8,$9*
0 Add four rect primitives between the rounded corners*
20,1,$1+$1,$2,$3,$4,$5,0*
20,1,$1+$1,$4,$5,$6,$7,0*
20,1,$1+$1,$6,$7,$8,$9,0*
20,1,$1+$1,$8,$9,$2,$3,0*%
%AMFreePoly0*
4,1,22,0.500000,-0.750000,0.000000,-0.750000,0.000000,-0.745033,-0.079941,-0.743568,-0.215256,-0.701293,-0.333266,-0.622738,-0.424486,-0.514219,-0.481581,-0.384460,-0.499164,-0.250000,-0.500000,-0.250000,-0.500000,0.250000,-0.499164,0.250000,-0.499963,0.256109,-0.478152,0.396186,-0.417904,0.524511,-0.324060,0.630769,-0.204165,0.706417,-0.067858,0.745374,0.000000,0.744959,0.000000,0.750000,
0.500000,0.750000,0.500000,-0.750000,0.500000,-0.750000,$1*%
%AMFreePoly1*
4,1,20,0.000000,0.744959,0.073905,0.744508,0.209726,0.703889,0.328688,0.626782,0.421226,0.519385,0.479903,0.390333,0.500000,0.250000,0.500000,-0.250000,0.499851,-0.262216,0.476331,-0.402017,0.414519,-0.529596,0.319384,-0.634700,0.198574,-0.708877,0.061801,-0.746166,0.000000,-0.745033,0.000000,-0.750000,-0.500000,-0.750000,-0.500000,0.750000,0.000000,0.750000,0.000000,0.744959,
0.000000,0.744959,$1*%
%AMFreePoly2*
4,1,22,0.550000,-0.750000,0.000000,-0.750000,0.000000,-0.745033,-0.079941,-0.743568,-0.215256,-0.701293,-0.333266,-0.622738,-0.424486,-0.514219,-0.481581,-0.384460,-0.499164,-0.250000,-0.500000,-0.250000,-0.500000,0.250000,-0.499164,0.250000,-0.499963,0.256109,-0.478152,0.396186,-0.417904,0.524511,-0.324060,0.630769,-0.204165,0.706417,-0.067858,0.745374,0.000000,0.744959,0.000000,0.750000,
0.550000,0.750000,0.550000,-0.750000,0.550000,-0.750000,$1*%
%AMFreePoly3*
4,1,20,0.000000,0.744959,0.073905,0.744508,0.209726,0.703889,0.328688,0.626782,0.421226,0.519385,0.479903,0.390333,0.500000,0.250000,0.500000,-0.250000,0.499851,-0.262216,0.476331,-0.402017,0.414519,-0.529596,0.319384,-0.634700,0.198574,-0.708877,0.061801,-0.746166,0.000000,-0.745033,0.000000,-0.750000,-0.550000,-0.750000,-0.550000,0.750000,0.000000,0.750000,0.000000,0.744959,
0.000000,0.744959,$1*%
G04 Aperture macros list end*
%TA.AperFunction,SMDPad,CuDef*%
%ADD10FreePoly0,270.000000*%
%TD*%
%TA.AperFunction,SMDPad,CuDef*%
%ADD11FreePoly1,270.000000*%
%TD*%
%TA.AperFunction,SMDPad,CuDef*%
%ADD12FreePoly2,270.000000*%
%TD*%
%TA.AperFunction,SMDPad,CuDef*%
%ADD13R,1.500000X1.000000*%
%TD*%
%TA.AperFunction,SMDPad,CuDef*%
%ADD14FreePoly3,270.000000*%
%TD*%
%TA.AperFunction,ComponentPad*%
%ADD15R,1.905000X2.000000*%
%TD*%
%TA.AperFunction,ComponentPad*%
%ADD16O,1.905000X2.000000*%
%TD*%
%TA.AperFunction,ComponentPad*%
%ADD17R,2.600000X2.600000*%
%TD*%
%TA.AperFunction,ComponentPad*%
%ADD18C,2.600000*%
%TD*%
%TA.AperFunction,ComponentPad*%
%ADD19C,1.600000*%
%TD*%
%TA.AperFunction,ComponentPad*%
%ADD20R,1.800000X1.800000*%
%TD*%
%TA.AperFunction,ComponentPad*%
%ADD21C,1.800000*%
%TD*%
%TA.AperFunction,ComponentPad*%
%ADD22O,1.600000X1.600000*%
%TD*%
%TA.AperFunction,SMDPad,CuDef*%
%ADD23FreePoly0,90.000000*%
%TD*%
%TA.AperFunction,SMDPad,CuDef*%
%ADD24FreePoly1,90.000000*%
%TD*%
%TA.AperFunction,SMDPad,CuDef*%
%ADD25RoundRect,0.100000X0.100000X-0.637500X0.100000X0.637500X-0.100000X0.637500X-0.100000X-0.637500X0*%
%TD*%
%TA.AperFunction,ComponentPad*%
%ADD26R,1.600000X1.600000*%
%TD*%
%TA.AperFunction,SMDPad,CuDef*%
%ADD27RoundRect,0.150000X-0.150000X0.825000X-0.150000X-0.825000X0.150000X-0.825000X0.150000X0.825000X0*%
%TD*%
%TA.AperFunction,ComponentPad*%
%ADD28RoundRect,0.400000X0.400000X0.400000X-0.400000X0.400000X-0.400000X-0.400000X0.400000X-0.400000X0*%
%TD*%
%TA.AperFunction,ComponentPad*%
%ADD29C,2.500000*%
%TD*%
%TA.AperFunction,ComponentPad*%
%ADD30RoundRect,0.400000X-0.400000X-0.400000X0.400000X-0.400000X0.400000X0.400000X-0.400000X0.400000X0*%
%TD*%
%TA.AperFunction,ComponentPad*%
%ADD31R,2.200000X2.200000*%
%TD*%
%TA.AperFunction,ComponentPad*%
%ADD32O,2.200000X2.200000*%
%TD*%
%TA.AperFunction,ComponentPad*%
%ADD33RoundRect,0.575000X0.575000X0.575000X-0.575000X0.575000X-0.575000X-0.575000X0.575000X-0.575000X0*%
%TD*%
%TA.AperFunction,ComponentPad*%
%ADD34C,2.300000*%
%TD*%
%TA.AperFunction,ViaPad*%
%ADD35C,0.800000*%
%TD*%
%TA.AperFunction,Conductor*%
%ADD36C,2.000000*%
%TD*%
%TA.AperFunction,Conductor*%
%ADD37C,0.250000*%
%TD*%
%TA.AperFunction,Conductor*%
%ADD38C,0.200000*%
%TD*%
G04 APERTURE END LIST*
D10*
%TO.P,JP32,1,A*%
%TO.N,/Z*%
X176530000Y-134635000D03*
D11*
%TO.P,JP32,2,B*%
%TO.N,/Z+*%
X176530000Y-135935000D03*
%TD*%
D12*
%TO.P,JP5,1,A*%
%TO.N,GND*%
X154940000Y-146655000D03*
D13*
%TO.P,JP5,2,C*%
%TO.N,/ROT*%
X154940000Y-147955000D03*
D14*
%TO.P,JP5,3,B*%
%TO.N,+5V*%
X154940000Y-149255000D03*
%TD*%
D15*
%TO.P,Q1,1,K*%
%TO.N,GND*%
X160020000Y-114300000D03*
D16*
%TO.P,Q1,2,A*%
%TO.N,+5V*%
X162560000Y-114300000D03*
%TO.P,Q1,3,G*%
%TO.N,Net-(C2-Pad1)*%
X165100000Y-114300000D03*
%TD*%
D17*
%TO.P,J11,1,Pin_1*%
%TO.N,/PSIN*%
X125730000Y-121920000D03*
D18*
%TO.P,J11,2,Pin_2*%
%TO.N,/NSIN*%
X125730000Y-127000000D03*
%TD*%
D19*
%TO.P,C2,1*%
%TO.N,Net-(C2-Pad1)*%
X170180000Y-114260000D03*
%TO.P,C2,2*%
%TO.N,GND*%
X170180000Y-111760000D03*
%TD*%
D12*
%TO.P,JP1,1,A*%
%TO.N,GND*%
X151130000Y-146655000D03*
D13*
%TO.P,JP1,2,C*%
%TO.N,/SG0*%
X151130000Y-147955000D03*
D14*
%TO.P,JP1,3,B*%
%TO.N,+5V*%
X151130000Y-149255000D03*
%TD*%
D20*
%TO.P,D2,1,K*%
%TO.N,Net-(D2-Pad1)*%
X200025000Y-114295000D03*
D21*
%TO.P,D2,2,A*%
%TO.N,+5V*%
X200025000Y-116835000D03*
%TD*%
D19*
%TO.P,R13,1*%
%TO.N,Net-(D11-Pad1)*%
X172720000Y-123190000D03*
D22*
%TO.P,R13,2*%
%TO.N,GND*%
X162560000Y-123190000D03*
%TD*%
D20*
%TO.P,D21,1,K*%
%TO.N,Net-(D21-Pad1)*%
X168910000Y-137160000D03*
D21*
%TO.P,D21,2,A*%
%TO.N,/B*%
X166370000Y-137160000D03*
%TD*%
D17*
%TO.P,J21,1,Pin_1*%
%TO.N,/PCOS*%
X125730000Y-132080000D03*
D18*
%TO.P,J21,2,Pin_2*%
%TO.N,/NCOS*%
X125730000Y-137160000D03*
%TD*%
D19*
%TO.P,C5,1*%
%TO.N,+5V*%
X175260000Y-124460000D03*
%TO.P,C5,2*%
%TO.N,GND*%
X175260000Y-121960000D03*
%TD*%
D17*
%TO.P,J12,1,Pin_1*%
%TO.N,/A-*%
X214630000Y-127000000D03*
D18*
%TO.P,J12,2,Pin_2*%
%TO.N,/A+*%
X214630000Y-121920000D03*
%TD*%
D19*
%TO.P,R1,1*%
%TO.N,Net-(D2-Pad1)*%
X195580000Y-113665000D03*
D22*
%TO.P,R1,2*%
%TO.N,GND*%
X185420000Y-113665000D03*
%TD*%
D23*
%TO.P,JP23,1,A*%
%TO.N,/B-*%
X177800000Y-121330000D03*
D24*
%TO.P,JP23,2,B*%
%TO.N,GND*%
X177800000Y-120030000D03*
%TD*%
D17*
%TO.P,J2,1,Pin_1*%
%TO.N,+5V*%
X125730000Y-106680000D03*
D18*
%TO.P,J2,2,Pin_2*%
%TO.N,GND*%
X125730000Y-111760000D03*
%TO.P,J2,3,Pin_3*%
X125730000Y-116840000D03*
%TD*%
D12*
%TO.P,JP4,1,A*%
%TO.N,GND*%
X158750000Y-146685000D03*
D13*
%TO.P,JP4,2,C*%
%TO.N,/SF1*%
X158750000Y-147985000D03*
D14*
%TO.P,JP4,3,B*%
%TO.N,+5V*%
X158750000Y-149285000D03*
%TD*%
D19*
%TO.P,C3,1*%
%TO.N,+5V*%
X160020000Y-122515000D03*
%TO.P,C3,2*%
%TO.N,GND*%
X160020000Y-120015000D03*
%TD*%
D25*
%TO.P,U1,1,PCOS*%
%TO.N,/PCOS*%
X153285000Y-132402500D03*
%TO.P,U1,2,NCOS*%
%TO.N,/NCOS*%
X153935000Y-132402500D03*
%TO.P,U1,3,SG1*%
%TO.N,/SG1*%
X154585000Y-132402500D03*
%TO.P,U1,4,SG0*%
%TO.N,/SG0*%
X155235000Y-132402500D03*
%TO.P,U1,5,VREF*%
%TO.N,/VREF*%
X155885000Y-132402500D03*
%TO.P,U1,6,ROT*%
%TO.N,/ROT*%
X156535000Y-132402500D03*
%TO.P,U1,7,SF1*%
%TO.N,/SF1*%
X157185000Y-132402500D03*
%TO.P,U1,8,SF0*%
%TO.N,/SF0*%
X157835000Y-132402500D03*
%TO.P,U1,9,GND*%
%TO.N,GND*%
X158485000Y-132402500D03*
%TO.P,U1,10,Z*%
%TO.N,/Z*%
X159135000Y-132402500D03*
%TO.P,U1,11,B*%
%TO.N,/B*%
X159135000Y-126677500D03*
%TO.P,U1,12,A*%
%TO.N,/A*%
X158485000Y-126677500D03*
%TO.P,U1,13,VDD*%
%TO.N,+5V*%
X157835000Y-126677500D03*
%TO.P,U1,14,RCLK*%
%TO.N,/RCLK*%
X157185000Y-126677500D03*
%TO.P,U1,15,VCC*%
%TO.N,+5V*%
X156535000Y-126677500D03*
%TO.P,U1,16,GNDA*%
%TO.N,GND*%
X155885000Y-126677500D03*
%TO.P,U1,17,PZERO*%
%TO.N,/PZERO*%
X155235000Y-126677500D03*
%TO.P,U1,18,NZERO*%
%TO.N,/NZERO*%
X154585000Y-126677500D03*
%TO.P,U1,19,PSIN*%
%TO.N,/PSIN*%
X153935000Y-126677500D03*
%TO.P,U1,20,NSIN*%
%TO.N,/NSIN*%
X153285000Y-126677500D03*
%TD*%
D17*
%TO.P,J22,1,Pin_1*%
%TO.N,/B-*%
X214630000Y-137160000D03*
D18*
%TO.P,J22,2,Pin_2*%
%TO.N,/B+*%
X214630000Y-132080000D03*
%TD*%
D17*
%TO.P,J31,1,Pin_1*%
%TO.N,/PZERO*%
X125730000Y-142240000D03*
D18*
%TO.P,J31,2,Pin_2*%
%TO.N,/NZERO*%
X125730000Y-147320000D03*
%TD*%
D19*
%TO.P,C4,1*%
%TO.N,+5V*%
X157480000Y-122515000D03*
%TO.P,C4,2*%
%TO.N,GND*%
X157480000Y-120015000D03*
%TD*%
D10*
%TO.P,JP33,1,A*%
%TO.N,/Z-*%
X176530000Y-137825000D03*
D11*
%TO.P,JP33,2,B*%
%TO.N,GND*%
X176530000Y-139125000D03*
%TD*%
D17*
%TO.P,J1,1,Pin_1*%
%TO.N,GND*%
X214630000Y-116840000D03*
D18*
%TO.P,J1,2,Pin_2*%
X214630000Y-111760000D03*
%TO.P,J1,3,Pin_3*%
%TO.N,+5VP*%
X214630000Y-106680000D03*
%TD*%
D26*
%TO.P,C1,1*%
%TO.N,+5V*%
X149860000Y-106680000D03*
D19*
%TO.P,C1,2*%
%TO.N,GND*%
X149860000Y-109180000D03*
%TD*%
D12*
%TO.P,JP2,1,A*%
%TO.N,GND*%
X147320000Y-146685000D03*
D13*
%TO.P,JP2,2,C*%
%TO.N,/SG1*%
X147320000Y-147985000D03*
D14*
%TO.P,JP2,3,B*%
%TO.N,+5V*%
X147320000Y-149285000D03*
%TD*%
D27*
%TO.P,U2,1,INPUT*%
%TO.N,/A*%
X185420000Y-127095000D03*
%TO.P,U2,2,OUT+*%
%TO.N,/A+*%
X184150000Y-127095000D03*
%TO.P,U2,3,OUT-*%
%TO.N,/A-*%
X182880000Y-127095000D03*
%TO.P,U2,4,ENABLE*%
%TO.N,+5V*%
X181610000Y-127095000D03*
%TO.P,U2,5,OUT-*%
%TO.N,/B-*%
X180340000Y-127095000D03*
%TO.P,U2,6,OUT+*%
%TO.N,/B+*%
X179070000Y-127095000D03*
%TO.P,U2,7,INPUT*%
%TO.N,/B*%
X177800000Y-127095000D03*
%TO.P,U2,8,GND*%
%TO.N,+5V*%
X176530000Y-127095000D03*
%TO.P,U2,9,INPUT*%
%TO.N,/Z*%
X176530000Y-132045000D03*
%TO.P,U2,10,OUT+*%
%TO.N,/Z+*%
X177800000Y-132045000D03*
%TO.P,U2,11,OUT-*%
%TO.N,/Z-*%
X179070000Y-132045000D03*
%TO.P,U2,12,ENABLE*%
%TO.N,+5V*%
X180340000Y-132045000D03*
%TO.P,U2,13,OUT-*%
%TO.N,unconnected-(U2-Pad13)*%
X181610000Y-132045000D03*
%TO.P,U2,14,OUT+*%
%TO.N,unconnected-(U2-Pad14)*%
X182880000Y-132045000D03*
%TO.P,U2,15,INPUT*%
%TO.N,GND*%
X184150000Y-132045000D03*
%TO.P,U2,16,VCC*%
X185420000Y-132045000D03*
%TD*%
D19*
%TO.P,R22,1*%
%TO.N,Net-(JP21-Pad2)*%
X151130000Y-137795000D03*
D22*
%TO.P,R22,2*%
%TO.N,/NCOS*%
X151130000Y-140335000D03*
%TD*%
D19*
%TO.P,R3,1*%
%TO.N,/RCLK*%
X153035000Y-115570000D03*
D22*
%TO.P,R3,2*%
%TO.N,GND*%
X142875000Y-115570000D03*
%TD*%
D28*
%TO.P,J3,1*%
%TO.N,/PSIN*%
X144780000Y-125095000D03*
D19*
%TO.P,J3,2*%
%TO.N,/NSIN*%
X147320000Y-126365000D03*
%TO.P,J3,3*%
%TO.N,/PCOS*%
X144780000Y-127635000D03*
%TO.P,J3,4*%
%TO.N,/PZERO*%
X147320000Y-128905000D03*
%TO.P,J3,5*%
%TO.N,/NZERO*%
X144780000Y-130175000D03*
%TO.P,J3,6*%
%TO.N,/NCOS*%
X147320000Y-131445000D03*
%TO.P,J3,7*%
%TO.N,+5V*%
X144780000Y-132715000D03*
%TO.P,J3,8*%
%TO.N,GND*%
X147320000Y-133985000D03*
D29*
%TO.P,J3,SH*%
X135380000Y-137340000D03*
X135380000Y-121740000D03*
%TD*%
D10*
%TO.P,JP6,1,A*%
%TO.N,+5V*%
X154305000Y-118745000D03*
D11*
%TO.P,JP6,2,B*%
%TO.N,/RCLK*%
X154305000Y-120045000D03*
%TD*%
D19*
%TO.P,R2,1*%
%TO.N,Net-(C2-Pad1)*%
X172720000Y-111252000D03*
D22*
%TO.P,R2,2*%
%TO.N,GND*%
X182880000Y-111252000D03*
%TD*%
D19*
%TO.P,R11,1*%
%TO.N,/PSIN*%
X151130000Y-118745000D03*
D22*
%TO.P,R11,2*%
%TO.N,Net-(JP11-Pad2)*%
X151130000Y-121285000D03*
%TD*%
D30*
%TO.P,J4,1*%
%TO.N,/A+*%
X194310000Y-133985000D03*
D19*
%TO.P,J4,2*%
%TO.N,/A-*%
X191770000Y-132715000D03*
%TO.P,J4,3*%
%TO.N,/B+*%
X194310000Y-131445000D03*
%TO.P,J4,4*%
%TO.N,/Z-*%
X191770000Y-130175000D03*
%TO.P,J4,5*%
%TO.N,/Z+*%
X194310000Y-128905000D03*
%TO.P,J4,6*%
%TO.N,/B-*%
X191770000Y-127635000D03*
%TO.P,J4,7*%
%TO.N,+5VP*%
X194310000Y-126365000D03*
%TO.P,J4,8*%
%TO.N,GND*%
X191770000Y-125095000D03*
D29*
%TO.P,J4,SH*%
X203710000Y-137340000D03*
X203710000Y-121740000D03*
%TD*%
D19*
%TO.P,R12,1*%
%TO.N,Net-(JP11-Pad2)*%
X151130000Y-123825000D03*
D22*
%TO.P,R12,2*%
%TO.N,/NSIN*%
X151130000Y-126365000D03*
%TD*%
D10*
%TO.P,JP21,1,A*%
%TO.N,/VREF*%
X153670000Y-135225000D03*
D11*
%TO.P,JP21,2,B*%
%TO.N,Net-(JP21-Pad2)*%
X153670000Y-136525000D03*
%TD*%
D20*
%TO.P,D11,1,K*%
%TO.N,Net-(D11-Pad1)*%
X168910000Y-127000000D03*
D21*
%TO.P,D11,2,A*%
%TO.N,/A*%
X166370000Y-127000000D03*
%TD*%
D20*
%TO.P,D31,1,K*%
%TO.N,Net-(D31-Pad1)*%
X168910000Y-147320000D03*
D21*
%TO.P,D31,2,A*%
%TO.N,/Z*%
X166370000Y-147320000D03*
%TD*%
D19*
%TO.P,R21,1*%
%TO.N,/PCOS*%
X151130000Y-132715000D03*
D22*
%TO.P,R21,2*%
%TO.N,Net-(JP21-Pad2)*%
X151130000Y-135255000D03*
%TD*%
D23*
%TO.P,JP22,1,A*%
%TO.N,/B*%
X177800000Y-124490000D03*
D24*
%TO.P,JP22,2,B*%
%TO.N,/B+*%
X177800000Y-123190000D03*
%TD*%
D17*
%TO.P,J32,1,Pin_1*%
%TO.N,/Z-*%
X214630000Y-147320000D03*
D18*
%TO.P,J32,2,Pin_2*%
%TO.N,/Z+*%
X214630000Y-142240000D03*
%TD*%
D31*
%TO.P,D1,1,K*%
%TO.N,+5V*%
X185420000Y-116840000D03*
D32*
%TO.P,D1,2,A*%
%TO.N,GND*%
X195580000Y-116840000D03*
%TD*%
D19*
%TO.P,R23,1*%
%TO.N,Net-(D21-Pad1)*%
X172720000Y-133350000D03*
D22*
%TO.P,R23,2*%
%TO.N,GND*%
X162560000Y-133350000D03*
%TD*%
D19*
%TO.P,R33,1*%
%TO.N,Net-(D31-Pad1)*%
X172720000Y-143510000D03*
D22*
%TO.P,R33,2*%
%TO.N,GND*%
X162560000Y-143510000D03*
%TD*%
D23*
%TO.P,JP12,1,A*%
%TO.N,/A*%
X185420000Y-124490000D03*
D24*
%TO.P,JP12,2,B*%
%TO.N,/A+*%
X185420000Y-123190000D03*
%TD*%
D23*
%TO.P,JP11,1,A*%
%TO.N,/VREF*%
X154305000Y-123855000D03*
D24*
%TO.P,JP11,2,B*%
%TO.N,Net-(JP11-Pad2)*%
X154305000Y-122555000D03*
%TD*%
D26*
%TO.P,D3,1,K*%
%TO.N,+5V*%
X180340000Y-114300000D03*
D22*
%TO.P,D3,2,A*%
%TO.N,Net-(C2-Pad1)*%
X172720000Y-114300000D03*
%TD*%
D23*
%TO.P,JP13,1,A*%
%TO.N,/A-*%
X185450000Y-121345000D03*
D24*
%TO.P,JP13,2,B*%
%TO.N,GND*%
X185450000Y-120045000D03*
%TD*%
D33*
%TO.P,F1,1*%
%TO.N,+5VP*%
X193040000Y-106680000D03*
X187240000Y-106680000D03*
D34*
%TO.P,F1,2*%
%TO.N,+5V*%
X178340000Y-106680000D03*
X172540000Y-106680000D03*
%TD*%
D12*
%TO.P,JP3,1,A*%
%TO.N,GND*%
X162560000Y-146655000D03*
D13*
%TO.P,JP3,2,C*%
%TO.N,/SF0*%
X162560000Y-147955000D03*
D14*
%TO.P,JP3,3,B*%
%TO.N,+5V*%
X162560000Y-149255000D03*
%TD*%
D35*
%TO.N,+5V*%
X181610000Y-125476000D03*
X175260000Y-130899500D03*
X146050000Y-132715000D03*
X175260000Y-133350000D03*
X146050000Y-123825000D03*
X180467000Y-133634000D03*
X175260000Y-128211000D03*
%TO.N,GND*%
X184150000Y-134015000D03*
X162560000Y-145415000D03*
X151130000Y-145415000D03*
X179070000Y-120045000D03*
X155448000Y-124968000D03*
X147320000Y-145415000D03*
X158750000Y-145415000D03*
X177800000Y-139095000D03*
X154940000Y-145415000D03*
X185420000Y-134015000D03*
X184150000Y-120045000D03*
%TO.N,/VREF*%
X152418810Y-124370500D03*
X152418810Y-134709500D03*
X152400000Y-130810000D03*
%TO.N,/A+*%
X197485000Y-125730000D03*
X197485000Y-132715000D03*
%TO.N,/Z+*%
X190500000Y-128905000D03*
X190500000Y-133985000D03*
%TO.N,/A-*%
X187325000Y-123889500D03*
X187325000Y-122490500D03*
X196215000Y-132715000D03*
X196215000Y-127000000D03*
%TO.N,/Z-*%
X189230000Y-136589500D03*
X189230000Y-130175000D03*
%TO.N,/A*%
X181610000Y-128870500D03*
X177800000Y-128935000D03*
%TO.N,/B*%
X164846000Y-130899500D03*
X164846000Y-128778000D03*
%TO.N,/PCOS*%
X149225000Y-130899500D03*
X142240000Y-127635000D03*
X149225000Y-127635000D03*
X142240000Y-131445000D03*
%TO.N,/NZERO*%
X150495000Y-128180500D03*
X150495000Y-130175000D03*
%TO.N,+5VP*%
X196850000Y-123825000D03*
%TD*%
D36*
%TO.N,+5V*%
X129540000Y-106680000D02*
X125730000Y-106680000D01*
D37*
X175260000Y-124460000D02*
X175260000Y-127000000D01*
X180340000Y-133507000D02*
X180467000Y-133634000D01*
D36*
X143380000Y-110360000D02*
X147060000Y-106680000D01*
D37*
X157835000Y-126677500D02*
X157835000Y-122870000D01*
X157835000Y-122870000D02*
X157480000Y-122515000D01*
D36*
X181610000Y-116840000D02*
X185420000Y-116840000D01*
D37*
X175260000Y-127000000D02*
X175260000Y-128211000D01*
X200025000Y-116835000D02*
X198115000Y-118745000D01*
D36*
X181610000Y-116840000D02*
X162560000Y-116840000D01*
X162560000Y-114300000D02*
X162560000Y-116840000D01*
X160020000Y-122515000D02*
X157480000Y-122515000D01*
D37*
X146050000Y-123825000D02*
X146050000Y-113030000D01*
D36*
X162560000Y-106680000D02*
X172540000Y-106680000D01*
D37*
X175260000Y-133350000D02*
X175260000Y-144780000D01*
D36*
X134620000Y-111760000D02*
X129540000Y-106680000D01*
D37*
X156908959Y-127740000D02*
X156535000Y-127366041D01*
X176530000Y-127095000D02*
X175355000Y-127095000D01*
X154305000Y-118745000D02*
X154305000Y-118110000D01*
X175260000Y-144780000D02*
X170785000Y-149255000D01*
X155575000Y-116840000D02*
X162560000Y-116840000D01*
X154910000Y-149285000D02*
X154940000Y-149255000D01*
X181610000Y-127095000D02*
X181610000Y-117759000D01*
D36*
X162560000Y-120361572D02*
X160406572Y-122515000D01*
D37*
X175355000Y-127095000D02*
X175260000Y-127000000D01*
X146050000Y-113030000D02*
X143380000Y-110360000D01*
D36*
X134620000Y-111760000D02*
X141980000Y-111760000D01*
D37*
X175260000Y-130899500D02*
X175260000Y-133350000D01*
X191770000Y-116840000D02*
X185420000Y-116840000D01*
X147320000Y-149285000D02*
X151130000Y-149285000D01*
X180340000Y-114300000D02*
X181610000Y-115570000D01*
D36*
X162560000Y-116840000D02*
X162560000Y-120361572D01*
X141980000Y-111760000D02*
X143380000Y-110360000D01*
D37*
X154305000Y-118110000D02*
X155575000Y-116840000D01*
X170785000Y-149255000D02*
X162560000Y-149255000D01*
X180340000Y-132045000D02*
X180340000Y-133507000D01*
X157835000Y-126677500D02*
X157835000Y-127366041D01*
D36*
X178340000Y-106680000D02*
X172540000Y-106680000D01*
D37*
X157461041Y-127740000D02*
X156908959Y-127740000D01*
X158720000Y-149255000D02*
X158750000Y-149285000D01*
D36*
X160406572Y-122515000D02*
X160020000Y-122515000D01*
D37*
X151130000Y-149285000D02*
X154910000Y-149285000D01*
X158750000Y-149285000D02*
X162560000Y-149285000D01*
X157835000Y-127366041D02*
X157461041Y-127740000D01*
X156535000Y-127366041D02*
X156535000Y-126677500D01*
X181610000Y-115570000D02*
X181610000Y-116840000D01*
D36*
X149860000Y-106680000D02*
X162560000Y-106680000D01*
X162560000Y-114300000D02*
X162560000Y-106680000D01*
D37*
X193675000Y-118745000D02*
X191770000Y-116840000D01*
X198115000Y-118745000D02*
X193675000Y-118745000D01*
X154940000Y-149255000D02*
X158720000Y-149255000D01*
D36*
X147060000Y-106680000D02*
X149860000Y-106680000D01*
D37*
X144780000Y-132715000D02*
X146050000Y-132715000D01*
%TO.N,GND*%
X155885000Y-126677500D02*
X155885000Y-125405000D01*
X155885000Y-128199000D02*
X158496000Y-130810000D01*
X185450000Y-120045000D02*
X184150000Y-120045000D01*
X177770000Y-139125000D02*
X177800000Y-139095000D01*
X154940000Y-146655000D02*
X154940000Y-145415000D01*
X158750000Y-146685000D02*
X158750000Y-145415000D01*
X155885000Y-126677500D02*
X155885000Y-128199000D01*
X185420000Y-132045000D02*
X185420000Y-134015000D01*
X179055000Y-120030000D02*
X179070000Y-120045000D01*
X176530000Y-139125000D02*
X177770000Y-139125000D01*
X177800000Y-120030000D02*
X179055000Y-120030000D01*
X158496000Y-130810000D02*
X158496000Y-132391500D01*
X151130000Y-146685000D02*
X151130000Y-145415000D01*
X155885000Y-125405000D02*
X155448000Y-124968000D01*
X184150000Y-132045000D02*
X184150000Y-134015000D01*
X162560000Y-146655000D02*
X162560000Y-145415000D01*
X147320000Y-146685000D02*
X147320000Y-145415000D01*
X158496000Y-132391500D02*
X158485000Y-132402500D01*
%TO.N,/SG0*%
X155235000Y-132402500D02*
X155235000Y-133391000D01*
X155235000Y-133391000D02*
X156210000Y-134366000D01*
X152400000Y-147955000D02*
X151130000Y-147955000D01*
X156210000Y-134366000D02*
X156210000Y-142875000D01*
X153035000Y-146050000D02*
X153035000Y-147320000D01*
X156210000Y-142875000D02*
X153035000Y-146050000D01*
X153035000Y-147320000D02*
X152400000Y-147955000D01*
%TO.N,/VREF*%
X154981041Y-130810000D02*
X152400000Y-130810000D01*
X154275000Y-123825000D02*
X154305000Y-123855000D01*
X155885000Y-131713959D02*
X154981041Y-130810000D01*
X152418810Y-124370500D02*
X152964310Y-123825000D01*
X153670000Y-135225000D02*
X152751000Y-135225000D01*
X152418810Y-134892810D02*
X152418810Y-134709500D01*
X152964310Y-123825000D02*
X154275000Y-123825000D01*
X152751000Y-135225000D02*
X152418810Y-134892810D01*
X155885000Y-132402500D02*
X155885000Y-131713959D01*
%TO.N,/SG1*%
X155575000Y-134620000D02*
X155575000Y-141605000D01*
X154585000Y-133630000D02*
X155575000Y-134620000D01*
X154585000Y-132402500D02*
X154585000Y-133630000D01*
X155575000Y-141605000D02*
X153035000Y-144145000D01*
X153035000Y-144145000D02*
X150495000Y-144145000D01*
X149225000Y-147320000D02*
X148560000Y-147985000D01*
X148560000Y-147985000D02*
X147320000Y-147985000D01*
X149225000Y-145415000D02*
X149225000Y-147320000D01*
X150495000Y-144145000D02*
X149225000Y-145415000D01*
%TO.N,/SF0*%
X164465000Y-147050000D02*
X163560000Y-147955000D01*
X163560000Y-147955000D02*
X162560000Y-147955000D01*
X158496000Y-136906000D02*
X164465000Y-142875000D01*
X157835000Y-133451000D02*
X158496000Y-134112000D01*
X158496000Y-134112000D02*
X158496000Y-136906000D01*
X164465000Y-142875000D02*
X164465000Y-147050000D01*
X157835000Y-132402500D02*
X157835000Y-133451000D01*
%TO.N,/SF1*%
X157185000Y-132402500D02*
X157185000Y-133563000D01*
X157185000Y-133563000D02*
X157734000Y-134112000D01*
X157734000Y-134112000D02*
X157734000Y-137160000D01*
X160655000Y-147080000D02*
X159750000Y-147985000D01*
X160655000Y-140081000D02*
X160655000Y-147080000D01*
X159750000Y-147985000D02*
X158750000Y-147985000D01*
X157734000Y-137160000D02*
X160655000Y-140081000D01*
%TO.N,/ROT*%
X156535000Y-133929000D02*
X156972000Y-134366000D01*
X156972000Y-146923000D02*
X155940000Y-147955000D01*
X156535000Y-132402500D02*
X156535000Y-133929000D01*
X155940000Y-147955000D02*
X154940000Y-147955000D01*
X156972000Y-134366000D02*
X156972000Y-146923000D01*
D38*
%TO.N,/A+*%
X194945000Y-123190000D02*
X185420000Y-123190000D01*
X210185000Y-126365000D02*
X214630000Y-121920000D01*
X184150000Y-127095000D02*
X184150000Y-123855000D01*
X184815000Y-123190000D02*
X185420000Y-123190000D01*
X198755000Y-125730000D02*
X199390000Y-126365000D01*
X196850000Y-133985000D02*
X197485000Y-133350000D01*
X194310000Y-133985000D02*
X196850000Y-133985000D01*
X197485000Y-125730000D02*
X198755000Y-125730000D01*
X197485000Y-125730000D02*
X194945000Y-123190000D01*
X184150000Y-123855000D02*
X184815000Y-123190000D01*
X199390000Y-126365000D02*
X210185000Y-126365000D01*
X197485000Y-133350000D02*
X197485000Y-132715000D01*
%TO.N,/B+*%
X179070000Y-123855000D02*
X179070000Y-127095000D01*
X194310000Y-131445000D02*
X213995000Y-131445000D01*
X177800000Y-123190000D02*
X178405000Y-123190000D01*
X179070000Y-127095000D02*
X179070000Y-128935000D01*
X213995000Y-131445000D02*
X214630000Y-132080000D01*
X179070000Y-128935000D02*
X180310000Y-130175000D01*
X180310000Y-130175000D02*
X187325000Y-130175000D01*
X187325000Y-130175000D02*
X188595000Y-131445000D01*
X194310000Y-131445000D02*
X188595000Y-131445000D01*
X178405000Y-123190000D02*
X179070000Y-123855000D01*
%TO.N,/Z+*%
X180975000Y-135890000D02*
X179705000Y-134620000D01*
X196215000Y-135890000D02*
X204470000Y-144145000D01*
X178435000Y-130175000D02*
X177800000Y-130810000D01*
X179070000Y-130175000D02*
X178435000Y-130175000D01*
X177800000Y-135285000D02*
X177800000Y-132045000D01*
X212725000Y-144145000D02*
X214630000Y-142240000D01*
X190500000Y-135890000D02*
X180975000Y-135890000D01*
X194310000Y-128905000D02*
X190500000Y-128905000D01*
X179705000Y-130810000D02*
X179070000Y-130175000D01*
X179705000Y-134620000D02*
X179705000Y-130810000D01*
X177800000Y-130810000D02*
X177800000Y-132045000D01*
X176530000Y-135935000D02*
X177150000Y-135935000D01*
X177150000Y-135935000D02*
X177800000Y-135285000D01*
X190500000Y-135890000D02*
X196215000Y-135890000D01*
X204470000Y-144145000D02*
X212725000Y-144145000D01*
X190500000Y-133985000D02*
X190500000Y-135890000D01*
%TO.N,/A-*%
X196215000Y-126365000D02*
X193675000Y-123825000D01*
X191770000Y-132715000D02*
X196215000Y-132715000D01*
X187389500Y-123825000D02*
X187325000Y-123889500D01*
X196215000Y-127000000D02*
X214630000Y-127000000D01*
X182880000Y-121950000D02*
X183485000Y-121345000D01*
X187325000Y-121920000D02*
X186690000Y-121285000D01*
X182880000Y-127095000D02*
X182880000Y-121950000D01*
X183485000Y-121345000D02*
X185450000Y-121345000D01*
X186690000Y-121285000D02*
X185510000Y-121285000D01*
X193675000Y-123825000D02*
X187389500Y-123825000D01*
X187325000Y-122490500D02*
X187325000Y-121920000D01*
X185510000Y-121285000D02*
X185450000Y-121345000D01*
X196215000Y-127000000D02*
X196215000Y-126365000D01*
%TO.N,/B-*%
X215900000Y-130175000D02*
X217170000Y-131445000D01*
X187295000Y-129570000D02*
X189230000Y-127635000D01*
X197485000Y-130175000D02*
X215900000Y-130175000D01*
X180975000Y-129570000D02*
X187295000Y-129570000D01*
X180340000Y-127095000D02*
X180340000Y-121950000D01*
X179705000Y-121315000D02*
X177815000Y-121315000D01*
X194945000Y-127635000D02*
X197485000Y-130175000D01*
X180340000Y-127095000D02*
X180340000Y-128935000D01*
X180340000Y-128935000D02*
X180975000Y-129570000D01*
X217170000Y-131445000D02*
X217170000Y-134620000D01*
X177815000Y-121315000D02*
X177800000Y-121330000D01*
X189230000Y-127635000D02*
X191770000Y-127635000D01*
X191770000Y-127635000D02*
X194945000Y-127635000D01*
X180340000Y-121950000D02*
X179705000Y-121315000D01*
X217170000Y-134620000D02*
X214630000Y-137160000D01*
%TO.N,/Z-*%
X176530000Y-137825000D02*
X177770000Y-137825000D01*
X195644500Y-136589500D02*
X204470000Y-145415000D01*
X189230000Y-136589500D02*
X195644500Y-136589500D01*
X177770000Y-137825000D02*
X179070000Y-136525000D01*
X179070000Y-136525000D02*
X179134500Y-136589500D01*
X179070000Y-132045000D02*
X179070000Y-136525000D01*
X191770000Y-130175000D02*
X189230000Y-130175000D01*
X212725000Y-145415000D02*
X214630000Y-147320000D01*
X179134500Y-136589500D02*
X189230000Y-136589500D01*
X204470000Y-145415000D02*
X212725000Y-145415000D01*
D37*
%TO.N,Net-(D2-Pad1)*%
X195580000Y-113665000D02*
X197485000Y-113665000D01*
X197485000Y-113665000D02*
X198120000Y-114300000D01*
X198120000Y-114300000D02*
X198125000Y-114295000D01*
X198125000Y-114295000D02*
X200025000Y-114295000D01*
%TO.N,Net-(D11-Pad1)*%
X168910000Y-127000000D02*
X172720000Y-123190000D01*
%TO.N,Net-(D21-Pad1)*%
X168910000Y-137160000D02*
X172720000Y-133350000D01*
%TO.N,/A*%
X184785000Y-128935000D02*
X181610000Y-128935000D01*
X177800000Y-128935000D02*
X177165000Y-129570000D01*
X158485000Y-126677500D02*
X158485000Y-125360000D01*
X160050000Y-129570000D02*
X158485000Y-128005000D01*
X164465000Y-125095000D02*
X166370000Y-127000000D01*
X158485000Y-125360000D02*
X158750000Y-125095000D01*
X181610000Y-128935000D02*
X181610000Y-128870500D01*
X185420000Y-127095000D02*
X185420000Y-124490000D01*
X185420000Y-128300000D02*
X184785000Y-128935000D01*
X177165000Y-129570000D02*
X160050000Y-129570000D01*
X185420000Y-127095000D02*
X185420000Y-128300000D01*
X158750000Y-125095000D02*
X164465000Y-125095000D01*
X158485000Y-128005000D02*
X158485000Y-126677500D01*
%TO.N,/B*%
X177800000Y-127095000D02*
X177800000Y-124490000D01*
X176530000Y-128935000D02*
X177800000Y-127665000D01*
X176499500Y-128935500D02*
X160685500Y-128935500D01*
X160685500Y-128935500D02*
X159135000Y-127385000D01*
X176530000Y-128905000D02*
X176499500Y-128935500D01*
X164846000Y-130899500D02*
X164846000Y-135636000D01*
X159135000Y-127385000D02*
X159135000Y-126677500D01*
X177800000Y-127665000D02*
X177800000Y-127095000D01*
X164846000Y-135636000D02*
X166370000Y-137160000D01*
%TO.N,/Z*%
X159135000Y-132402500D02*
X159135000Y-131060000D01*
X159135000Y-135640000D02*
X166370000Y-142875000D01*
X159135000Y-132402500D02*
X159135000Y-135640000D01*
X175895000Y-130175000D02*
X176530000Y-130810000D01*
X166370000Y-142875000D02*
X166370000Y-147320000D01*
X176530000Y-130810000D02*
X176530000Y-132045000D01*
X160020000Y-130175000D02*
X175895000Y-130175000D01*
X176530000Y-132045000D02*
X176530000Y-134635000D01*
X159135000Y-131060000D02*
X160020000Y-130175000D01*
%TO.N,/PSIN*%
X153935000Y-126677500D02*
X153935000Y-125988959D01*
X149860000Y-120015000D02*
X149860000Y-125095000D01*
X125730000Y-121920000D02*
X130175000Y-126365000D01*
X144780000Y-125095000D02*
X140970000Y-125095000D01*
X140970000Y-125095000D02*
X139700000Y-126365000D01*
X151130000Y-118745000D02*
X149860000Y-120015000D01*
X149860000Y-125095000D02*
X144780000Y-125095000D01*
X153041041Y-125095000D02*
X149860000Y-125095000D01*
X153935000Y-125988959D02*
X153041041Y-125095000D01*
X139700000Y-126365000D02*
X130175000Y-126365000D01*
%TO.N,/NSIN*%
X147320000Y-126365000D02*
X151130000Y-126365000D01*
X141605000Y-126365000D02*
X140335000Y-127635000D01*
X153285000Y-126677500D02*
X152712500Y-126677500D01*
X147320000Y-126365000D02*
X141605000Y-126365000D01*
X140335000Y-127635000D02*
X126365000Y-127635000D01*
X152712500Y-126677500D02*
X152400000Y-126365000D01*
X126365000Y-127635000D02*
X125730000Y-127000000D01*
X152400000Y-126365000D02*
X151130000Y-126365000D01*
%TO.N,/PCOS*%
X149314500Y-130899500D02*
X151130000Y-132715000D01*
X152400000Y-132715000D02*
X151130000Y-132715000D01*
X152712500Y-132402500D02*
X152400000Y-132715000D01*
X126365000Y-131445000D02*
X125730000Y-132080000D01*
X144780000Y-127635000D02*
X142240000Y-127635000D01*
X149225000Y-130899500D02*
X149314500Y-130899500D01*
X144780000Y-127635000D02*
X149225000Y-127635000D01*
X142240000Y-131445000D02*
X126365000Y-131445000D01*
X153285000Y-132402500D02*
X152712500Y-132402500D01*
%TO.N,/NCOS*%
X147320000Y-131445000D02*
X143900305Y-131445000D01*
X149860000Y-139065000D02*
X149860000Y-133985000D01*
X153041041Y-133985000D02*
X149860000Y-133985000D01*
X142630305Y-132715000D02*
X130175000Y-132715000D01*
X147320000Y-131445000D02*
X149860000Y-133985000D01*
X153935000Y-133091041D02*
X153041041Y-133985000D01*
X125730000Y-137160000D02*
X130175000Y-132715000D01*
X151130000Y-140335000D02*
X149860000Y-139065000D01*
X143900305Y-131445000D02*
X142630305Y-132715000D01*
X153935000Y-132402500D02*
X153935000Y-133091041D01*
%TO.N,/PZERO*%
X125730000Y-142240000D02*
X121920000Y-138430000D01*
X155235000Y-127975000D02*
X154305000Y-128905000D01*
X147320000Y-128905000D02*
X123825000Y-128905000D01*
X121920000Y-130810000D02*
X123825000Y-128905000D01*
X154305000Y-128905000D02*
X147320000Y-128905000D01*
X155235000Y-126677500D02*
X155235000Y-127975000D01*
X121920000Y-138430000D02*
X121920000Y-130810000D01*
%TO.N,/NZERO*%
X128270000Y-140970000D02*
X127000000Y-139700000D01*
X154585000Y-127609000D02*
X154585000Y-126677500D01*
X154013500Y-128180500D02*
X154585000Y-127609000D01*
X127000000Y-139700000D02*
X124460000Y-139700000D01*
X123190000Y-138430000D02*
X123190000Y-131445000D01*
X128270000Y-144780000D02*
X128270000Y-140970000D01*
X150495000Y-128180500D02*
X154013500Y-128180500D01*
X125730000Y-147320000D02*
X128270000Y-144780000D01*
X124460000Y-130175000D02*
X144780000Y-130175000D01*
X124460000Y-139700000D02*
X123190000Y-138430000D01*
X123190000Y-131445000D02*
X124460000Y-130175000D01*
X144780000Y-130175000D02*
X150495000Y-130175000D01*
%TO.N,/RCLK*%
X154305000Y-120045000D02*
X153319000Y-120045000D01*
X155575000Y-120015000D02*
X154335000Y-120015000D01*
X157185000Y-124800000D02*
X155956000Y-123571000D01*
X153319000Y-120045000D02*
X153035000Y-119761000D01*
X154335000Y-120015000D02*
X154305000Y-120045000D01*
X157185000Y-126677500D02*
X157185000Y-124800000D01*
X155956000Y-123571000D02*
X155956000Y-120396000D01*
X155956000Y-120396000D02*
X155575000Y-120015000D01*
X153035000Y-119761000D02*
X153035000Y-115570000D01*
%TO.N,Net-(C2-Pad1)*%
X165140000Y-114260000D02*
X165100000Y-114300000D01*
X170220000Y-114300000D02*
X170180000Y-114260000D01*
X170180000Y-114260000D02*
X165140000Y-114260000D01*
X172720000Y-114300000D02*
X172720000Y-111252000D01*
X172720000Y-114300000D02*
X170220000Y-114300000D01*
%TO.N,Net-(D31-Pad1)*%
X168910000Y-147320000D02*
X172720000Y-143510000D01*
%TO.N,Net-(JP11-Pad2)*%
X151130000Y-122555000D02*
X151130000Y-123825000D01*
X154305000Y-122555000D02*
X151130000Y-122555000D01*
X151130000Y-122555000D02*
X151130000Y-121285000D01*
%TO.N,Net-(JP21-Pad2)*%
X151130000Y-136525000D02*
X151130000Y-137795000D01*
X153670000Y-136525000D02*
X151130000Y-136525000D01*
X151130000Y-136525000D02*
X151130000Y-135255000D01*
D36*
%TO.N,+5VP*%
X198120000Y-111760000D02*
X193040000Y-106680000D01*
D37*
X196850000Y-123825000D02*
X201930000Y-118745000D01*
D36*
X210820000Y-106680000D02*
X214630000Y-106680000D01*
D37*
X201930000Y-118745000D02*
X201930000Y-111760000D01*
D36*
X193040000Y-106680000D02*
X187240000Y-106680000D01*
X205740000Y-111760000D02*
X201930000Y-111760000D01*
X201930000Y-111760000D02*
X198120000Y-111760000D01*
X210820000Y-106680000D02*
X205740000Y-111760000D01*
%TD*%
M02*
