M48
; DRILL file {KiCad (6.0.11)} date Sun Oct 13 21:20:12 2024
; FORMAT={-:-/ absolute / metric / decimal}
; #@! TF.CreationDate,2024-10-13T21:20:12+03:00
; #@! TF.GenerationSoftware,Kicad,Pcbnew,(6.0.11)
; #@! TF.FileFunction,Plated,1,2,PTH
FMAT,2
METRIC
; #@! TA.AperFunction,Plated,PTH,ViaDrill
T1C0.400
; #@! TA.AperFunction,Plated,PTH,ViaDrill
T2C0.700
; #@! TA.AperFunction,Plated,PTH,ComponentDrill
T3C0.750
; #@! TA.AperFunction,Plated,PTH,ComponentDrill
T4C0.800
; #@! TA.AperFunction,Plated,PTH,ComponentDrill
T5C0.900
; #@! TA.AperFunction,Plated,PTH,ComponentDrill
T6C1.000
; #@! TA.AperFunction,Plated,PTH,ComponentDrill
T7C1.100
; #@! TA.AperFunction,Plated,PTH,ComponentDrill
T8C1.300
; #@! TA.AperFunction,Plated,PTH,ComponentDrill
T9C1.700
%
G90
G05
T1
X132.061Y-128.815
X134.62Y-123.735
X137.16Y-128.27
X137.16Y-133.439
X147.32Y-145.415
X151.13Y-145.415
X152.4Y-130.81
X152.419Y-124.37
X152.419Y-134.709
X154.94Y-145.415
X155.448Y-124.968
X158.75Y-145.415
X159.085Y-130.085
X160.11Y-131.11
X162.56Y-145.415
X164.846Y-128.778
X164.846Y-130.899
X168.82Y-110.49
X170.269Y-110.49
X175.26Y-127.0
X177.8Y-112.9
X177.8Y-128.935
X177.8Y-139.095
X179.07Y-120.045
X180.927Y-133.397
X181.61Y-113.03
X181.61Y-125.095
X181.61Y-128.87
X184.15Y-120.045
X184.15Y-133.604
X200.66Y-132.08
X201.93Y-127.7
X201.93Y-130.27
T2
X134.62Y-116.84
X135.89Y-119.38
X204.47Y-121.92
X205.486Y-116.84
X207.01Y-119.38
X208.915Y-123.825
X208.915Y-133.985
T3
X169.545Y-111.76
X169.545Y-113.03
X169.545Y-114.3
X173.99Y-111.76
X173.99Y-113.03
X173.99Y-114.3
T4
X140.335Y-115.57
X148.59Y-106.68
X148.59Y-109.18
X150.495Y-115.57
X151.13Y-118.745
X151.13Y-121.285
X151.13Y-123.825
X151.13Y-126.365
X151.13Y-132.715
X151.13Y-135.255
X151.13Y-137.795
X151.13Y-140.335
X154.94Y-108.75
X154.94Y-111.76
X157.48Y-119.38
X157.48Y-122.428
X159.98Y-119.38
X159.98Y-122.428
X162.56Y-123.19
X162.56Y-133.35
X162.56Y-143.51
X164.465Y-117.475
X165.1Y-108.75
X165.1Y-111.76
X172.72Y-123.19
X172.72Y-133.35
X172.72Y-143.51
X174.625Y-117.475
X177.8Y-111.125
X177.8Y-114.3
X179.11Y-117.475
X181.61Y-117.475
X182.88Y-134.62
X185.38Y-134.62
X187.96Y-111.125
X187.96Y-114.3
X190.5Y-114.3
X200.66Y-114.3
T5
X166.37Y-127.0
X166.37Y-137.16
X166.37Y-147.32
X168.91Y-127.0
X168.91Y-137.16
X168.91Y-147.32
X198.12Y-118.11
X200.66Y-118.11
T6
X133.35Y-125.73
X133.35Y-128.27
X133.35Y-130.81
X133.35Y-133.35
X135.89Y-127.0
X135.89Y-129.54
X135.89Y-132.08
X135.89Y-134.62
X203.835Y-125.73
X203.835Y-128.27
X203.835Y-130.81
X203.835Y-133.35
X206.375Y-127.0
X206.375Y-129.54
X206.375Y-132.08
X206.375Y-134.62
T7
X154.94Y-116.205
X157.48Y-116.205
X160.02Y-116.205
X184.785Y-117.475
X194.945Y-117.475
T8
X125.73Y-106.68
X125.73Y-111.76
X125.73Y-116.84
X125.73Y-121.92
X125.73Y-127.0
X125.73Y-132.08
X125.73Y-137.16
X125.73Y-142.24
X125.73Y-147.32
X172.54Y-106.68
X178.34Y-106.68
X187.24Y-106.68
X193.04Y-106.68
X214.63Y-106.68
X214.63Y-111.76
X214.63Y-116.84
X214.63Y-121.92
X214.63Y-127.0
X214.63Y-132.08
X214.63Y-137.16
X214.63Y-142.24
X214.63Y-147.32
T9
X145.29Y-122.375
X145.29Y-137.975
X194.435Y-122.375
X194.435Y-137.975
T0
M30
