%TF.GenerationSoftware,KiCad,Pcbnew,(6.0.11)*%
%TF.CreationDate,2023-08-22T21:03:22+03:00*%
%TF.ProjectId,sincos_interpolator,73696e63-6f73-45f6-996e-746572706f6c,rev?*%
%TF.SameCoordinates,Original*%
%TF.FileFunction,Soldermask,Top*%
%TF.FilePolarity,Negative*%
%FSLAX46Y46*%
G04 Gerber Fmt 4.6, Leading zero omitted, Abs format (unit mm)*
G04 Created by KiCad (PCBNEW (6.0.11)) date 2023-08-22 21:03:22*
%MOMM*%
%LPD*%
G01*
G04 APERTURE LIST*
G04 Aperture macros list*
%AMRoundRect*
0 Rectangle with rounded corners*
0 $1 Rounding radius*
0 $2 $3 $4 $5 $6 $7 $8 $9 X,Y pos of 4 corners*
0 Add a 4 corners polygon primitive as box body*
4,1,4,$2,$3,$4,$5,$6,$7,$8,$9,$2,$3,0*
0 Add four circle primitives for the rounded corners*
1,1,$1+$1,$2,$3*
1,1,$1+$1,$4,$5*
1,1,$1+$1,$6,$7*
1,1,$1+$1,$8,$9*
0 Add four rect primitives between the rounded corners*
20,1,$1+$1,$2,$3,$4,$5,0*
20,1,$1+$1,$4,$5,$6,$7,0*
20,1,$1+$1,$6,$7,$8,$9,0*
20,1,$1+$1,$8,$9,$2,$3,0*%
%AMFreePoly0*
4,1,20,0.000000,0.744959,0.073905,0.744508,0.209726,0.703889,0.328688,0.626782,0.421226,0.519385,0.479903,0.390333,0.500000,0.250000,0.500000,-0.250000,0.499851,-0.262216,0.476331,-0.402017,0.414519,-0.529596,0.319384,-0.634700,0.198574,-0.708877,0.061801,-0.746166,0.000000,-0.745033,0.000000,-0.750000,-0.500000,-0.750000,-0.500000,0.750000,0.000000,0.750000,0.000000,0.744959,
0.000000,0.744959,$1*%
%AMFreePoly1*
4,1,22,0.500000,-0.750000,0.000000,-0.750000,0.000000,-0.745033,-0.079941,-0.743568,-0.215256,-0.701293,-0.333266,-0.622738,-0.424486,-0.514219,-0.481581,-0.384460,-0.499164,-0.250000,-0.500000,-0.250000,-0.500000,0.250000,-0.499164,0.250000,-0.499963,0.256109,-0.478152,0.396186,-0.417904,0.524511,-0.324060,0.630769,-0.204165,0.706417,-0.067858,0.745374,0.000000,0.744959,0.000000,0.750000,
0.500000,0.750000,0.500000,-0.750000,0.500000,-0.750000,$1*%
%AMFreePoly2*
4,1,22,0.550000,-0.750000,0.000000,-0.750000,0.000000,-0.745033,-0.079941,-0.743568,-0.215256,-0.701293,-0.333266,-0.622738,-0.424486,-0.514219,-0.481581,-0.384460,-0.499164,-0.250000,-0.500000,-0.250000,-0.500000,0.250000,-0.499164,0.250000,-0.499963,0.256109,-0.478152,0.396186,-0.417904,0.524511,-0.324060,0.630769,-0.204165,0.706417,-0.067858,0.745374,0.000000,0.744959,0.000000,0.750000,
0.550000,0.750000,0.550000,-0.750000,0.550000,-0.750000,$1*%
%AMFreePoly3*
4,1,20,0.000000,0.744959,0.073905,0.744508,0.209726,0.703889,0.328688,0.626782,0.421226,0.519385,0.479903,0.390333,0.500000,0.250000,0.500000,-0.250000,0.499851,-0.262216,0.476331,-0.402017,0.414519,-0.529596,0.319384,-0.634700,0.198574,-0.708877,0.061801,-0.746166,0.000000,-0.745033,0.000000,-0.750000,-0.550000,-0.750000,-0.550000,0.750000,0.000000,0.750000,0.000000,0.744959,
0.000000,0.744959,$1*%
G04 Aperture macros list end*
%ADD10FreePoly0,0.000000*%
%ADD11FreePoly1,0.000000*%
%ADD12FreePoly1,180.000000*%
%ADD13FreePoly0,180.000000*%
%ADD14FreePoly1,270.000000*%
%ADD15FreePoly0,270.000000*%
%ADD16C,3.200000*%
%ADD17FreePoly2,270.000000*%
%ADD18R,1.500000X1.000000*%
%ADD19FreePoly3,270.000000*%
%ADD20R,1.905000X2.000000*%
%ADD21O,1.905000X2.000000*%
%ADD22R,2.600000X2.600000*%
%ADD23C,2.600000*%
%ADD24C,1.600000*%
%ADD25R,1.800000X1.800000*%
%ADD26C,1.800000*%
%ADD27O,1.600000X1.600000*%
%ADD28FreePoly1,90.000000*%
%ADD29FreePoly0,90.000000*%
%ADD30RoundRect,0.100000X0.100000X-0.637500X0.100000X0.637500X-0.100000X0.637500X-0.100000X-0.637500X0*%
%ADD31R,1.600000X1.600000*%
%ADD32RoundRect,0.150000X-0.150000X0.825000X-0.150000X-0.825000X0.150000X-0.825000X0.150000X0.825000X0*%
%ADD33C,3.250000*%
%ADD34RoundRect,0.400000X0.400000X0.400000X-0.400000X0.400000X-0.400000X-0.400000X0.400000X-0.400000X0*%
%ADD35C,2.500000*%
%ADD36RoundRect,0.400000X-0.400000X-0.400000X0.400000X-0.400000X0.400000X0.400000X-0.400000X0.400000X0*%
%ADD37R,2.200000X2.200000*%
%ADD38O,2.200000X2.200000*%
%ADD39RoundRect,0.575000X0.575000X0.575000X-0.575000X0.575000X-0.575000X-0.575000X0.575000X-0.575000X0*%
%ADD40C,2.300000*%
G04 APERTURE END LIST*
D10*
%TO.C,JP9*%
X133380000Y-116840000D03*
D11*
X132080000Y-116840000D03*
%TD*%
D12*
%TO.C,JP8*%
X161290000Y-103505000D03*
D13*
X159990000Y-103505000D03*
%TD*%
D12*
%TO.C,JP7*%
X208280000Y-116840000D03*
D13*
X206980000Y-116840000D03*
%TD*%
D14*
%TO.C,JP32*%
X176530000Y-134635000D03*
D15*
X176530000Y-135935000D03*
%TD*%
D16*
%TO.C,H2*%
X140000000Y-147000000D03*
%TD*%
D17*
%TO.C,JP5*%
X154940000Y-146655000D03*
D18*
X154940000Y-147955000D03*
D19*
X154940000Y-149255000D03*
%TD*%
D20*
%TO.C,Q1*%
X160020000Y-114300000D03*
D21*
X162560000Y-114300000D03*
X165100000Y-114300000D03*
%TD*%
D22*
%TO.C,J11*%
X125730000Y-121920000D03*
D23*
X125730000Y-127000000D03*
%TD*%
D24*
%TO.C,C2*%
X170180000Y-114260000D03*
X170180000Y-111760000D03*
%TD*%
D17*
%TO.C,JP1*%
X151130000Y-146655000D03*
D18*
X151130000Y-147955000D03*
D19*
X151130000Y-149255000D03*
%TD*%
D25*
%TO.C,D2*%
X200025000Y-114295000D03*
D26*
X200025000Y-116835000D03*
%TD*%
D24*
%TO.C,R13*%
X172720000Y-123190000D03*
D27*
X162560000Y-123190000D03*
%TD*%
D25*
%TO.C,D21*%
X168910000Y-137160000D03*
D26*
X166370000Y-137160000D03*
%TD*%
D22*
%TO.C,J21*%
X125730000Y-132080000D03*
D23*
X125730000Y-137160000D03*
%TD*%
D24*
%TO.C,C5*%
X182880000Y-134620000D03*
X185380000Y-134620000D03*
%TD*%
D16*
%TO.C,H3*%
X200000000Y-107000000D03*
%TD*%
%TO.C,H1*%
X140000000Y-107000000D03*
%TD*%
D22*
%TO.C,J12*%
X214630000Y-127000000D03*
D23*
X214630000Y-121920000D03*
%TD*%
D24*
%TO.C,R1*%
X195580000Y-113665000D03*
D27*
X185420000Y-113665000D03*
%TD*%
D28*
%TO.C,JP23*%
X177800000Y-121330000D03*
D29*
X177800000Y-120030000D03*
%TD*%
D22*
%TO.C,J2*%
X125730000Y-106680000D03*
D23*
X125730000Y-111760000D03*
X125730000Y-116840000D03*
%TD*%
D17*
%TO.C,JP4*%
X158750000Y-146685000D03*
D18*
X158750000Y-147985000D03*
D19*
X158750000Y-149285000D03*
%TD*%
D24*
%TO.C,C3*%
X160020000Y-122515000D03*
X160020000Y-120015000D03*
%TD*%
D30*
%TO.C,U1*%
X153285000Y-132402500D03*
X153935000Y-132402500D03*
X154585000Y-132402500D03*
X155235000Y-132402500D03*
X155885000Y-132402500D03*
X156535000Y-132402500D03*
X157185000Y-132402500D03*
X157835000Y-132402500D03*
X158485000Y-132402500D03*
X159135000Y-132402500D03*
X159135000Y-126677500D03*
X158485000Y-126677500D03*
X157835000Y-126677500D03*
X157185000Y-126677500D03*
X156535000Y-126677500D03*
X155885000Y-126677500D03*
X155235000Y-126677500D03*
X154585000Y-126677500D03*
X153935000Y-126677500D03*
X153285000Y-126677500D03*
%TD*%
D22*
%TO.C,J22*%
X214630000Y-137160000D03*
D23*
X214630000Y-132080000D03*
%TD*%
D22*
%TO.C,J31*%
X125730000Y-142240000D03*
D23*
X125730000Y-147320000D03*
%TD*%
D24*
%TO.C,C4*%
X157480000Y-122515000D03*
X157480000Y-120015000D03*
%TD*%
D14*
%TO.C,JP33*%
X176530000Y-137825000D03*
D15*
X176530000Y-139125000D03*
%TD*%
D22*
%TO.C,J1*%
X214630000Y-116840000D03*
D23*
X214630000Y-111760000D03*
X214630000Y-106680000D03*
%TD*%
D31*
%TO.C,C1*%
X149860000Y-106680000D03*
D24*
X149860000Y-109180000D03*
%TD*%
D17*
%TO.C,JP2*%
X147320000Y-146685000D03*
D18*
X147320000Y-147985000D03*
D19*
X147320000Y-149285000D03*
%TD*%
D32*
%TO.C,U2*%
X185420000Y-127095000D03*
X184150000Y-127095000D03*
X182880000Y-127095000D03*
X181610000Y-127095000D03*
X180340000Y-127095000D03*
X179070000Y-127095000D03*
X177800000Y-127095000D03*
X176530000Y-127095000D03*
X176530000Y-132045000D03*
X177800000Y-132045000D03*
X179070000Y-132045000D03*
X180340000Y-132045000D03*
X181610000Y-132045000D03*
X182880000Y-132045000D03*
X184150000Y-132045000D03*
X185420000Y-132045000D03*
%TD*%
D16*
%TO.C,H4*%
X200000000Y-147000000D03*
%TD*%
D24*
%TO.C,R22*%
X151130000Y-137795000D03*
D27*
X151130000Y-140335000D03*
%TD*%
D24*
%TO.C,R3*%
X153035000Y-115570000D03*
D27*
X142875000Y-115570000D03*
%TD*%
D33*
%TO.C,J3*%
X138430000Y-123825000D03*
X138430000Y-135255000D03*
D34*
X144780000Y-125095000D03*
D24*
X147320000Y-126365000D03*
X144780000Y-127635000D03*
X147320000Y-128905000D03*
X144780000Y-130175000D03*
X147320000Y-131445000D03*
X144780000Y-132715000D03*
X147320000Y-133985000D03*
D35*
X135380000Y-137340000D03*
X135380000Y-121740000D03*
%TD*%
D14*
%TO.C,JP6*%
X154305000Y-118745000D03*
D15*
X154305000Y-120045000D03*
%TD*%
D24*
%TO.C,R2*%
X172720000Y-111252000D03*
D27*
X182880000Y-111252000D03*
%TD*%
D24*
%TO.C,R11*%
X151130000Y-118745000D03*
D27*
X151130000Y-121285000D03*
%TD*%
D35*
%TO.C,J4*%
X203710000Y-121740000D03*
X203710000Y-137340000D03*
D24*
X191770000Y-125095000D03*
X194310000Y-126365000D03*
X191770000Y-127635000D03*
X194310000Y-128905000D03*
X191770000Y-130175000D03*
X194310000Y-131445000D03*
X191770000Y-132715000D03*
D36*
X194310000Y-133985000D03*
D33*
X200660000Y-135255000D03*
X200660000Y-123825000D03*
%TD*%
D24*
%TO.C,R12*%
X151130000Y-123825000D03*
D27*
X151130000Y-126365000D03*
%TD*%
D14*
%TO.C,JP21*%
X153670000Y-135225000D03*
D15*
X153670000Y-136525000D03*
%TD*%
D25*
%TO.C,D11*%
X168910000Y-127000000D03*
D26*
X166370000Y-127000000D03*
%TD*%
D25*
%TO.C,D31*%
X168910000Y-147320000D03*
D26*
X166370000Y-147320000D03*
%TD*%
D24*
%TO.C,R21*%
X151130000Y-132715000D03*
D27*
X151130000Y-135255000D03*
%TD*%
D28*
%TO.C,JP22*%
X177800000Y-124490000D03*
D29*
X177800000Y-123190000D03*
%TD*%
D22*
%TO.C,J32*%
X214630000Y-147320000D03*
D23*
X214630000Y-142240000D03*
%TD*%
D37*
%TO.C,D1*%
X185420000Y-116840000D03*
D38*
X195580000Y-116840000D03*
%TD*%
D24*
%TO.C,R23*%
X172720000Y-133350000D03*
D27*
X162560000Y-133350000D03*
%TD*%
D24*
%TO.C,R33*%
X172720000Y-143510000D03*
D27*
X162560000Y-143510000D03*
%TD*%
D28*
%TO.C,JP12*%
X185420000Y-124490000D03*
D29*
X185420000Y-123190000D03*
%TD*%
D28*
%TO.C,JP11*%
X154305000Y-123855000D03*
D29*
X154305000Y-122555000D03*
%TD*%
D31*
%TO.C,D3*%
X180340000Y-114300000D03*
D27*
X172720000Y-114300000D03*
%TD*%
D28*
%TO.C,JP13*%
X185450000Y-121345000D03*
D29*
X185450000Y-120045000D03*
%TD*%
D39*
%TO.C,F1*%
X193040000Y-106680000D03*
X187240000Y-106680000D03*
D40*
X178340000Y-106680000D03*
X172540000Y-106680000D03*
%TD*%
D17*
%TO.C,JP3*%
X162560000Y-146655000D03*
D18*
X162560000Y-147955000D03*
D19*
X162560000Y-149255000D03*
%TD*%
M02*
