%TF.GenerationSoftware,KiCad,Pcbnew,(6.0.11)*%
%TF.CreationDate,2023-08-20T08:35:00+03:00*%
%TF.ProjectId,sincos_interpolator,73696e63-6f73-45f6-996e-746572706f6c,rev?*%
%TF.SameCoordinates,Original*%
%TF.FileFunction,Legend,Top*%
%TF.FilePolarity,Positive*%
%FSLAX46Y46*%
G04 Gerber Fmt 4.6, Leading zero omitted, Abs format (unit mm)*
G04 Created by KiCad (PCBNEW (6.0.11)) date 2023-08-20 08:35:00*
%MOMM*%
%LPD*%
G01*
G04 APERTURE LIST*
G04 Aperture macros list*
%AMRoundRect*
0 Rectangle with rounded corners*
0 $1 Rounding radius*
0 $2 $3 $4 $5 $6 $7 $8 $9 X,Y pos of 4 corners*
0 Add a 4 corners polygon primitive as box body*
4,1,4,$2,$3,$4,$5,$6,$7,$8,$9,$2,$3,0*
0 Add four circle primitives for the rounded corners*
1,1,$1+$1,$2,$3*
1,1,$1+$1,$4,$5*
1,1,$1+$1,$6,$7*
1,1,$1+$1,$8,$9*
0 Add four rect primitives between the rounded corners*
20,1,$1+$1,$2,$3,$4,$5,0*
20,1,$1+$1,$4,$5,$6,$7,0*
20,1,$1+$1,$6,$7,$8,$9,0*
20,1,$1+$1,$8,$9,$2,$3,0*%
%AMFreePoly0*
4,1,22,0.500000,-0.750000,0.000000,-0.750000,0.000000,-0.745033,-0.079941,-0.743568,-0.215256,-0.701293,-0.333266,-0.622738,-0.424486,-0.514219,-0.481581,-0.384460,-0.499164,-0.250000,-0.500000,-0.250000,-0.500000,0.250000,-0.499164,0.250000,-0.499963,0.256109,-0.478152,0.396186,-0.417904,0.524511,-0.324060,0.630769,-0.204165,0.706417,-0.067858,0.745374,0.000000,0.744959,0.000000,0.750000,
0.500000,0.750000,0.500000,-0.750000,0.500000,-0.750000,$1*%
%AMFreePoly1*
4,1,20,0.000000,0.744959,0.073905,0.744508,0.209726,0.703889,0.328688,0.626782,0.421226,0.519385,0.479903,0.390333,0.500000,0.250000,0.500000,-0.250000,0.499851,-0.262216,0.476331,-0.402017,0.414519,-0.529596,0.319384,-0.634700,0.198574,-0.708877,0.061801,-0.746166,0.000000,-0.745033,0.000000,-0.750000,-0.500000,-0.750000,-0.500000,0.750000,0.000000,0.750000,0.000000,0.744959,
0.000000,0.744959,$1*%
%AMFreePoly2*
4,1,22,0.550000,-0.750000,0.000000,-0.750000,0.000000,-0.745033,-0.079941,-0.743568,-0.215256,-0.701293,-0.333266,-0.622738,-0.424486,-0.514219,-0.481581,-0.384460,-0.499164,-0.250000,-0.500000,-0.250000,-0.500000,0.250000,-0.499164,0.250000,-0.499963,0.256109,-0.478152,0.396186,-0.417904,0.524511,-0.324060,0.630769,-0.204165,0.706417,-0.067858,0.745374,0.000000,0.744959,0.000000,0.750000,
0.550000,0.750000,0.550000,-0.750000,0.550000,-0.750000,$1*%
%AMFreePoly3*
4,1,20,0.000000,0.744959,0.073905,0.744508,0.209726,0.703889,0.328688,0.626782,0.421226,0.519385,0.479903,0.390333,0.500000,0.250000,0.500000,-0.250000,0.499851,-0.262216,0.476331,-0.402017,0.414519,-0.529596,0.319384,-0.634700,0.198574,-0.708877,0.061801,-0.746166,0.000000,-0.745033,0.000000,-0.750000,-0.550000,-0.750000,-0.550000,0.750000,0.000000,0.750000,0.000000,0.744959,
0.000000,0.744959,$1*%
G04 Aperture macros list end*
%ADD10C,0.300000*%
%ADD11C,0.150000*%
%ADD12C,0.120000*%
%ADD13C,0.100000*%
%ADD14FreePoly0,270.000000*%
%ADD15FreePoly1,270.000000*%
%ADD16C,3.200000*%
%ADD17FreePoly2,270.000000*%
%ADD18R,1.500000X1.000000*%
%ADD19FreePoly3,270.000000*%
%ADD20R,1.905000X2.000000*%
%ADD21O,1.905000X2.000000*%
%ADD22R,2.600000X2.600000*%
%ADD23C,2.600000*%
%ADD24C,1.600000*%
%ADD25R,1.800000X1.800000*%
%ADD26C,1.800000*%
%ADD27O,1.600000X1.600000*%
%ADD28FreePoly0,90.000000*%
%ADD29FreePoly1,90.000000*%
%ADD30RoundRect,0.100000X0.100000X-0.637500X0.100000X0.637500X-0.100000X0.637500X-0.100000X-0.637500X0*%
%ADD31R,1.600000X1.600000*%
%ADD32RoundRect,0.150000X-0.150000X0.825000X-0.150000X-0.825000X0.150000X-0.825000X0.150000X0.825000X0*%
%ADD33C,3.250000*%
%ADD34RoundRect,0.400000X0.400000X0.400000X-0.400000X0.400000X-0.400000X-0.400000X0.400000X-0.400000X0*%
%ADD35C,2.500000*%
%ADD36RoundRect,0.400000X-0.400000X-0.400000X0.400000X-0.400000X0.400000X0.400000X-0.400000X0.400000X0*%
%ADD37R,2.200000X2.200000*%
%ADD38O,2.200000X2.200000*%
%ADD39RoundRect,0.575000X0.575000X0.575000X-0.575000X0.575000X-0.575000X-0.575000X0.575000X-0.575000X0*%
%ADD40C,2.300000*%
G04 APERTURE END LIST*
D10*
X170616666Y-147855952D02*
X172283333Y-147855952D01*
X170616666Y-150355952D01*
X172283333Y-150355952D01*
X175105714Y-148089642D02*
X175320000Y-148161071D01*
X175677142Y-148161071D01*
X175820000Y-148089642D01*
X175891428Y-148018214D01*
X175962857Y-147875357D01*
X175962857Y-147732500D01*
X175891428Y-147589642D01*
X175820000Y-147518214D01*
X175677142Y-147446785D01*
X175391428Y-147375357D01*
X175248571Y-147303928D01*
X175177142Y-147232500D01*
X175105714Y-147089642D01*
X175105714Y-146946785D01*
X175177142Y-146803928D01*
X175248571Y-146732500D01*
X175391428Y-146661071D01*
X175748571Y-146661071D01*
X175962857Y-146732500D01*
X176605714Y-148161071D02*
X176605714Y-147161071D01*
X176605714Y-146661071D02*
X176534285Y-146732500D01*
X176605714Y-146803928D01*
X176677142Y-146732500D01*
X176605714Y-146661071D01*
X176605714Y-146803928D01*
X177320000Y-147161071D02*
X177320000Y-148161071D01*
X177320000Y-147303928D02*
X177391428Y-147232500D01*
X177534285Y-147161071D01*
X177748571Y-147161071D01*
X177891428Y-147232500D01*
X177962857Y-147375357D01*
X177962857Y-148161071D01*
X179534285Y-148018214D02*
X179462857Y-148089642D01*
X179248571Y-148161071D01*
X179105714Y-148161071D01*
X178891428Y-148089642D01*
X178748571Y-147946785D01*
X178677142Y-147803928D01*
X178605714Y-147518214D01*
X178605714Y-147303928D01*
X178677142Y-147018214D01*
X178748571Y-146875357D01*
X178891428Y-146732500D01*
X179105714Y-146661071D01*
X179248571Y-146661071D01*
X179462857Y-146732500D01*
X179534285Y-146803928D01*
X180391428Y-148161071D02*
X180248571Y-148089642D01*
X180177142Y-148018214D01*
X180105714Y-147875357D01*
X180105714Y-147446785D01*
X180177142Y-147303928D01*
X180248571Y-147232500D01*
X180391428Y-147161071D01*
X180605714Y-147161071D01*
X180748571Y-147232500D01*
X180820000Y-147303928D01*
X180891428Y-147446785D01*
X180891428Y-147875357D01*
X180820000Y-148018214D01*
X180748571Y-148089642D01*
X180605714Y-148161071D01*
X180391428Y-148161071D01*
X181462857Y-148089642D02*
X181605714Y-148161071D01*
X181891428Y-148161071D01*
X182034285Y-148089642D01*
X182105714Y-147946785D01*
X182105714Y-147875357D01*
X182034285Y-147732500D01*
X181891428Y-147661071D01*
X181677142Y-147661071D01*
X181534285Y-147589642D01*
X181462857Y-147446785D01*
X181462857Y-147375357D01*
X181534285Y-147232500D01*
X181677142Y-147161071D01*
X181891428Y-147161071D01*
X182034285Y-147232500D01*
X183891428Y-148161071D02*
X183891428Y-146661071D01*
X184605714Y-147161071D02*
X184605714Y-148161071D01*
X184605714Y-147303928D02*
X184677142Y-147232500D01*
X184820000Y-147161071D01*
X185034285Y-147161071D01*
X185177142Y-147232500D01*
X185248571Y-147375357D01*
X185248571Y-148161071D01*
X185748571Y-147161071D02*
X186320000Y-147161071D01*
X185962857Y-146661071D02*
X185962857Y-147946785D01*
X186034285Y-148089642D01*
X186177142Y-148161071D01*
X186320000Y-148161071D01*
X187391428Y-148089642D02*
X187248571Y-148161071D01*
X186962857Y-148161071D01*
X186820000Y-148089642D01*
X186748571Y-147946785D01*
X186748571Y-147375357D01*
X186820000Y-147232500D01*
X186962857Y-147161071D01*
X187248571Y-147161071D01*
X187391428Y-147232500D01*
X187462857Y-147375357D01*
X187462857Y-147518214D01*
X186748571Y-147661071D01*
X188105714Y-148161071D02*
X188105714Y-147161071D01*
X188105714Y-147446785D02*
X188177142Y-147303928D01*
X188248571Y-147232500D01*
X188391428Y-147161071D01*
X188534285Y-147161071D01*
X189034285Y-147161071D02*
X189034285Y-148661071D01*
X189034285Y-147232500D02*
X189177142Y-147161071D01*
X189462857Y-147161071D01*
X189605714Y-147232500D01*
X189677142Y-147303928D01*
X189748571Y-147446785D01*
X189748571Y-147875357D01*
X189677142Y-148018214D01*
X189605714Y-148089642D01*
X189462857Y-148161071D01*
X189177142Y-148161071D01*
X189034285Y-148089642D01*
X190605714Y-148161071D02*
X190462857Y-148089642D01*
X190391428Y-148018214D01*
X190320000Y-147875357D01*
X190320000Y-147446785D01*
X190391428Y-147303928D01*
X190462857Y-147232500D01*
X190605714Y-147161071D01*
X190820000Y-147161071D01*
X190962857Y-147232500D01*
X191034285Y-147303928D01*
X191105714Y-147446785D01*
X191105714Y-147875357D01*
X191034285Y-148018214D01*
X190962857Y-148089642D01*
X190820000Y-148161071D01*
X190605714Y-148161071D01*
X191962857Y-148161071D02*
X191820000Y-148089642D01*
X191748571Y-147946785D01*
X191748571Y-146661071D01*
X193177142Y-148161071D02*
X193177142Y-147375357D01*
X193105714Y-147232500D01*
X192962857Y-147161071D01*
X192677142Y-147161071D01*
X192534285Y-147232500D01*
X193177142Y-148089642D02*
X193034285Y-148161071D01*
X192677142Y-148161071D01*
X192534285Y-148089642D01*
X192462857Y-147946785D01*
X192462857Y-147803928D01*
X192534285Y-147661071D01*
X192677142Y-147589642D01*
X193034285Y-147589642D01*
X193177142Y-147518214D01*
X193677142Y-147161071D02*
X194248571Y-147161071D01*
X193891428Y-146661071D02*
X193891428Y-147946785D01*
X193962857Y-148089642D01*
X194105714Y-148161071D01*
X194248571Y-148161071D01*
X194962857Y-148161071D02*
X194820000Y-148089642D01*
X194748571Y-148018214D01*
X194677142Y-147875357D01*
X194677142Y-147446785D01*
X194748571Y-147303928D01*
X194820000Y-147232500D01*
X194962857Y-147161071D01*
X195177142Y-147161071D01*
X195320000Y-147232500D01*
X195391428Y-147303928D01*
X195462857Y-147446785D01*
X195462857Y-147875357D01*
X195391428Y-148018214D01*
X195320000Y-148089642D01*
X195177142Y-148161071D01*
X194962857Y-148161071D01*
X196105714Y-148161071D02*
X196105714Y-147161071D01*
X196105714Y-147446785D02*
X196177142Y-147303928D01*
X196248571Y-147232500D01*
X196391428Y-147161071D01*
X196534285Y-147161071D01*
X175677142Y-149790357D02*
X175177142Y-149790357D01*
X175177142Y-150576071D02*
X175177142Y-149076071D01*
X175891428Y-149076071D01*
X176462857Y-150576071D02*
X176462857Y-149576071D01*
X176462857Y-149076071D02*
X176391428Y-149147500D01*
X176462857Y-149218928D01*
X176534285Y-149147500D01*
X176462857Y-149076071D01*
X176462857Y-149218928D01*
X177177142Y-149576071D02*
X177177142Y-150576071D01*
X177177142Y-149718928D02*
X177248571Y-149647500D01*
X177391428Y-149576071D01*
X177605714Y-149576071D01*
X177748571Y-149647500D01*
X177820000Y-149790357D01*
X177820000Y-150576071D01*
X178534285Y-149576071D02*
X178534285Y-150576071D01*
X178534285Y-149718928D02*
X178605714Y-149647500D01*
X178748571Y-149576071D01*
X178962857Y-149576071D01*
X179105714Y-149647500D01*
X179177142Y-149790357D01*
X179177142Y-150576071D01*
X180534285Y-149576071D02*
X180534285Y-150790357D01*
X180462857Y-150933214D01*
X180391428Y-151004642D01*
X180248571Y-151076071D01*
X180034285Y-151076071D01*
X179891428Y-151004642D01*
X180534285Y-150504642D02*
X180391428Y-150576071D01*
X180105714Y-150576071D01*
X179962857Y-150504642D01*
X179891428Y-150433214D01*
X179820000Y-150290357D01*
X179820000Y-149861785D01*
X179891428Y-149718928D01*
X179962857Y-149647500D01*
X180105714Y-149576071D01*
X180391428Y-149576071D01*
X180534285Y-149647500D01*
X181248571Y-150576071D02*
X181248571Y-149576071D01*
X181248571Y-149076071D02*
X181177142Y-149147500D01*
X181248571Y-149218928D01*
X181320000Y-149147500D01*
X181248571Y-149076071D01*
X181248571Y-149218928D01*
X181962857Y-149576071D02*
X181962857Y-150576071D01*
X181962857Y-149718928D02*
X182034285Y-149647500D01*
X182177142Y-149576071D01*
X182391428Y-149576071D01*
X182534285Y-149647500D01*
X182605714Y-149790357D01*
X182605714Y-150576071D01*
X183891428Y-150504642D02*
X183748571Y-150576071D01*
X183462857Y-150576071D01*
X183320000Y-150504642D01*
X183248571Y-150361785D01*
X183248571Y-149790357D01*
X183320000Y-149647500D01*
X183462857Y-149576071D01*
X183748571Y-149576071D01*
X183891428Y-149647500D01*
X183962857Y-149790357D01*
X183962857Y-149933214D01*
X183248571Y-150076071D01*
X185177142Y-150504642D02*
X185034285Y-150576071D01*
X184748571Y-150576071D01*
X184605714Y-150504642D01*
X184534285Y-150361785D01*
X184534285Y-149790357D01*
X184605714Y-149647500D01*
X184748571Y-149576071D01*
X185034285Y-149576071D01*
X185177142Y-149647500D01*
X185248571Y-149790357D01*
X185248571Y-149933214D01*
X184534285Y-150076071D01*
X185891428Y-150576071D02*
X185891428Y-149576071D01*
X185891428Y-149861785D02*
X185962857Y-149718928D01*
X186034285Y-149647500D01*
X186177142Y-149576071D01*
X186320000Y-149576071D01*
X186820000Y-150576071D02*
X186820000Y-149576071D01*
X186820000Y-149076071D02*
X186748571Y-149147500D01*
X186820000Y-149218928D01*
X186891428Y-149147500D01*
X186820000Y-149076071D01*
X186820000Y-149218928D01*
X187534285Y-149576071D02*
X187534285Y-150576071D01*
X187534285Y-149718928D02*
X187605714Y-149647500D01*
X187748571Y-149576071D01*
X187962857Y-149576071D01*
X188105714Y-149647500D01*
X188177142Y-149790357D01*
X188177142Y-150576071D01*
X189534285Y-149576071D02*
X189534285Y-150790357D01*
X189462857Y-150933214D01*
X189391428Y-151004642D01*
X189248571Y-151076071D01*
X189034285Y-151076071D01*
X188891428Y-151004642D01*
X189534285Y-150504642D02*
X189391428Y-150576071D01*
X189105714Y-150576071D01*
X188962857Y-150504642D01*
X188891428Y-150433214D01*
X188820000Y-150290357D01*
X188820000Y-149861785D01*
X188891428Y-149718928D01*
X188962857Y-149647500D01*
X189105714Y-149576071D01*
X189391428Y-149576071D01*
X189534285Y-149647500D01*
X190248571Y-150433214D02*
X190320000Y-150504642D01*
X190248571Y-150576071D01*
X190177142Y-150504642D01*
X190248571Y-150433214D01*
X190248571Y-150576071D01*
X191605714Y-150504642D02*
X191462857Y-150576071D01*
X191177142Y-150576071D01*
X191034285Y-150504642D01*
X190962857Y-150433214D01*
X190891428Y-150290357D01*
X190891428Y-149861785D01*
X190962857Y-149718928D01*
X191034285Y-149647500D01*
X191177142Y-149576071D01*
X191462857Y-149576071D01*
X191605714Y-149647500D01*
X192462857Y-150576071D02*
X192320000Y-150504642D01*
X192248571Y-150433214D01*
X192177142Y-150290357D01*
X192177142Y-149861785D01*
X192248571Y-149718928D01*
X192320000Y-149647500D01*
X192462857Y-149576071D01*
X192677142Y-149576071D01*
X192820000Y-149647500D01*
X192891428Y-149718928D01*
X192962857Y-149861785D01*
X192962857Y-150290357D01*
X192891428Y-150433214D01*
X192820000Y-150504642D01*
X192677142Y-150576071D01*
X192462857Y-150576071D01*
X193605714Y-150576071D02*
X193605714Y-149576071D01*
X193605714Y-149718928D02*
X193677142Y-149647500D01*
X193820000Y-149576071D01*
X194034285Y-149576071D01*
X194177142Y-149647500D01*
X194248571Y-149790357D01*
X194248571Y-150576071D01*
X194248571Y-149790357D02*
X194320000Y-149647500D01*
X194462857Y-149576071D01*
X194677142Y-149576071D01*
X194820000Y-149647500D01*
X194891428Y-149790357D01*
X194891428Y-150576071D01*
D11*
X205875000Y-112521904D02*
X205827380Y-112617142D01*
X205827380Y-112760000D01*
X205875000Y-112902857D01*
X205970238Y-112998095D01*
X206065476Y-113045714D01*
X206255952Y-113093333D01*
X206398809Y-113093333D01*
X206589285Y-113045714D01*
X206684523Y-112998095D01*
X206779761Y-112902857D01*
X206827380Y-112760000D01*
X206827380Y-112664761D01*
X206779761Y-112521904D01*
X206732142Y-112474285D01*
X206398809Y-112474285D01*
X206398809Y-112664761D01*
X206827380Y-112045714D02*
X205827380Y-112045714D01*
X206827380Y-111474285D01*
X205827380Y-111474285D01*
X206827380Y-110998095D02*
X205827380Y-110998095D01*
X205827380Y-110760000D01*
X205875000Y-110617142D01*
X205970238Y-110521904D01*
X206065476Y-110474285D01*
X206255952Y-110426666D01*
X206398809Y-110426666D01*
X206589285Y-110474285D01*
X206684523Y-110521904D01*
X206779761Y-110617142D01*
X206827380Y-110760000D01*
X206827380Y-110998095D01*
X134120000Y-116331904D02*
X134072380Y-116427142D01*
X134072380Y-116570000D01*
X134120000Y-116712857D01*
X134215238Y-116808095D01*
X134310476Y-116855714D01*
X134500952Y-116903333D01*
X134643809Y-116903333D01*
X134834285Y-116855714D01*
X134929523Y-116808095D01*
X135024761Y-116712857D01*
X135072380Y-116570000D01*
X135072380Y-116474761D01*
X135024761Y-116331904D01*
X134977142Y-116284285D01*
X134643809Y-116284285D01*
X134643809Y-116474761D01*
X135072380Y-115855714D02*
X134072380Y-115855714D01*
X135072380Y-115284285D01*
X134072380Y-115284285D01*
X135072380Y-114808095D02*
X134072380Y-114808095D01*
X134072380Y-114570000D01*
X134120000Y-114427142D01*
X134215238Y-114331904D01*
X134310476Y-114284285D01*
X134500952Y-114236666D01*
X134643809Y-114236666D01*
X134834285Y-114284285D01*
X134929523Y-114331904D01*
X135024761Y-114427142D01*
X135072380Y-114570000D01*
X135072380Y-114808095D01*
X134691428Y-107966238D02*
X134691428Y-107204333D01*
X135072380Y-107585285D02*
X134310476Y-107585285D01*
X134072380Y-106251952D02*
X134072380Y-106728143D01*
X134548571Y-106775762D01*
X134500952Y-106728143D01*
X134453333Y-106632904D01*
X134453333Y-106394809D01*
X134500952Y-106299571D01*
X134548571Y-106251952D01*
X134643809Y-106204333D01*
X134881904Y-106204333D01*
X134977142Y-106251952D01*
X135024761Y-106299571D01*
X135072380Y-106394809D01*
X135072380Y-106632904D01*
X135024761Y-106728143D01*
X134977142Y-106775762D01*
X134072380Y-105918619D02*
X135072380Y-105585285D01*
X134072380Y-105251952D01*
X161075714Y-145232380D02*
X160599523Y-145232380D01*
X160599523Y-144232380D01*
X161599523Y-144232380D02*
X161790000Y-144232380D01*
X161885238Y-144280000D01*
X161980476Y-144375238D01*
X162028095Y-144565714D01*
X162028095Y-144899047D01*
X161980476Y-145089523D01*
X161885238Y-145184761D01*
X161790000Y-145232380D01*
X161599523Y-145232380D01*
X161504285Y-145184761D01*
X161409047Y-145089523D01*
X161361428Y-144899047D01*
X161361428Y-144565714D01*
X161409047Y-144375238D01*
X161504285Y-144280000D01*
X161599523Y-144232380D01*
D10*
X155420714Y-104793928D02*
X155492142Y-104722500D01*
X155635000Y-104651071D01*
X155992142Y-104651071D01*
X156135000Y-104722500D01*
X156206428Y-104793928D01*
X156277857Y-104936785D01*
X156277857Y-105079642D01*
X156206428Y-105293928D01*
X155349285Y-106151071D01*
X156277857Y-106151071D01*
X157206428Y-104651071D02*
X157349285Y-104651071D01*
X157492142Y-104722500D01*
X157563571Y-104793928D01*
X157635000Y-104936785D01*
X157706428Y-105222500D01*
X157706428Y-105579642D01*
X157635000Y-105865357D01*
X157563571Y-106008214D01*
X157492142Y-106079642D01*
X157349285Y-106151071D01*
X157206428Y-106151071D01*
X157063571Y-106079642D01*
X156992142Y-106008214D01*
X156920714Y-105865357D01*
X156849285Y-105579642D01*
X156849285Y-105222500D01*
X156920714Y-104936785D01*
X156992142Y-104793928D01*
X157063571Y-104722500D01*
X157206428Y-104651071D01*
X158277857Y-104793928D02*
X158349285Y-104722500D01*
X158492142Y-104651071D01*
X158849285Y-104651071D01*
X158992142Y-104722500D01*
X159063571Y-104793928D01*
X159135000Y-104936785D01*
X159135000Y-105079642D01*
X159063571Y-105293928D01*
X158206428Y-106151071D01*
X159135000Y-106151071D01*
X159635000Y-104651071D02*
X160563571Y-104651071D01*
X160063571Y-105222500D01*
X160277857Y-105222500D01*
X160420714Y-105293928D01*
X160492142Y-105365357D01*
X160563571Y-105508214D01*
X160563571Y-105865357D01*
X160492142Y-106008214D01*
X160420714Y-106079642D01*
X160277857Y-106151071D01*
X159849285Y-106151071D01*
X159706428Y-106079642D01*
X159635000Y-106008214D01*
X161206428Y-105579642D02*
X162349285Y-105579642D01*
X163349285Y-104651071D02*
X163492142Y-104651071D01*
X163635000Y-104722500D01*
X163706428Y-104793928D01*
X163777857Y-104936785D01*
X163849285Y-105222500D01*
X163849285Y-105579642D01*
X163777857Y-105865357D01*
X163706428Y-106008214D01*
X163635000Y-106079642D01*
X163492142Y-106151071D01*
X163349285Y-106151071D01*
X163206428Y-106079642D01*
X163135000Y-106008214D01*
X163063571Y-105865357D01*
X162992142Y-105579642D01*
X162992142Y-105222500D01*
X163063571Y-104936785D01*
X163135000Y-104793928D01*
X163206428Y-104722500D01*
X163349285Y-104651071D01*
X164706428Y-105293928D02*
X164563571Y-105222500D01*
X164492142Y-105151071D01*
X164420714Y-105008214D01*
X164420714Y-104936785D01*
X164492142Y-104793928D01*
X164563571Y-104722500D01*
X164706428Y-104651071D01*
X164992142Y-104651071D01*
X165135000Y-104722500D01*
X165206428Y-104793928D01*
X165277857Y-104936785D01*
X165277857Y-105008214D01*
X165206428Y-105151071D01*
X165135000Y-105222500D01*
X164992142Y-105293928D01*
X164706428Y-105293928D01*
X164563571Y-105365357D01*
X164492142Y-105436785D01*
X164420714Y-105579642D01*
X164420714Y-105865357D01*
X164492142Y-106008214D01*
X164563571Y-106079642D01*
X164706428Y-106151071D01*
X164992142Y-106151071D01*
X165135000Y-106079642D01*
X165206428Y-106008214D01*
X165277857Y-105865357D01*
X165277857Y-105579642D01*
X165206428Y-105436785D01*
X165135000Y-105365357D01*
X164992142Y-105293928D01*
X165920714Y-105579642D02*
X167063571Y-105579642D01*
X167706428Y-104793928D02*
X167777857Y-104722500D01*
X167920714Y-104651071D01*
X168277857Y-104651071D01*
X168420714Y-104722500D01*
X168492142Y-104793928D01*
X168563571Y-104936785D01*
X168563571Y-105079642D01*
X168492142Y-105293928D01*
X167635000Y-106151071D01*
X168563571Y-106151071D01*
X169492142Y-104651071D02*
X169635000Y-104651071D01*
X169777857Y-104722500D01*
X169849285Y-104793928D01*
X169920714Y-104936785D01*
X169992142Y-105222500D01*
X169992142Y-105579642D01*
X169920714Y-105865357D01*
X169849285Y-106008214D01*
X169777857Y-106079642D01*
X169635000Y-106151071D01*
X169492142Y-106151071D01*
X169349285Y-106079642D01*
X169277857Y-106008214D01*
X169206428Y-105865357D01*
X169135000Y-105579642D01*
X169135000Y-105222500D01*
X169206428Y-104936785D01*
X169277857Y-104793928D01*
X169349285Y-104722500D01*
X169492142Y-104651071D01*
X156349285Y-108566071D02*
X155849285Y-107851785D01*
X155492142Y-108566071D02*
X155492142Y-107066071D01*
X156063571Y-107066071D01*
X156206428Y-107137500D01*
X156277857Y-107208928D01*
X156349285Y-107351785D01*
X156349285Y-107566071D01*
X156277857Y-107708928D01*
X156206428Y-107780357D01*
X156063571Y-107851785D01*
X155492142Y-107851785D01*
X157563571Y-108494642D02*
X157420714Y-108566071D01*
X157135000Y-108566071D01*
X156992142Y-108494642D01*
X156920714Y-108351785D01*
X156920714Y-107780357D01*
X156992142Y-107637500D01*
X157135000Y-107566071D01*
X157420714Y-107566071D01*
X157563571Y-107637500D01*
X157635000Y-107780357D01*
X157635000Y-107923214D01*
X156920714Y-108066071D01*
X158135000Y-107566071D02*
X158492142Y-108566071D01*
X158849285Y-107566071D01*
X159420714Y-108423214D02*
X159492142Y-108494642D01*
X159420714Y-108566071D01*
X159349285Y-108494642D01*
X159420714Y-108423214D01*
X159420714Y-108566071D01*
X162063571Y-108566071D02*
X161206428Y-108566071D01*
X161635000Y-108566071D02*
X161635000Y-107066071D01*
X161492142Y-107280357D01*
X161349285Y-107423214D01*
X161206428Y-107494642D01*
X162706428Y-108423214D02*
X162777857Y-108494642D01*
X162706428Y-108566071D01*
X162635000Y-108494642D01*
X162706428Y-108423214D01*
X162706428Y-108566071D01*
X163349285Y-107208928D02*
X163420714Y-107137500D01*
X163563571Y-107066071D01*
X163920714Y-107066071D01*
X164063571Y-107137500D01*
X164135000Y-107208928D01*
X164206428Y-107351785D01*
X164206428Y-107494642D01*
X164135000Y-107708928D01*
X163277857Y-108566071D01*
X164206428Y-108566071D01*
X171628571Y-138886428D02*
X171985714Y-139005476D01*
X172104761Y-139124523D01*
X172223809Y-139362619D01*
X172223809Y-139719761D01*
X172104761Y-139957857D01*
X171985714Y-140076904D01*
X171747619Y-140195952D01*
X170795238Y-140195952D01*
X170795238Y-137695952D01*
X171628571Y-137695952D01*
X171866666Y-137815000D01*
X171985714Y-137934047D01*
X172104761Y-138172142D01*
X172104761Y-138410238D01*
X171985714Y-138648333D01*
X171866666Y-138767380D01*
X171628571Y-138886428D01*
X170795238Y-138886428D01*
D11*
X147105714Y-145232380D02*
X146629523Y-145232380D01*
X146629523Y-144232380D01*
X147629523Y-144232380D02*
X147820000Y-144232380D01*
X147915238Y-144280000D01*
X148010476Y-144375238D01*
X148058095Y-144565714D01*
X148058095Y-144899047D01*
X148010476Y-145089523D01*
X147915238Y-145184761D01*
X147820000Y-145232380D01*
X147629523Y-145232380D01*
X147534285Y-145184761D01*
X147439047Y-145089523D01*
X147391428Y-144899047D01*
X147391428Y-144565714D01*
X147439047Y-144375238D01*
X147534285Y-144280000D01*
X147629523Y-144232380D01*
X205875000Y-117601904D02*
X205827380Y-117697142D01*
X205827380Y-117840000D01*
X205875000Y-117982857D01*
X205970238Y-118078095D01*
X206065476Y-118125714D01*
X206255952Y-118173333D01*
X206398809Y-118173333D01*
X206589285Y-118125714D01*
X206684523Y-118078095D01*
X206779761Y-117982857D01*
X206827380Y-117840000D01*
X206827380Y-117744761D01*
X206779761Y-117601904D01*
X206732142Y-117554285D01*
X206398809Y-117554285D01*
X206398809Y-117744761D01*
X206827380Y-117125714D02*
X205827380Y-117125714D01*
X206827380Y-116554285D01*
X205827380Y-116554285D01*
X206827380Y-116078095D02*
X205827380Y-116078095D01*
X205827380Y-115840000D01*
X205875000Y-115697142D01*
X205970238Y-115601904D01*
X206065476Y-115554285D01*
X206255952Y-115506666D01*
X206398809Y-115506666D01*
X206589285Y-115554285D01*
X206684523Y-115601904D01*
X206779761Y-115697142D01*
X206827380Y-115840000D01*
X206827380Y-116078095D01*
X158226190Y-151582380D02*
X158226190Y-150582380D01*
X158226190Y-151058571D02*
X158797619Y-151058571D01*
X158797619Y-151582380D02*
X158797619Y-150582380D01*
X159273809Y-151582380D02*
X159273809Y-150582380D01*
X158535714Y-145232380D02*
X158059523Y-145232380D01*
X158059523Y-144232380D01*
X159059523Y-144232380D02*
X159250000Y-144232380D01*
X159345238Y-144280000D01*
X159440476Y-144375238D01*
X159488095Y-144565714D01*
X159488095Y-144899047D01*
X159440476Y-145089523D01*
X159345238Y-145184761D01*
X159250000Y-145232380D01*
X159059523Y-145232380D01*
X158964285Y-145184761D01*
X158869047Y-145089523D01*
X158821428Y-144899047D01*
X158821428Y-144565714D01*
X158869047Y-144375238D01*
X158964285Y-144280000D01*
X159059523Y-144232380D01*
X150915714Y-145232380D02*
X150439523Y-145232380D01*
X150439523Y-144232380D01*
X151439523Y-144232380D02*
X151630000Y-144232380D01*
X151725238Y-144280000D01*
X151820476Y-144375238D01*
X151868095Y-144565714D01*
X151868095Y-144899047D01*
X151820476Y-145089523D01*
X151725238Y-145184761D01*
X151630000Y-145232380D01*
X151439523Y-145232380D01*
X151344285Y-145184761D01*
X151249047Y-145089523D01*
X151201428Y-144899047D01*
X151201428Y-144565714D01*
X151249047Y-144375238D01*
X151344285Y-144280000D01*
X151439523Y-144232380D01*
X162036190Y-151582380D02*
X162036190Y-150582380D01*
X162036190Y-151058571D02*
X162607619Y-151058571D01*
X162607619Y-151582380D02*
X162607619Y-150582380D01*
X163083809Y-151582380D02*
X163083809Y-150582380D01*
D10*
X197834666Y-112890952D02*
X197834666Y-110390952D01*
X198787047Y-110390952D01*
X199025142Y-110510000D01*
X199144190Y-110629047D01*
X199263238Y-110867142D01*
X199263238Y-111224285D01*
X199144190Y-111462380D01*
X199025142Y-111581428D01*
X198787047Y-111700476D01*
X197834666Y-111700476D01*
X200096571Y-110390952D02*
X200691809Y-112890952D01*
X201168000Y-111105238D01*
X201644190Y-112890952D01*
X202239428Y-110390952D01*
X204620380Y-112890952D02*
X203787047Y-111700476D01*
X203191809Y-112890952D02*
X203191809Y-110390952D01*
X204144190Y-110390952D01*
X204382285Y-110510000D01*
X204501333Y-110629047D01*
X204620380Y-110867142D01*
X204620380Y-111224285D01*
X204501333Y-111462380D01*
X204382285Y-111581428D01*
X204144190Y-111700476D01*
X203191809Y-111700476D01*
D11*
X146796190Y-151582380D02*
X146796190Y-150582380D01*
X146796190Y-151058571D02*
X147367619Y-151058571D01*
X147367619Y-151582380D02*
X147367619Y-150582380D01*
X147843809Y-151582380D02*
X147843809Y-150582380D01*
X155132738Y-136442380D02*
X155466071Y-137442380D01*
X155799404Y-136442380D01*
X156704166Y-137442380D02*
X156370833Y-136966190D01*
X156132738Y-137442380D02*
X156132738Y-136442380D01*
X156513690Y-136442380D01*
X156608928Y-136490000D01*
X156656547Y-136537619D01*
X156704166Y-136632857D01*
X156704166Y-136775714D01*
X156656547Y-136870952D01*
X156608928Y-136918571D01*
X156513690Y-136966190D01*
X156132738Y-136966190D01*
X157132738Y-136918571D02*
X157466071Y-136918571D01*
X157608928Y-137442380D02*
X157132738Y-137442380D01*
X157132738Y-136442380D01*
X157608928Y-136442380D01*
X158370833Y-136918571D02*
X158037500Y-136918571D01*
X158037500Y-137442380D02*
X158037500Y-136442380D01*
X158513690Y-136442380D01*
X155847023Y-138957142D02*
X155799404Y-139004761D01*
X155656547Y-139052380D01*
X155561309Y-139052380D01*
X155418452Y-139004761D01*
X155323214Y-138909523D01*
X155275595Y-138814285D01*
X155227976Y-138623809D01*
X155227976Y-138480952D01*
X155275595Y-138290476D01*
X155323214Y-138195238D01*
X155418452Y-138100000D01*
X155561309Y-138052380D01*
X155656547Y-138052380D01*
X155799404Y-138100000D01*
X155847023Y-138147619D01*
X156466071Y-138052380D02*
X156656547Y-138052380D01*
X156751785Y-138100000D01*
X156847023Y-138195238D01*
X156894642Y-138385714D01*
X156894642Y-138719047D01*
X156847023Y-138909523D01*
X156751785Y-139004761D01*
X156656547Y-139052380D01*
X156466071Y-139052380D01*
X156370833Y-139004761D01*
X156275595Y-138909523D01*
X156227976Y-138719047D01*
X156227976Y-138385714D01*
X156275595Y-138195238D01*
X156370833Y-138100000D01*
X156466071Y-138052380D01*
X157275595Y-139004761D02*
X157418452Y-139052380D01*
X157656547Y-139052380D01*
X157751785Y-139004761D01*
X157799404Y-138957142D01*
X157847023Y-138861904D01*
X157847023Y-138766666D01*
X157799404Y-138671428D01*
X157751785Y-138623809D01*
X157656547Y-138576190D01*
X157466071Y-138528571D01*
X157370833Y-138480952D01*
X157323214Y-138433333D01*
X157275595Y-138338095D01*
X157275595Y-138242857D01*
X157323214Y-138147619D01*
X157370833Y-138100000D01*
X157466071Y-138052380D01*
X157704166Y-138052380D01*
X157847023Y-138100000D01*
X160212738Y-124377380D02*
X160546071Y-125377380D01*
X160879404Y-124377380D01*
X161784166Y-125377380D02*
X161450833Y-124901190D01*
X161212738Y-125377380D02*
X161212738Y-124377380D01*
X161593690Y-124377380D01*
X161688928Y-124425000D01*
X161736547Y-124472619D01*
X161784166Y-124567857D01*
X161784166Y-124710714D01*
X161736547Y-124805952D01*
X161688928Y-124853571D01*
X161593690Y-124901190D01*
X161212738Y-124901190D01*
X162212738Y-124853571D02*
X162546071Y-124853571D01*
X162688928Y-125377380D02*
X162212738Y-125377380D01*
X162212738Y-124377380D01*
X162688928Y-124377380D01*
X163450833Y-124853571D02*
X163117500Y-124853571D01*
X163117500Y-125377380D02*
X163117500Y-124377380D01*
X163593690Y-124377380D01*
X160307976Y-126939761D02*
X160450833Y-126987380D01*
X160688928Y-126987380D01*
X160784166Y-126939761D01*
X160831785Y-126892142D01*
X160879404Y-126796904D01*
X160879404Y-126701666D01*
X160831785Y-126606428D01*
X160784166Y-126558809D01*
X160688928Y-126511190D01*
X160498452Y-126463571D01*
X160403214Y-126415952D01*
X160355595Y-126368333D01*
X160307976Y-126273095D01*
X160307976Y-126177857D01*
X160355595Y-126082619D01*
X160403214Y-126035000D01*
X160498452Y-125987380D01*
X160736547Y-125987380D01*
X160879404Y-126035000D01*
X161307976Y-126987380D02*
X161307976Y-125987380D01*
X161784166Y-126987380D02*
X161784166Y-125987380D01*
X162355595Y-126987380D01*
X162355595Y-125987380D01*
X134120000Y-112521904D02*
X134072380Y-112617142D01*
X134072380Y-112760000D01*
X134120000Y-112902857D01*
X134215238Y-112998095D01*
X134310476Y-113045714D01*
X134500952Y-113093333D01*
X134643809Y-113093333D01*
X134834285Y-113045714D01*
X134929523Y-112998095D01*
X135024761Y-112902857D01*
X135072380Y-112760000D01*
X135072380Y-112664761D01*
X135024761Y-112521904D01*
X134977142Y-112474285D01*
X134643809Y-112474285D01*
X134643809Y-112664761D01*
X135072380Y-112045714D02*
X134072380Y-112045714D01*
X135072380Y-111474285D01*
X134072380Y-111474285D01*
X135072380Y-110998095D02*
X134072380Y-110998095D01*
X134072380Y-110760000D01*
X134120000Y-110617142D01*
X134215238Y-110521904D01*
X134310476Y-110474285D01*
X134500952Y-110426666D01*
X134643809Y-110426666D01*
X134834285Y-110474285D01*
X134929523Y-110521904D01*
X135024761Y-110617142D01*
X135072380Y-110760000D01*
X135072380Y-110998095D01*
X206446428Y-108465714D02*
X206446428Y-107703809D01*
X206827380Y-108084761D02*
X206065476Y-108084761D01*
X205827380Y-106751428D02*
X205827380Y-107227619D01*
X206303571Y-107275238D01*
X206255952Y-107227619D01*
X206208333Y-107132380D01*
X206208333Y-106894285D01*
X206255952Y-106799047D01*
X206303571Y-106751428D01*
X206398809Y-106703809D01*
X206636904Y-106703809D01*
X206732142Y-106751428D01*
X206779761Y-106799047D01*
X206827380Y-106894285D01*
X206827380Y-107132380D01*
X206779761Y-107227619D01*
X206732142Y-107275238D01*
X205827380Y-106418095D02*
X206827380Y-106084761D01*
X205827380Y-105751428D01*
X206827380Y-105418095D02*
X205827380Y-105418095D01*
X205827380Y-105037142D01*
X205875000Y-104941904D01*
X205922619Y-104894285D01*
X206017857Y-104846666D01*
X206160714Y-104846666D01*
X206255952Y-104894285D01*
X206303571Y-104941904D01*
X206351190Y-105037142D01*
X206351190Y-105418095D01*
X150606190Y-151582380D02*
X150606190Y-150582380D01*
X150606190Y-151058571D02*
X151177619Y-151058571D01*
X151177619Y-151582380D02*
X151177619Y-150582380D01*
X151653809Y-151582380D02*
X151653809Y-150582380D01*
X154416190Y-151582380D02*
X154416190Y-150582380D01*
X154416190Y-151058571D02*
X154987619Y-151058571D01*
X154987619Y-151582380D02*
X154987619Y-150582380D01*
X155463809Y-151582380D02*
X155463809Y-150582380D01*
D10*
X170854761Y-129321666D02*
X172045238Y-129321666D01*
X170616666Y-130035952D02*
X171450000Y-127535952D01*
X172283333Y-130035952D01*
D11*
X154725714Y-145232380D02*
X154249523Y-145232380D01*
X154249523Y-144232380D01*
X155249523Y-144232380D02*
X155440000Y-144232380D01*
X155535238Y-144280000D01*
X155630476Y-144375238D01*
X155678095Y-144565714D01*
X155678095Y-144899047D01*
X155630476Y-145089523D01*
X155535238Y-145184761D01*
X155440000Y-145232380D01*
X155249523Y-145232380D01*
X155154285Y-145184761D01*
X155059047Y-145089523D01*
X155011428Y-144899047D01*
X155011428Y-144565714D01*
X155059047Y-144375238D01*
X155154285Y-144280000D01*
X155249523Y-144232380D01*
%TO.C,JP32*%
X178776380Y-136945523D02*
X179490666Y-136945523D01*
X179633523Y-136993142D01*
X179728761Y-137088380D01*
X179776380Y-137231238D01*
X179776380Y-137326476D01*
X179776380Y-136469333D02*
X178776380Y-136469333D01*
X178776380Y-136088380D01*
X178824000Y-135993142D01*
X178871619Y-135945523D01*
X178966857Y-135897904D01*
X179109714Y-135897904D01*
X179204952Y-135945523D01*
X179252571Y-135993142D01*
X179300190Y-136088380D01*
X179300190Y-136469333D01*
X178776380Y-135564571D02*
X178776380Y-134945523D01*
X179157333Y-135278857D01*
X179157333Y-135136000D01*
X179204952Y-135040761D01*
X179252571Y-134993142D01*
X179347809Y-134945523D01*
X179585904Y-134945523D01*
X179681142Y-134993142D01*
X179728761Y-135040761D01*
X179776380Y-135136000D01*
X179776380Y-135421714D01*
X179728761Y-135516952D01*
X179681142Y-135564571D01*
X178871619Y-134564571D02*
X178824000Y-134516952D01*
X178776380Y-134421714D01*
X178776380Y-134183619D01*
X178824000Y-134088380D01*
X178871619Y-134040761D01*
X178966857Y-133993142D01*
X179062095Y-133993142D01*
X179204952Y-134040761D01*
X179776380Y-134612190D01*
X179776380Y-133993142D01*
%TO.C,JP5*%
X152487380Y-150633308D02*
X153201666Y-150633308D01*
X153344523Y-150680927D01*
X153439761Y-150776165D01*
X153487380Y-150919022D01*
X153487380Y-151014260D01*
X153487380Y-150157117D02*
X152487380Y-150157117D01*
X152487380Y-149776165D01*
X152535000Y-149680927D01*
X152582619Y-149633308D01*
X152677857Y-149585689D01*
X152820714Y-149585689D01*
X152915952Y-149633308D01*
X152963571Y-149680927D01*
X153011190Y-149776165D01*
X153011190Y-150157117D01*
X152487380Y-148680927D02*
X152487380Y-149157117D01*
X152963571Y-149204736D01*
X152915952Y-149157117D01*
X152868333Y-149061879D01*
X152868333Y-148823784D01*
X152915952Y-148728546D01*
X152963571Y-148680927D01*
X153058809Y-148633308D01*
X153296904Y-148633308D01*
X153392142Y-148680927D01*
X153439761Y-148728546D01*
X153487380Y-148823784D01*
X153487380Y-149061879D01*
X153439761Y-149157117D01*
X153392142Y-149204736D01*
X153487380Y-147280238D02*
X153011190Y-147613571D01*
X153487380Y-147851666D02*
X152487380Y-147851666D01*
X152487380Y-147470714D01*
X152535000Y-147375476D01*
X152582619Y-147327857D01*
X152677857Y-147280238D01*
X152820714Y-147280238D01*
X152915952Y-147327857D01*
X152963571Y-147375476D01*
X153011190Y-147470714D01*
X153011190Y-147851666D01*
X152487380Y-146661190D02*
X152487380Y-146470714D01*
X152535000Y-146375476D01*
X152630238Y-146280238D01*
X152820714Y-146232619D01*
X153154047Y-146232619D01*
X153344523Y-146280238D01*
X153439761Y-146375476D01*
X153487380Y-146470714D01*
X153487380Y-146661190D01*
X153439761Y-146756428D01*
X153344523Y-146851666D01*
X153154047Y-146899285D01*
X152820714Y-146899285D01*
X152630238Y-146851666D01*
X152535000Y-146756428D01*
X152487380Y-146661190D01*
X152487380Y-145946904D02*
X152487380Y-145375476D01*
X153487380Y-145661190D02*
X152487380Y-145661190D01*
%TO.C,Q1*%
X162464761Y-110402619D02*
X162369523Y-110355000D01*
X162274285Y-110259761D01*
X162131428Y-110116904D01*
X162036190Y-110069285D01*
X161940952Y-110069285D01*
X161988571Y-110307380D02*
X161893333Y-110259761D01*
X161798095Y-110164523D01*
X161750476Y-109974047D01*
X161750476Y-109640714D01*
X161798095Y-109450238D01*
X161893333Y-109355000D01*
X161988571Y-109307380D01*
X162179047Y-109307380D01*
X162274285Y-109355000D01*
X162369523Y-109450238D01*
X162417142Y-109640714D01*
X162417142Y-109974047D01*
X162369523Y-110164523D01*
X162274285Y-110259761D01*
X162179047Y-110307380D01*
X161988571Y-110307380D01*
X163369523Y-110307380D02*
X162798095Y-110307380D01*
X163083809Y-110307380D02*
X163083809Y-109307380D01*
X162988571Y-109450238D01*
X162893333Y-109545476D01*
X162798095Y-109593095D01*
%TO.C,J11*%
X131532380Y-120824523D02*
X132246666Y-120824523D01*
X132389523Y-120872142D01*
X132484761Y-120967380D01*
X132532380Y-121110238D01*
X132532380Y-121205476D01*
X132532380Y-119824523D02*
X132532380Y-120395952D01*
X132532380Y-120110238D02*
X131532380Y-120110238D01*
X131675238Y-120205476D01*
X131770476Y-120300714D01*
X131818095Y-120395952D01*
X132532380Y-118872142D02*
X132532380Y-119443571D01*
X132532380Y-119157857D02*
X131532380Y-119157857D01*
X131675238Y-119253095D01*
X131770476Y-119348333D01*
X131818095Y-119443571D01*
X134389761Y-119792619D02*
X134437380Y-119649761D01*
X134437380Y-119411666D01*
X134389761Y-119316428D01*
X134342142Y-119268809D01*
X134246904Y-119221190D01*
X134151666Y-119221190D01*
X134056428Y-119268809D01*
X134008809Y-119316428D01*
X133961190Y-119411666D01*
X133913571Y-119602142D01*
X133865952Y-119697380D01*
X133818333Y-119745000D01*
X133723095Y-119792619D01*
X133627857Y-119792619D01*
X133532619Y-119745000D01*
X133485000Y-119697380D01*
X133437380Y-119602142D01*
X133437380Y-119364047D01*
X133485000Y-119221190D01*
X134437380Y-118792619D02*
X133437380Y-118792619D01*
X134437380Y-118316428D02*
X133437380Y-118316428D01*
X134437380Y-117745000D01*
X133437380Y-117745000D01*
%TO.C,C2*%
X170013333Y-110085142D02*
X169965714Y-110132761D01*
X169822857Y-110180380D01*
X169727619Y-110180380D01*
X169584761Y-110132761D01*
X169489523Y-110037523D01*
X169441904Y-109942285D01*
X169394285Y-109751809D01*
X169394285Y-109608952D01*
X169441904Y-109418476D01*
X169489523Y-109323238D01*
X169584761Y-109228000D01*
X169727619Y-109180380D01*
X169822857Y-109180380D01*
X169965714Y-109228000D01*
X170013333Y-109275619D01*
X170394285Y-109275619D02*
X170441904Y-109228000D01*
X170537142Y-109180380D01*
X170775238Y-109180380D01*
X170870476Y-109228000D01*
X170918095Y-109275619D01*
X170965714Y-109370857D01*
X170965714Y-109466095D01*
X170918095Y-109608952D01*
X170346666Y-110180380D01*
X170965714Y-110180380D01*
%TO.C,JP1*%
X148677380Y-150693333D02*
X149391666Y-150693333D01*
X149534523Y-150740952D01*
X149629761Y-150836190D01*
X149677380Y-150979047D01*
X149677380Y-151074285D01*
X149677380Y-150217142D02*
X148677380Y-150217142D01*
X148677380Y-149836190D01*
X148725000Y-149740952D01*
X148772619Y-149693333D01*
X148867857Y-149645714D01*
X149010714Y-149645714D01*
X149105952Y-149693333D01*
X149153571Y-149740952D01*
X149201190Y-149836190D01*
X149201190Y-150217142D01*
X149677380Y-148693333D02*
X149677380Y-149264761D01*
X149677380Y-148979047D02*
X148677380Y-148979047D01*
X148820238Y-149074285D01*
X148915476Y-149169523D01*
X148963095Y-149264761D01*
X149629761Y-147946904D02*
X149677380Y-147804047D01*
X149677380Y-147565952D01*
X149629761Y-147470714D01*
X149582142Y-147423095D01*
X149486904Y-147375476D01*
X149391666Y-147375476D01*
X149296428Y-147423095D01*
X149248809Y-147470714D01*
X149201190Y-147565952D01*
X149153571Y-147756428D01*
X149105952Y-147851666D01*
X149058333Y-147899285D01*
X148963095Y-147946904D01*
X148867857Y-147946904D01*
X148772619Y-147899285D01*
X148725000Y-147851666D01*
X148677380Y-147756428D01*
X148677380Y-147518333D01*
X148725000Y-147375476D01*
X148725000Y-146423095D02*
X148677380Y-146518333D01*
X148677380Y-146661190D01*
X148725000Y-146804047D01*
X148820238Y-146899285D01*
X148915476Y-146946904D01*
X149105952Y-146994523D01*
X149248809Y-146994523D01*
X149439285Y-146946904D01*
X149534523Y-146899285D01*
X149629761Y-146804047D01*
X149677380Y-146661190D01*
X149677380Y-146565952D01*
X149629761Y-146423095D01*
X149582142Y-146375476D01*
X149248809Y-146375476D01*
X149248809Y-146565952D01*
X148677380Y-145756428D02*
X148677380Y-145661190D01*
X148725000Y-145565952D01*
X148772619Y-145518333D01*
X148867857Y-145470714D01*
X149058333Y-145423095D01*
X149296428Y-145423095D01*
X149486904Y-145470714D01*
X149582142Y-145518333D01*
X149629761Y-145565952D01*
X149677380Y-145661190D01*
X149677380Y-145756428D01*
X149629761Y-145851666D01*
X149582142Y-145899285D01*
X149486904Y-145946904D01*
X149296428Y-145994523D01*
X149058333Y-145994523D01*
X148867857Y-145946904D01*
X148772619Y-145899285D01*
X148725000Y-145851666D01*
X148677380Y-145756428D01*
%TO.C,D2*%
X202715904Y-116149380D02*
X202715904Y-115149380D01*
X202954000Y-115149380D01*
X203096857Y-115197000D01*
X203192095Y-115292238D01*
X203239714Y-115387476D01*
X203287333Y-115577952D01*
X203287333Y-115720809D01*
X203239714Y-115911285D01*
X203192095Y-116006523D01*
X203096857Y-116101761D01*
X202954000Y-116149380D01*
X202715904Y-116149380D01*
X203668285Y-115244619D02*
X203715904Y-115197000D01*
X203811142Y-115149380D01*
X204049238Y-115149380D01*
X204144476Y-115197000D01*
X204192095Y-115244619D01*
X204239714Y-115339857D01*
X204239714Y-115435095D01*
X204192095Y-115577952D01*
X203620666Y-116149380D01*
X204239714Y-116149380D01*
%TO.C,R13*%
X166997142Y-121102380D02*
X166663809Y-120626190D01*
X166425714Y-121102380D02*
X166425714Y-120102380D01*
X166806666Y-120102380D01*
X166901904Y-120150000D01*
X166949523Y-120197619D01*
X166997142Y-120292857D01*
X166997142Y-120435714D01*
X166949523Y-120530952D01*
X166901904Y-120578571D01*
X166806666Y-120626190D01*
X166425714Y-120626190D01*
X167949523Y-121102380D02*
X167378095Y-121102380D01*
X167663809Y-121102380D02*
X167663809Y-120102380D01*
X167568571Y-120245238D01*
X167473333Y-120340476D01*
X167378095Y-120388095D01*
X168282857Y-120102380D02*
X168901904Y-120102380D01*
X168568571Y-120483333D01*
X168711428Y-120483333D01*
X168806666Y-120530952D01*
X168854285Y-120578571D01*
X168901904Y-120673809D01*
X168901904Y-120911904D01*
X168854285Y-121007142D01*
X168806666Y-121054761D01*
X168711428Y-121102380D01*
X168425714Y-121102380D01*
X168330476Y-121054761D01*
X168282857Y-121007142D01*
%TO.C,D21*%
X170235714Y-136342380D02*
X170235714Y-135342380D01*
X170473809Y-135342380D01*
X170616666Y-135390000D01*
X170711904Y-135485238D01*
X170759523Y-135580476D01*
X170807142Y-135770952D01*
X170807142Y-135913809D01*
X170759523Y-136104285D01*
X170711904Y-136199523D01*
X170616666Y-136294761D01*
X170473809Y-136342380D01*
X170235714Y-136342380D01*
X171188095Y-135437619D02*
X171235714Y-135390000D01*
X171330952Y-135342380D01*
X171569047Y-135342380D01*
X171664285Y-135390000D01*
X171711904Y-135437619D01*
X171759523Y-135532857D01*
X171759523Y-135628095D01*
X171711904Y-135770952D01*
X171140476Y-136342380D01*
X171759523Y-136342380D01*
X172711904Y-136342380D02*
X172140476Y-136342380D01*
X172426190Y-136342380D02*
X172426190Y-135342380D01*
X172330952Y-135485238D01*
X172235714Y-135580476D01*
X172140476Y-135628095D01*
%TO.C,J21*%
X132040380Y-139874523D02*
X132754666Y-139874523D01*
X132897523Y-139922142D01*
X132992761Y-140017380D01*
X133040380Y-140160238D01*
X133040380Y-140255476D01*
X132135619Y-139445952D02*
X132088000Y-139398333D01*
X132040380Y-139303095D01*
X132040380Y-139065000D01*
X132088000Y-138969761D01*
X132135619Y-138922142D01*
X132230857Y-138874523D01*
X132326095Y-138874523D01*
X132468952Y-138922142D01*
X133040380Y-139493571D01*
X133040380Y-138874523D01*
X133040380Y-137922142D02*
X133040380Y-138493571D01*
X133040380Y-138207857D02*
X132040380Y-138207857D01*
X132183238Y-138303095D01*
X132278476Y-138398333D01*
X132326095Y-138493571D01*
X134977142Y-141025476D02*
X135024761Y-141073095D01*
X135072380Y-141215952D01*
X135072380Y-141311190D01*
X135024761Y-141454047D01*
X134929523Y-141549285D01*
X134834285Y-141596904D01*
X134643809Y-141644523D01*
X134500952Y-141644523D01*
X134310476Y-141596904D01*
X134215238Y-141549285D01*
X134120000Y-141454047D01*
X134072380Y-141311190D01*
X134072380Y-141215952D01*
X134120000Y-141073095D01*
X134167619Y-141025476D01*
X134072380Y-140406428D02*
X134072380Y-140215952D01*
X134120000Y-140120714D01*
X134215238Y-140025476D01*
X134405714Y-139977857D01*
X134739047Y-139977857D01*
X134929523Y-140025476D01*
X135024761Y-140120714D01*
X135072380Y-140215952D01*
X135072380Y-140406428D01*
X135024761Y-140501666D01*
X134929523Y-140596904D01*
X134739047Y-140644523D01*
X134405714Y-140644523D01*
X134215238Y-140596904D01*
X134120000Y-140501666D01*
X134072380Y-140406428D01*
X135024761Y-139596904D02*
X135072380Y-139454047D01*
X135072380Y-139215952D01*
X135024761Y-139120714D01*
X134977142Y-139073095D01*
X134881904Y-139025476D01*
X134786666Y-139025476D01*
X134691428Y-139073095D01*
X134643809Y-139120714D01*
X134596190Y-139215952D01*
X134548571Y-139406428D01*
X134500952Y-139501666D01*
X134453333Y-139549285D01*
X134358095Y-139596904D01*
X134262857Y-139596904D01*
X134167619Y-139549285D01*
X134120000Y-139501666D01*
X134072380Y-139406428D01*
X134072380Y-139168333D01*
X134120000Y-139025476D01*
%TO.C,C5*%
X175093333Y-119737142D02*
X175045714Y-119784761D01*
X174902857Y-119832380D01*
X174807619Y-119832380D01*
X174664761Y-119784761D01*
X174569523Y-119689523D01*
X174521904Y-119594285D01*
X174474285Y-119403809D01*
X174474285Y-119260952D01*
X174521904Y-119070476D01*
X174569523Y-118975238D01*
X174664761Y-118880000D01*
X174807619Y-118832380D01*
X174902857Y-118832380D01*
X175045714Y-118880000D01*
X175093333Y-118927619D01*
X175998095Y-118832380D02*
X175521904Y-118832380D01*
X175474285Y-119308571D01*
X175521904Y-119260952D01*
X175617142Y-119213333D01*
X175855238Y-119213333D01*
X175950476Y-119260952D01*
X175998095Y-119308571D01*
X176045714Y-119403809D01*
X176045714Y-119641904D01*
X175998095Y-119737142D01*
X175950476Y-119784761D01*
X175855238Y-119832380D01*
X175617142Y-119832380D01*
X175521904Y-119784761D01*
X175474285Y-119737142D01*
%TO.C,J12*%
X207986380Y-121205523D02*
X208700666Y-121205523D01*
X208843523Y-121253142D01*
X208938761Y-121348380D01*
X208986380Y-121491238D01*
X208986380Y-121586476D01*
X208986380Y-120205523D02*
X208986380Y-120776952D01*
X208986380Y-120491238D02*
X207986380Y-120491238D01*
X208129238Y-120586476D01*
X208224476Y-120681714D01*
X208272095Y-120776952D01*
X208081619Y-119824571D02*
X208034000Y-119776952D01*
X207986380Y-119681714D01*
X207986380Y-119443619D01*
X208034000Y-119348380D01*
X208081619Y-119300761D01*
X208176857Y-119253142D01*
X208272095Y-119253142D01*
X208414952Y-119300761D01*
X208986380Y-119872190D01*
X208986380Y-119253142D01*
X207176666Y-120126095D02*
X207176666Y-119649904D01*
X207462380Y-120221333D02*
X206462380Y-119888000D01*
X207462380Y-119554666D01*
%TO.C,R1*%
X190333333Y-111577380D02*
X190000000Y-111101190D01*
X189761904Y-111577380D02*
X189761904Y-110577380D01*
X190142857Y-110577380D01*
X190238095Y-110625000D01*
X190285714Y-110672619D01*
X190333333Y-110767857D01*
X190333333Y-110910714D01*
X190285714Y-111005952D01*
X190238095Y-111053571D01*
X190142857Y-111101190D01*
X189761904Y-111101190D01*
X191285714Y-111577380D02*
X190714285Y-111577380D01*
X191000000Y-111577380D02*
X191000000Y-110577380D01*
X190904761Y-110720238D01*
X190809523Y-110815476D01*
X190714285Y-110863095D01*
%TO.C,JP23*%
X179792380Y-120689523D02*
X180506666Y-120689523D01*
X180649523Y-120737142D01*
X180744761Y-120832380D01*
X180792380Y-120975238D01*
X180792380Y-121070476D01*
X180792380Y-120213333D02*
X179792380Y-120213333D01*
X179792380Y-119832380D01*
X179840000Y-119737142D01*
X179887619Y-119689523D01*
X179982857Y-119641904D01*
X180125714Y-119641904D01*
X180220952Y-119689523D01*
X180268571Y-119737142D01*
X180316190Y-119832380D01*
X180316190Y-120213333D01*
X179887619Y-119260952D02*
X179840000Y-119213333D01*
X179792380Y-119118095D01*
X179792380Y-118880000D01*
X179840000Y-118784761D01*
X179887619Y-118737142D01*
X179982857Y-118689523D01*
X180078095Y-118689523D01*
X180220952Y-118737142D01*
X180792380Y-119308571D01*
X180792380Y-118689523D01*
X179792380Y-118356190D02*
X179792380Y-117737142D01*
X180173333Y-118070476D01*
X180173333Y-117927619D01*
X180220952Y-117832380D01*
X180268571Y-117784761D01*
X180363809Y-117737142D01*
X180601904Y-117737142D01*
X180697142Y-117784761D01*
X180744761Y-117832380D01*
X180792380Y-117927619D01*
X180792380Y-118213333D01*
X180744761Y-118308571D01*
X180697142Y-118356190D01*
%TO.C,J2*%
X131532380Y-116538333D02*
X132246666Y-116538333D01*
X132389523Y-116585952D01*
X132484761Y-116681190D01*
X132532380Y-116824047D01*
X132532380Y-116919285D01*
X131627619Y-116109761D02*
X131580000Y-116062142D01*
X131532380Y-115966904D01*
X131532380Y-115728809D01*
X131580000Y-115633571D01*
X131627619Y-115585952D01*
X131722857Y-115538333D01*
X131818095Y-115538333D01*
X131960952Y-115585952D01*
X132532380Y-116157380D01*
X132532380Y-115538333D01*
X132532380Y-113974047D02*
X131532380Y-113974047D01*
X131532380Y-113593095D01*
X131580000Y-113497857D01*
X131627619Y-113450238D01*
X131722857Y-113402619D01*
X131865714Y-113402619D01*
X131960952Y-113450238D01*
X132008571Y-113497857D01*
X132056190Y-113593095D01*
X132056190Y-113974047D01*
X131532380Y-112783571D02*
X131532380Y-112593095D01*
X131580000Y-112497857D01*
X131675238Y-112402619D01*
X131865714Y-112355000D01*
X132199047Y-112355000D01*
X132389523Y-112402619D01*
X132484761Y-112497857D01*
X132532380Y-112593095D01*
X132532380Y-112783571D01*
X132484761Y-112878809D01*
X132389523Y-112974047D01*
X132199047Y-113021666D01*
X131865714Y-113021666D01*
X131675238Y-112974047D01*
X131580000Y-112878809D01*
X131532380Y-112783571D01*
X131532380Y-112021666D02*
X132532380Y-111783571D01*
X131818095Y-111593095D01*
X132532380Y-111402619D01*
X131532380Y-111164523D01*
X132008571Y-110783571D02*
X132008571Y-110450238D01*
X132532380Y-110307380D02*
X132532380Y-110783571D01*
X131532380Y-110783571D01*
X131532380Y-110307380D01*
X132532380Y-109307380D02*
X132056190Y-109640714D01*
X132532380Y-109878809D02*
X131532380Y-109878809D01*
X131532380Y-109497857D01*
X131580000Y-109402619D01*
X131627619Y-109355000D01*
X131722857Y-109307380D01*
X131865714Y-109307380D01*
X131960952Y-109355000D01*
X132008571Y-109402619D01*
X132056190Y-109497857D01*
X132056190Y-109878809D01*
X131532380Y-107926428D02*
X131532380Y-107735952D01*
X131580000Y-107640714D01*
X131675238Y-107545476D01*
X131865714Y-107497857D01*
X132199047Y-107497857D01*
X132389523Y-107545476D01*
X132484761Y-107640714D01*
X132532380Y-107735952D01*
X132532380Y-107926428D01*
X132484761Y-108021666D01*
X132389523Y-108116904D01*
X132199047Y-108164523D01*
X131865714Y-108164523D01*
X131675238Y-108116904D01*
X131580000Y-108021666D01*
X131532380Y-107926428D01*
X131532380Y-107069285D02*
X132341904Y-107069285D01*
X132437142Y-107021666D01*
X132484761Y-106974047D01*
X132532380Y-106878809D01*
X132532380Y-106688333D01*
X132484761Y-106593095D01*
X132437142Y-106545476D01*
X132341904Y-106497857D01*
X131532380Y-106497857D01*
X131532380Y-106164523D02*
X131532380Y-105593095D01*
X132532380Y-105878809D02*
X131532380Y-105878809D01*
%TO.C,JP4*%
X156297380Y-150693333D02*
X157011666Y-150693333D01*
X157154523Y-150740952D01*
X157249761Y-150836190D01*
X157297380Y-150979047D01*
X157297380Y-151074285D01*
X157297380Y-150217142D02*
X156297380Y-150217142D01*
X156297380Y-149836190D01*
X156345000Y-149740952D01*
X156392619Y-149693333D01*
X156487857Y-149645714D01*
X156630714Y-149645714D01*
X156725952Y-149693333D01*
X156773571Y-149740952D01*
X156821190Y-149836190D01*
X156821190Y-150217142D01*
X156630714Y-148788571D02*
X157297380Y-148788571D01*
X156249761Y-149026666D02*
X156964047Y-149264761D01*
X156964047Y-148645714D01*
X157249761Y-147905476D02*
X157297380Y-147762619D01*
X157297380Y-147524523D01*
X157249761Y-147429285D01*
X157202142Y-147381666D01*
X157106904Y-147334047D01*
X157011666Y-147334047D01*
X156916428Y-147381666D01*
X156868809Y-147429285D01*
X156821190Y-147524523D01*
X156773571Y-147715000D01*
X156725952Y-147810238D01*
X156678333Y-147857857D01*
X156583095Y-147905476D01*
X156487857Y-147905476D01*
X156392619Y-147857857D01*
X156345000Y-147810238D01*
X156297380Y-147715000D01*
X156297380Y-147476904D01*
X156345000Y-147334047D01*
X156773571Y-146572142D02*
X156773571Y-146905476D01*
X157297380Y-146905476D02*
X156297380Y-146905476D01*
X156297380Y-146429285D01*
X157297380Y-145524523D02*
X157297380Y-146095952D01*
X157297380Y-145810238D02*
X156297380Y-145810238D01*
X156440238Y-145905476D01*
X156535476Y-146000714D01*
X156583095Y-146095952D01*
%TO.C,C3*%
X161758333Y-117832142D02*
X161710714Y-117879761D01*
X161567857Y-117927380D01*
X161472619Y-117927380D01*
X161329761Y-117879761D01*
X161234523Y-117784523D01*
X161186904Y-117689285D01*
X161139285Y-117498809D01*
X161139285Y-117355952D01*
X161186904Y-117165476D01*
X161234523Y-117070238D01*
X161329761Y-116975000D01*
X161472619Y-116927380D01*
X161567857Y-116927380D01*
X161710714Y-116975000D01*
X161758333Y-117022619D01*
X162091666Y-116927380D02*
X162710714Y-116927380D01*
X162377380Y-117308333D01*
X162520238Y-117308333D01*
X162615476Y-117355952D01*
X162663095Y-117403571D01*
X162710714Y-117498809D01*
X162710714Y-117736904D01*
X162663095Y-117832142D01*
X162615476Y-117879761D01*
X162520238Y-117927380D01*
X162234523Y-117927380D01*
X162139285Y-117879761D01*
X162091666Y-117832142D01*
%TO.C,U1*%
X159893095Y-128992380D02*
X159893095Y-129801904D01*
X159940714Y-129897142D01*
X159988333Y-129944761D01*
X160083571Y-129992380D01*
X160274047Y-129992380D01*
X160369285Y-129944761D01*
X160416904Y-129897142D01*
X160464523Y-129801904D01*
X160464523Y-128992380D01*
X161464523Y-129992380D02*
X160893095Y-129992380D01*
X161178809Y-129992380D02*
X161178809Y-128992380D01*
X161083571Y-129135238D01*
X160988333Y-129230476D01*
X160893095Y-129278095D01*
%TO.C,J22*%
X207986380Y-140001523D02*
X208700666Y-140001523D01*
X208843523Y-140049142D01*
X208938761Y-140144380D01*
X208986380Y-140287238D01*
X208986380Y-140382476D01*
X208081619Y-139572952D02*
X208034000Y-139525333D01*
X207986380Y-139430095D01*
X207986380Y-139192000D01*
X208034000Y-139096761D01*
X208081619Y-139049142D01*
X208176857Y-139001523D01*
X208272095Y-139001523D01*
X208414952Y-139049142D01*
X208986380Y-139620571D01*
X208986380Y-139001523D01*
X208081619Y-138620571D02*
X208034000Y-138572952D01*
X207986380Y-138477714D01*
X207986380Y-138239619D01*
X208034000Y-138144380D01*
X208081619Y-138096761D01*
X208176857Y-138049142D01*
X208272095Y-138049142D01*
X208414952Y-138096761D01*
X208986380Y-138668190D01*
X208986380Y-138049142D01*
X206938571Y-139120571D02*
X206986190Y-138977714D01*
X207033809Y-138930095D01*
X207129047Y-138882476D01*
X207271904Y-138882476D01*
X207367142Y-138930095D01*
X207414761Y-138977714D01*
X207462380Y-139072952D01*
X207462380Y-139453904D01*
X206462380Y-139453904D01*
X206462380Y-139120571D01*
X206510000Y-139025333D01*
X206557619Y-138977714D01*
X206652857Y-138930095D01*
X206748095Y-138930095D01*
X206843333Y-138977714D01*
X206890952Y-139025333D01*
X206938571Y-139120571D01*
X206938571Y-139453904D01*
%TO.C,J31*%
X132040380Y-149399523D02*
X132754666Y-149399523D01*
X132897523Y-149447142D01*
X132992761Y-149542380D01*
X133040380Y-149685238D01*
X133040380Y-149780476D01*
X132040380Y-149018571D02*
X132040380Y-148399523D01*
X132421333Y-148732857D01*
X132421333Y-148590000D01*
X132468952Y-148494761D01*
X132516571Y-148447142D01*
X132611809Y-148399523D01*
X132849904Y-148399523D01*
X132945142Y-148447142D01*
X132992761Y-148494761D01*
X133040380Y-148590000D01*
X133040380Y-148875714D01*
X132992761Y-148970952D01*
X132945142Y-149018571D01*
X133040380Y-147447142D02*
X133040380Y-148018571D01*
X133040380Y-147732857D02*
X132040380Y-147732857D01*
X132183238Y-147828095D01*
X132278476Y-147923333D01*
X132326095Y-148018571D01*
X132040380Y-145954523D02*
X132040380Y-145287857D01*
X133040380Y-145954523D01*
X133040380Y-145287857D01*
X132516571Y-144906904D02*
X132516571Y-144573571D01*
X133040380Y-144430714D02*
X133040380Y-144906904D01*
X132040380Y-144906904D01*
X132040380Y-144430714D01*
X133040380Y-143430714D02*
X132564190Y-143764047D01*
X133040380Y-144002142D02*
X132040380Y-144002142D01*
X132040380Y-143621190D01*
X132088000Y-143525952D01*
X132135619Y-143478333D01*
X132230857Y-143430714D01*
X132373714Y-143430714D01*
X132468952Y-143478333D01*
X132516571Y-143525952D01*
X132564190Y-143621190D01*
X132564190Y-144002142D01*
X132040380Y-142811666D02*
X132040380Y-142621190D01*
X132088000Y-142525952D01*
X132183238Y-142430714D01*
X132373714Y-142383095D01*
X132707047Y-142383095D01*
X132897523Y-142430714D01*
X132992761Y-142525952D01*
X133040380Y-142621190D01*
X133040380Y-142811666D01*
X132992761Y-142906904D01*
X132897523Y-143002142D01*
X132707047Y-143049761D01*
X132373714Y-143049761D01*
X132183238Y-143002142D01*
X132088000Y-142906904D01*
X132040380Y-142811666D01*
%TO.C,C4*%
X159218333Y-117832142D02*
X159170714Y-117879761D01*
X159027857Y-117927380D01*
X158932619Y-117927380D01*
X158789761Y-117879761D01*
X158694523Y-117784523D01*
X158646904Y-117689285D01*
X158599285Y-117498809D01*
X158599285Y-117355952D01*
X158646904Y-117165476D01*
X158694523Y-117070238D01*
X158789761Y-116975000D01*
X158932619Y-116927380D01*
X159027857Y-116927380D01*
X159170714Y-116975000D01*
X159218333Y-117022619D01*
X160075476Y-117260714D02*
X160075476Y-117927380D01*
X159837380Y-116879761D02*
X159599285Y-117594047D01*
X160218333Y-117594047D01*
%TO.C,JP33*%
X178776380Y-141517523D02*
X179490666Y-141517523D01*
X179633523Y-141565142D01*
X179728761Y-141660380D01*
X179776380Y-141803238D01*
X179776380Y-141898476D01*
X179776380Y-141041333D02*
X178776380Y-141041333D01*
X178776380Y-140660380D01*
X178824000Y-140565142D01*
X178871619Y-140517523D01*
X178966857Y-140469904D01*
X179109714Y-140469904D01*
X179204952Y-140517523D01*
X179252571Y-140565142D01*
X179300190Y-140660380D01*
X179300190Y-141041333D01*
X178776380Y-140136571D02*
X178776380Y-139517523D01*
X179157333Y-139850857D01*
X179157333Y-139708000D01*
X179204952Y-139612761D01*
X179252571Y-139565142D01*
X179347809Y-139517523D01*
X179585904Y-139517523D01*
X179681142Y-139565142D01*
X179728761Y-139612761D01*
X179776380Y-139708000D01*
X179776380Y-139993714D01*
X179728761Y-140088952D01*
X179681142Y-140136571D01*
X178776380Y-139184190D02*
X178776380Y-138565142D01*
X179157333Y-138898476D01*
X179157333Y-138755619D01*
X179204952Y-138660380D01*
X179252571Y-138612761D01*
X179347809Y-138565142D01*
X179585904Y-138565142D01*
X179681142Y-138612761D01*
X179728761Y-138660380D01*
X179776380Y-138755619D01*
X179776380Y-139041333D01*
X179728761Y-139136571D01*
X179681142Y-139184190D01*
%TO.C,J1*%
X207732380Y-115268333D02*
X208446666Y-115268333D01*
X208589523Y-115315952D01*
X208684761Y-115411190D01*
X208732380Y-115554047D01*
X208732380Y-115649285D01*
X208732380Y-114268333D02*
X208732380Y-114839761D01*
X208732380Y-114554047D02*
X207732380Y-114554047D01*
X207875238Y-114649285D01*
X207970476Y-114744523D01*
X208018095Y-114839761D01*
X208732380Y-113307380D02*
X207732380Y-113307380D01*
X207732380Y-112926428D01*
X207780000Y-112831190D01*
X207827619Y-112783571D01*
X207922857Y-112735952D01*
X208065714Y-112735952D01*
X208160952Y-112783571D01*
X208208571Y-112831190D01*
X208256190Y-112926428D01*
X208256190Y-113307380D01*
X207732380Y-112116904D02*
X207732380Y-111926428D01*
X207780000Y-111831190D01*
X207875238Y-111735952D01*
X208065714Y-111688333D01*
X208399047Y-111688333D01*
X208589523Y-111735952D01*
X208684761Y-111831190D01*
X208732380Y-111926428D01*
X208732380Y-112116904D01*
X208684761Y-112212142D01*
X208589523Y-112307380D01*
X208399047Y-112355000D01*
X208065714Y-112355000D01*
X207875238Y-112307380D01*
X207780000Y-112212142D01*
X207732380Y-112116904D01*
X207732380Y-111355000D02*
X208732380Y-111116904D01*
X208018095Y-110926428D01*
X208732380Y-110735952D01*
X207732380Y-110497857D01*
X208208571Y-110116904D02*
X208208571Y-109783571D01*
X208732380Y-109640714D02*
X208732380Y-110116904D01*
X207732380Y-110116904D01*
X207732380Y-109640714D01*
X208732380Y-108640714D02*
X208256190Y-108974047D01*
X208732380Y-109212142D02*
X207732380Y-109212142D01*
X207732380Y-108831190D01*
X207780000Y-108735952D01*
X207827619Y-108688333D01*
X207922857Y-108640714D01*
X208065714Y-108640714D01*
X208160952Y-108688333D01*
X208208571Y-108735952D01*
X208256190Y-108831190D01*
X208256190Y-109212142D01*
X208732380Y-107450238D02*
X207732380Y-107450238D01*
X208732380Y-106974047D02*
X207732380Y-106974047D01*
X208732380Y-106402619D01*
X207732380Y-106402619D01*
%TO.C,C1*%
X149693333Y-103481142D02*
X149645714Y-103528761D01*
X149502857Y-103576380D01*
X149407619Y-103576380D01*
X149264761Y-103528761D01*
X149169523Y-103433523D01*
X149121904Y-103338285D01*
X149074285Y-103147809D01*
X149074285Y-103004952D01*
X149121904Y-102814476D01*
X149169523Y-102719238D01*
X149264761Y-102624000D01*
X149407619Y-102576380D01*
X149502857Y-102576380D01*
X149645714Y-102624000D01*
X149693333Y-102671619D01*
X150645714Y-103576380D02*
X150074285Y-103576380D01*
X150360000Y-103576380D02*
X150360000Y-102576380D01*
X150264761Y-102719238D01*
X150169523Y-102814476D01*
X150074285Y-102862095D01*
%TO.C,JP2*%
X144867380Y-150693333D02*
X145581666Y-150693333D01*
X145724523Y-150740952D01*
X145819761Y-150836190D01*
X145867380Y-150979047D01*
X145867380Y-151074285D01*
X145867380Y-150217142D02*
X144867380Y-150217142D01*
X144867380Y-149836190D01*
X144915000Y-149740952D01*
X144962619Y-149693333D01*
X145057857Y-149645714D01*
X145200714Y-149645714D01*
X145295952Y-149693333D01*
X145343571Y-149740952D01*
X145391190Y-149836190D01*
X145391190Y-150217142D01*
X144962619Y-149264761D02*
X144915000Y-149217142D01*
X144867380Y-149121904D01*
X144867380Y-148883809D01*
X144915000Y-148788571D01*
X144962619Y-148740952D01*
X145057857Y-148693333D01*
X145153095Y-148693333D01*
X145295952Y-148740952D01*
X145867380Y-149312380D01*
X145867380Y-148693333D01*
X145824761Y-147946904D02*
X145872380Y-147804047D01*
X145872380Y-147565952D01*
X145824761Y-147470714D01*
X145777142Y-147423095D01*
X145681904Y-147375476D01*
X145586666Y-147375476D01*
X145491428Y-147423095D01*
X145443809Y-147470714D01*
X145396190Y-147565952D01*
X145348571Y-147756428D01*
X145300952Y-147851666D01*
X145253333Y-147899285D01*
X145158095Y-147946904D01*
X145062857Y-147946904D01*
X144967619Y-147899285D01*
X144920000Y-147851666D01*
X144872380Y-147756428D01*
X144872380Y-147518333D01*
X144920000Y-147375476D01*
X144920000Y-146423095D02*
X144872380Y-146518333D01*
X144872380Y-146661190D01*
X144920000Y-146804047D01*
X145015238Y-146899285D01*
X145110476Y-146946904D01*
X145300952Y-146994523D01*
X145443809Y-146994523D01*
X145634285Y-146946904D01*
X145729523Y-146899285D01*
X145824761Y-146804047D01*
X145872380Y-146661190D01*
X145872380Y-146565952D01*
X145824761Y-146423095D01*
X145777142Y-146375476D01*
X145443809Y-146375476D01*
X145443809Y-146565952D01*
X145872380Y-145423095D02*
X145872380Y-145994523D01*
X145872380Y-145708809D02*
X144872380Y-145708809D01*
X145015238Y-145804047D01*
X145110476Y-145899285D01*
X145158095Y-145994523D01*
%TO.C,U2*%
X173863095Y-128992380D02*
X173863095Y-129801904D01*
X173910714Y-129897142D01*
X173958333Y-129944761D01*
X174053571Y-129992380D01*
X174244047Y-129992380D01*
X174339285Y-129944761D01*
X174386904Y-129897142D01*
X174434523Y-129801904D01*
X174434523Y-128992380D01*
X174863095Y-129087619D02*
X174910714Y-129040000D01*
X175005952Y-128992380D01*
X175244047Y-128992380D01*
X175339285Y-129040000D01*
X175386904Y-129087619D01*
X175434523Y-129182857D01*
X175434523Y-129278095D01*
X175386904Y-129420952D01*
X174815476Y-129992380D01*
X175434523Y-129992380D01*
%TO.C,R22*%
X147312142Y-141422380D02*
X146978809Y-140946190D01*
X146740714Y-141422380D02*
X146740714Y-140422380D01*
X147121666Y-140422380D01*
X147216904Y-140470000D01*
X147264523Y-140517619D01*
X147312142Y-140612857D01*
X147312142Y-140755714D01*
X147264523Y-140850952D01*
X147216904Y-140898571D01*
X147121666Y-140946190D01*
X146740714Y-140946190D01*
X147693095Y-140517619D02*
X147740714Y-140470000D01*
X147835952Y-140422380D01*
X148074047Y-140422380D01*
X148169285Y-140470000D01*
X148216904Y-140517619D01*
X148264523Y-140612857D01*
X148264523Y-140708095D01*
X148216904Y-140850952D01*
X147645476Y-141422380D01*
X148264523Y-141422380D01*
X148645476Y-140517619D02*
X148693095Y-140470000D01*
X148788333Y-140422380D01*
X149026428Y-140422380D01*
X149121666Y-140470000D01*
X149169285Y-140517619D01*
X149216904Y-140612857D01*
X149216904Y-140708095D01*
X149169285Y-140850952D01*
X148597857Y-141422380D01*
X149216904Y-141422380D01*
%TO.C,R3*%
X147788333Y-113482380D02*
X147455000Y-113006190D01*
X147216904Y-113482380D02*
X147216904Y-112482380D01*
X147597857Y-112482380D01*
X147693095Y-112530000D01*
X147740714Y-112577619D01*
X147788333Y-112672857D01*
X147788333Y-112815714D01*
X147740714Y-112910952D01*
X147693095Y-112958571D01*
X147597857Y-113006190D01*
X147216904Y-113006190D01*
X148121666Y-112482380D02*
X148740714Y-112482380D01*
X148407380Y-112863333D01*
X148550238Y-112863333D01*
X148645476Y-112910952D01*
X148693095Y-112958571D01*
X148740714Y-113053809D01*
X148740714Y-113291904D01*
X148693095Y-113387142D01*
X148645476Y-113434761D01*
X148550238Y-113482380D01*
X148264523Y-113482380D01*
X148169285Y-113434761D01*
X148121666Y-113387142D01*
%TO.C,J3*%
X140001666Y-119467380D02*
X140001666Y-120181666D01*
X139954047Y-120324523D01*
X139858809Y-120419761D01*
X139715952Y-120467380D01*
X139620714Y-120467380D01*
X140382619Y-119467380D02*
X141001666Y-119467380D01*
X140668333Y-119848333D01*
X140811190Y-119848333D01*
X140906428Y-119895952D01*
X140954047Y-119943571D01*
X141001666Y-120038809D01*
X141001666Y-120276904D01*
X140954047Y-120372142D01*
X140906428Y-120419761D01*
X140811190Y-120467380D01*
X140525476Y-120467380D01*
X140430238Y-120419761D01*
X140382619Y-120372142D01*
%TO.C,JP6*%
X154614666Y-114768380D02*
X154614666Y-115482666D01*
X154567047Y-115625523D01*
X154471809Y-115720761D01*
X154328952Y-115768380D01*
X154233714Y-115768380D01*
X155090857Y-115768380D02*
X155090857Y-114768380D01*
X155471809Y-114768380D01*
X155567047Y-114816000D01*
X155614666Y-114863619D01*
X155662285Y-114958857D01*
X155662285Y-115101714D01*
X155614666Y-115196952D01*
X155567047Y-115244571D01*
X155471809Y-115292190D01*
X155090857Y-115292190D01*
X156519428Y-114768380D02*
X156328952Y-114768380D01*
X156233714Y-114816000D01*
X156186095Y-114863619D01*
X156090857Y-115006476D01*
X156043238Y-115196952D01*
X156043238Y-115577904D01*
X156090857Y-115673142D01*
X156138476Y-115720761D01*
X156233714Y-115768380D01*
X156424190Y-115768380D01*
X156519428Y-115720761D01*
X156567047Y-115673142D01*
X156614666Y-115577904D01*
X156614666Y-115339809D01*
X156567047Y-115244571D01*
X156519428Y-115196952D01*
X156424190Y-115149333D01*
X156233714Y-115149333D01*
X156138476Y-115196952D01*
X156090857Y-115244571D01*
X156043238Y-115339809D01*
X154860761Y-117292380D02*
X154527428Y-116816190D01*
X154289333Y-117292380D02*
X154289333Y-116292380D01*
X154670285Y-116292380D01*
X154765523Y-116340000D01*
X154813142Y-116387619D01*
X154860761Y-116482857D01*
X154860761Y-116625714D01*
X154813142Y-116720952D01*
X154765523Y-116768571D01*
X154670285Y-116816190D01*
X154289333Y-116816190D01*
X155860761Y-117197142D02*
X155813142Y-117244761D01*
X155670285Y-117292380D01*
X155575047Y-117292380D01*
X155432190Y-117244761D01*
X155336952Y-117149523D01*
X155289333Y-117054285D01*
X155241714Y-116863809D01*
X155241714Y-116720952D01*
X155289333Y-116530476D01*
X155336952Y-116435238D01*
X155432190Y-116340000D01*
X155575047Y-116292380D01*
X155670285Y-116292380D01*
X155813142Y-116340000D01*
X155860761Y-116387619D01*
X156765523Y-117292380D02*
X156289333Y-117292380D01*
X156289333Y-116292380D01*
X157098857Y-117292380D02*
X157098857Y-116292380D01*
X157670285Y-117292380D02*
X157241714Y-116720952D01*
X157670285Y-116292380D02*
X157098857Y-116863809D01*
%TO.C,R2*%
X184618333Y-111704380D02*
X184285000Y-111228190D01*
X184046904Y-111704380D02*
X184046904Y-110704380D01*
X184427857Y-110704380D01*
X184523095Y-110752000D01*
X184570714Y-110799619D01*
X184618333Y-110894857D01*
X184618333Y-111037714D01*
X184570714Y-111132952D01*
X184523095Y-111180571D01*
X184427857Y-111228190D01*
X184046904Y-111228190D01*
X184999285Y-110799619D02*
X185046904Y-110752000D01*
X185142142Y-110704380D01*
X185380238Y-110704380D01*
X185475476Y-110752000D01*
X185523095Y-110799619D01*
X185570714Y-110894857D01*
X185570714Y-110990095D01*
X185523095Y-111132952D01*
X184951666Y-111704380D01*
X185570714Y-111704380D01*
%TO.C,R11*%
X147312142Y-118562380D02*
X146978809Y-118086190D01*
X146740714Y-118562380D02*
X146740714Y-117562380D01*
X147121666Y-117562380D01*
X147216904Y-117610000D01*
X147264523Y-117657619D01*
X147312142Y-117752857D01*
X147312142Y-117895714D01*
X147264523Y-117990952D01*
X147216904Y-118038571D01*
X147121666Y-118086190D01*
X146740714Y-118086190D01*
X148264523Y-118562380D02*
X147693095Y-118562380D01*
X147978809Y-118562380D02*
X147978809Y-117562380D01*
X147883571Y-117705238D01*
X147788333Y-117800476D01*
X147693095Y-117848095D01*
X149216904Y-118562380D02*
X148645476Y-118562380D01*
X148931190Y-118562380D02*
X148931190Y-117562380D01*
X148835952Y-117705238D01*
X148740714Y-117800476D01*
X148645476Y-117848095D01*
%TO.C,J4*%
X198421666Y-119467380D02*
X198421666Y-120181666D01*
X198374047Y-120324523D01*
X198278809Y-120419761D01*
X198135952Y-120467380D01*
X198040714Y-120467380D01*
X199326428Y-119800714D02*
X199326428Y-120467380D01*
X199088333Y-119419761D02*
X198850238Y-120134047D01*
X199469285Y-120134047D01*
%TO.C,R12*%
X147312142Y-120467380D02*
X146978809Y-119991190D01*
X146740714Y-120467380D02*
X146740714Y-119467380D01*
X147121666Y-119467380D01*
X147216904Y-119515000D01*
X147264523Y-119562619D01*
X147312142Y-119657857D01*
X147312142Y-119800714D01*
X147264523Y-119895952D01*
X147216904Y-119943571D01*
X147121666Y-119991190D01*
X146740714Y-119991190D01*
X148264523Y-120467380D02*
X147693095Y-120467380D01*
X147978809Y-120467380D02*
X147978809Y-119467380D01*
X147883571Y-119610238D01*
X147788333Y-119705476D01*
X147693095Y-119753095D01*
X148645476Y-119562619D02*
X148693095Y-119515000D01*
X148788333Y-119467380D01*
X149026428Y-119467380D01*
X149121666Y-119515000D01*
X149169285Y-119562619D01*
X149216904Y-119657857D01*
X149216904Y-119753095D01*
X149169285Y-119895952D01*
X148597857Y-120467380D01*
X149216904Y-120467380D01*
%TO.C,JP21*%
X155291309Y-134627380D02*
X155291309Y-135341666D01*
X155243690Y-135484523D01*
X155148452Y-135579761D01*
X155005595Y-135627380D01*
X154910357Y-135627380D01*
X155767500Y-135627380D02*
X155767500Y-134627380D01*
X156148452Y-134627380D01*
X156243690Y-134675000D01*
X156291309Y-134722619D01*
X156338928Y-134817857D01*
X156338928Y-134960714D01*
X156291309Y-135055952D01*
X156243690Y-135103571D01*
X156148452Y-135151190D01*
X155767500Y-135151190D01*
X156719880Y-134722619D02*
X156767500Y-134675000D01*
X156862738Y-134627380D01*
X157100833Y-134627380D01*
X157196071Y-134675000D01*
X157243690Y-134722619D01*
X157291309Y-134817857D01*
X157291309Y-134913095D01*
X157243690Y-135055952D01*
X156672261Y-135627380D01*
X157291309Y-135627380D01*
X158243690Y-135627380D02*
X157672261Y-135627380D01*
X157957976Y-135627380D02*
X157957976Y-134627380D01*
X157862738Y-134770238D01*
X157767500Y-134865476D01*
X157672261Y-134913095D01*
%TO.C,D11*%
X170235714Y-126182380D02*
X170235714Y-125182380D01*
X170473809Y-125182380D01*
X170616666Y-125230000D01*
X170711904Y-125325238D01*
X170759523Y-125420476D01*
X170807142Y-125610952D01*
X170807142Y-125753809D01*
X170759523Y-125944285D01*
X170711904Y-126039523D01*
X170616666Y-126134761D01*
X170473809Y-126182380D01*
X170235714Y-126182380D01*
X171759523Y-126182380D02*
X171188095Y-126182380D01*
X171473809Y-126182380D02*
X171473809Y-125182380D01*
X171378571Y-125325238D01*
X171283333Y-125420476D01*
X171188095Y-125468095D01*
X172711904Y-126182380D02*
X172140476Y-126182380D01*
X172426190Y-126182380D02*
X172426190Y-125182380D01*
X172330952Y-125325238D01*
X172235714Y-125420476D01*
X172140476Y-125468095D01*
%TO.C,D31*%
X170235714Y-146502380D02*
X170235714Y-145502380D01*
X170473809Y-145502380D01*
X170616666Y-145550000D01*
X170711904Y-145645238D01*
X170759523Y-145740476D01*
X170807142Y-145930952D01*
X170807142Y-146073809D01*
X170759523Y-146264285D01*
X170711904Y-146359523D01*
X170616666Y-146454761D01*
X170473809Y-146502380D01*
X170235714Y-146502380D01*
X171140476Y-145502380D02*
X171759523Y-145502380D01*
X171426190Y-145883333D01*
X171569047Y-145883333D01*
X171664285Y-145930952D01*
X171711904Y-145978571D01*
X171759523Y-146073809D01*
X171759523Y-146311904D01*
X171711904Y-146407142D01*
X171664285Y-146454761D01*
X171569047Y-146502380D01*
X171283333Y-146502380D01*
X171188095Y-146454761D01*
X171140476Y-146407142D01*
X172711904Y-146502380D02*
X172140476Y-146502380D01*
X172426190Y-146502380D02*
X172426190Y-145502380D01*
X172330952Y-145645238D01*
X172235714Y-145740476D01*
X172140476Y-145788095D01*
%TO.C,R21*%
X147312142Y-139517380D02*
X146978809Y-139041190D01*
X146740714Y-139517380D02*
X146740714Y-138517380D01*
X147121666Y-138517380D01*
X147216904Y-138565000D01*
X147264523Y-138612619D01*
X147312142Y-138707857D01*
X147312142Y-138850714D01*
X147264523Y-138945952D01*
X147216904Y-138993571D01*
X147121666Y-139041190D01*
X146740714Y-139041190D01*
X147693095Y-138612619D02*
X147740714Y-138565000D01*
X147835952Y-138517380D01*
X148074047Y-138517380D01*
X148169285Y-138565000D01*
X148216904Y-138612619D01*
X148264523Y-138707857D01*
X148264523Y-138803095D01*
X148216904Y-138945952D01*
X147645476Y-139517380D01*
X148264523Y-139517380D01*
X149216904Y-139517380D02*
X148645476Y-139517380D01*
X148931190Y-139517380D02*
X148931190Y-138517380D01*
X148835952Y-138660238D01*
X148740714Y-138755476D01*
X148645476Y-138803095D01*
%TO.C,JP22*%
X179792380Y-125261523D02*
X180506666Y-125261523D01*
X180649523Y-125309142D01*
X180744761Y-125404380D01*
X180792380Y-125547238D01*
X180792380Y-125642476D01*
X180792380Y-124785333D02*
X179792380Y-124785333D01*
X179792380Y-124404380D01*
X179840000Y-124309142D01*
X179887619Y-124261523D01*
X179982857Y-124213904D01*
X180125714Y-124213904D01*
X180220952Y-124261523D01*
X180268571Y-124309142D01*
X180316190Y-124404380D01*
X180316190Y-124785333D01*
X179887619Y-123832952D02*
X179840000Y-123785333D01*
X179792380Y-123690095D01*
X179792380Y-123452000D01*
X179840000Y-123356761D01*
X179887619Y-123309142D01*
X179982857Y-123261523D01*
X180078095Y-123261523D01*
X180220952Y-123309142D01*
X180792380Y-123880571D01*
X180792380Y-123261523D01*
X179887619Y-122880571D02*
X179840000Y-122832952D01*
X179792380Y-122737714D01*
X179792380Y-122499619D01*
X179840000Y-122404380D01*
X179887619Y-122356761D01*
X179982857Y-122309142D01*
X180078095Y-122309142D01*
X180220952Y-122356761D01*
X180792380Y-122928190D01*
X180792380Y-122309142D01*
%TO.C,J32*%
X207986380Y-145589523D02*
X208700666Y-145589523D01*
X208843523Y-145637142D01*
X208938761Y-145732380D01*
X208986380Y-145875238D01*
X208986380Y-145970476D01*
X207986380Y-145208571D02*
X207986380Y-144589523D01*
X208367333Y-144922857D01*
X208367333Y-144780000D01*
X208414952Y-144684761D01*
X208462571Y-144637142D01*
X208557809Y-144589523D01*
X208795904Y-144589523D01*
X208891142Y-144637142D01*
X208938761Y-144684761D01*
X208986380Y-144780000D01*
X208986380Y-145065714D01*
X208938761Y-145160952D01*
X208891142Y-145208571D01*
X208081619Y-144208571D02*
X208034000Y-144160952D01*
X207986380Y-144065714D01*
X207986380Y-143827619D01*
X208034000Y-143732380D01*
X208081619Y-143684761D01*
X208176857Y-143637142D01*
X208272095Y-143637142D01*
X208414952Y-143684761D01*
X208986380Y-144256190D01*
X208986380Y-143637142D01*
X206462380Y-145113333D02*
X206462380Y-144446666D01*
X207462380Y-145113333D01*
X207462380Y-144446666D01*
%TO.C,D1*%
X189761904Y-119705380D02*
X189761904Y-118705380D01*
X190000000Y-118705380D01*
X190142857Y-118753000D01*
X190238095Y-118848238D01*
X190285714Y-118943476D01*
X190333333Y-119133952D01*
X190333333Y-119276809D01*
X190285714Y-119467285D01*
X190238095Y-119562523D01*
X190142857Y-119657761D01*
X190000000Y-119705380D01*
X189761904Y-119705380D01*
X191285714Y-119705380D02*
X190714285Y-119705380D01*
X191000000Y-119705380D02*
X191000000Y-118705380D01*
X190904761Y-118848238D01*
X190809523Y-118943476D01*
X190714285Y-118991095D01*
%TO.C,R23*%
X166997142Y-131262380D02*
X166663809Y-130786190D01*
X166425714Y-131262380D02*
X166425714Y-130262380D01*
X166806666Y-130262380D01*
X166901904Y-130310000D01*
X166949523Y-130357619D01*
X166997142Y-130452857D01*
X166997142Y-130595714D01*
X166949523Y-130690952D01*
X166901904Y-130738571D01*
X166806666Y-130786190D01*
X166425714Y-130786190D01*
X167378095Y-130357619D02*
X167425714Y-130310000D01*
X167520952Y-130262380D01*
X167759047Y-130262380D01*
X167854285Y-130310000D01*
X167901904Y-130357619D01*
X167949523Y-130452857D01*
X167949523Y-130548095D01*
X167901904Y-130690952D01*
X167330476Y-131262380D01*
X167949523Y-131262380D01*
X168282857Y-130262380D02*
X168901904Y-130262380D01*
X168568571Y-130643333D01*
X168711428Y-130643333D01*
X168806666Y-130690952D01*
X168854285Y-130738571D01*
X168901904Y-130833809D01*
X168901904Y-131071904D01*
X168854285Y-131167142D01*
X168806666Y-131214761D01*
X168711428Y-131262380D01*
X168425714Y-131262380D01*
X168330476Y-131214761D01*
X168282857Y-131167142D01*
%TO.C,R33*%
X166997142Y-141422380D02*
X166663809Y-140946190D01*
X166425714Y-141422380D02*
X166425714Y-140422380D01*
X166806666Y-140422380D01*
X166901904Y-140470000D01*
X166949523Y-140517619D01*
X166997142Y-140612857D01*
X166997142Y-140755714D01*
X166949523Y-140850952D01*
X166901904Y-140898571D01*
X166806666Y-140946190D01*
X166425714Y-140946190D01*
X167330476Y-140422380D02*
X167949523Y-140422380D01*
X167616190Y-140803333D01*
X167759047Y-140803333D01*
X167854285Y-140850952D01*
X167901904Y-140898571D01*
X167949523Y-140993809D01*
X167949523Y-141231904D01*
X167901904Y-141327142D01*
X167854285Y-141374761D01*
X167759047Y-141422380D01*
X167473333Y-141422380D01*
X167378095Y-141374761D01*
X167330476Y-141327142D01*
X168282857Y-140422380D02*
X168901904Y-140422380D01*
X168568571Y-140803333D01*
X168711428Y-140803333D01*
X168806666Y-140850952D01*
X168854285Y-140898571D01*
X168901904Y-140993809D01*
X168901904Y-141231904D01*
X168854285Y-141327142D01*
X168806666Y-141374761D01*
X168711428Y-141422380D01*
X168425714Y-141422380D01*
X168330476Y-141374761D01*
X168282857Y-141327142D01*
%TO.C,JP12*%
X182332380Y-125149523D02*
X183046666Y-125149523D01*
X183189523Y-125197142D01*
X183284761Y-125292380D01*
X183332380Y-125435238D01*
X183332380Y-125530476D01*
X183332380Y-124673333D02*
X182332380Y-124673333D01*
X182332380Y-124292380D01*
X182380000Y-124197142D01*
X182427619Y-124149523D01*
X182522857Y-124101904D01*
X182665714Y-124101904D01*
X182760952Y-124149523D01*
X182808571Y-124197142D01*
X182856190Y-124292380D01*
X182856190Y-124673333D01*
X183332380Y-123149523D02*
X183332380Y-123720952D01*
X183332380Y-123435238D02*
X182332380Y-123435238D01*
X182475238Y-123530476D01*
X182570476Y-123625714D01*
X182618095Y-123720952D01*
X182427619Y-122768571D02*
X182380000Y-122720952D01*
X182332380Y-122625714D01*
X182332380Y-122387619D01*
X182380000Y-122292380D01*
X182427619Y-122244761D01*
X182522857Y-122197142D01*
X182618095Y-122197142D01*
X182760952Y-122244761D01*
X183332380Y-122816190D01*
X183332380Y-122197142D01*
%TO.C,JP11*%
X156170476Y-124420380D02*
X156170476Y-125134666D01*
X156122857Y-125277523D01*
X156027619Y-125372761D01*
X155884761Y-125420380D01*
X155789523Y-125420380D01*
X156646666Y-125420380D02*
X156646666Y-124420380D01*
X157027619Y-124420380D01*
X157122857Y-124468000D01*
X157170476Y-124515619D01*
X157218095Y-124610857D01*
X157218095Y-124753714D01*
X157170476Y-124848952D01*
X157122857Y-124896571D01*
X157027619Y-124944190D01*
X156646666Y-124944190D01*
X158170476Y-125420380D02*
X157599047Y-125420380D01*
X157884761Y-125420380D02*
X157884761Y-124420380D01*
X157789523Y-124563238D01*
X157694285Y-124658476D01*
X157599047Y-124706095D01*
X159122857Y-125420380D02*
X158551428Y-125420380D01*
X158837142Y-125420380D02*
X158837142Y-124420380D01*
X158741904Y-124563238D01*
X158646666Y-124658476D01*
X158551428Y-124706095D01*
%TO.C,D3*%
X181506904Y-114752380D02*
X181506904Y-113752380D01*
X181745000Y-113752380D01*
X181887857Y-113800000D01*
X181983095Y-113895238D01*
X182030714Y-113990476D01*
X182078333Y-114180952D01*
X182078333Y-114323809D01*
X182030714Y-114514285D01*
X181983095Y-114609523D01*
X181887857Y-114704761D01*
X181745000Y-114752380D01*
X181506904Y-114752380D01*
X182411666Y-113752380D02*
X183030714Y-113752380D01*
X182697380Y-114133333D01*
X182840238Y-114133333D01*
X182935476Y-114180952D01*
X182983095Y-114228571D01*
X183030714Y-114323809D01*
X183030714Y-114561904D01*
X182983095Y-114657142D01*
X182935476Y-114704761D01*
X182840238Y-114752380D01*
X182554523Y-114752380D01*
X182459285Y-114704761D01*
X182411666Y-114657142D01*
%TO.C,JP13*%
X182332380Y-120689523D02*
X183046666Y-120689523D01*
X183189523Y-120737142D01*
X183284761Y-120832380D01*
X183332380Y-120975238D01*
X183332380Y-121070476D01*
X183332380Y-120213333D02*
X182332380Y-120213333D01*
X182332380Y-119832380D01*
X182380000Y-119737142D01*
X182427619Y-119689523D01*
X182522857Y-119641904D01*
X182665714Y-119641904D01*
X182760952Y-119689523D01*
X182808571Y-119737142D01*
X182856190Y-119832380D01*
X182856190Y-120213333D01*
X183332380Y-118689523D02*
X183332380Y-119260952D01*
X183332380Y-118975238D02*
X182332380Y-118975238D01*
X182475238Y-119070476D01*
X182570476Y-119165714D01*
X182618095Y-119260952D01*
X182332380Y-118356190D02*
X182332380Y-117737142D01*
X182713333Y-118070476D01*
X182713333Y-117927619D01*
X182760952Y-117832380D01*
X182808571Y-117784761D01*
X182903809Y-117737142D01*
X183141904Y-117737142D01*
X183237142Y-117784761D01*
X183284761Y-117832380D01*
X183332380Y-117927619D01*
X183332380Y-118213333D01*
X183284761Y-118308571D01*
X183237142Y-118356190D01*
%TO.C,F1*%
X182456666Y-103052571D02*
X182123333Y-103052571D01*
X182123333Y-103576380D02*
X182123333Y-102576380D01*
X182599523Y-102576380D01*
X183504285Y-103576380D02*
X182932857Y-103576380D01*
X183218571Y-103576380D02*
X183218571Y-102576380D01*
X183123333Y-102719238D01*
X183028095Y-102814476D01*
X182932857Y-102862095D01*
%TO.C,JP3*%
X160107380Y-150633308D02*
X160821666Y-150633308D01*
X160964523Y-150680927D01*
X161059761Y-150776165D01*
X161107380Y-150919022D01*
X161107380Y-151014260D01*
X161107380Y-150157117D02*
X160107380Y-150157117D01*
X160107380Y-149776165D01*
X160155000Y-149680927D01*
X160202619Y-149633308D01*
X160297857Y-149585689D01*
X160440714Y-149585689D01*
X160535952Y-149633308D01*
X160583571Y-149680927D01*
X160631190Y-149776165D01*
X160631190Y-150157117D01*
X160107380Y-149252355D02*
X160107380Y-148633308D01*
X160488333Y-148966641D01*
X160488333Y-148823784D01*
X160535952Y-148728546D01*
X160583571Y-148680927D01*
X160678809Y-148633308D01*
X160916904Y-148633308D01*
X161012142Y-148680927D01*
X161059761Y-148728546D01*
X161107380Y-148823784D01*
X161107380Y-149109498D01*
X161059761Y-149204736D01*
X161012142Y-149252355D01*
X161059761Y-147875476D02*
X161107380Y-147732619D01*
X161107380Y-147494523D01*
X161059761Y-147399285D01*
X161012142Y-147351666D01*
X160916904Y-147304047D01*
X160821666Y-147304047D01*
X160726428Y-147351666D01*
X160678809Y-147399285D01*
X160631190Y-147494523D01*
X160583571Y-147685000D01*
X160535952Y-147780238D01*
X160488333Y-147827857D01*
X160393095Y-147875476D01*
X160297857Y-147875476D01*
X160202619Y-147827857D01*
X160155000Y-147780238D01*
X160107380Y-147685000D01*
X160107380Y-147446904D01*
X160155000Y-147304047D01*
X160583571Y-146542142D02*
X160583571Y-146875476D01*
X161107380Y-146875476D02*
X160107380Y-146875476D01*
X160107380Y-146399285D01*
X160107380Y-145827857D02*
X160107380Y-145732619D01*
X160155000Y-145637380D01*
X160202619Y-145589761D01*
X160297857Y-145542142D01*
X160488333Y-145494523D01*
X160726428Y-145494523D01*
X160916904Y-145542142D01*
X161012142Y-145589761D01*
X161059761Y-145637380D01*
X161107380Y-145732619D01*
X161107380Y-145827857D01*
X161059761Y-145923095D01*
X161012142Y-145970714D01*
X160916904Y-146018333D01*
X160726428Y-146065952D01*
X160488333Y-146065952D01*
X160297857Y-146018333D01*
X160202619Y-145970714D01*
X160155000Y-145923095D01*
X160107380Y-145827857D01*
D12*
%TO.C,JP32*%
X175530000Y-135985000D02*
X175530000Y-134585000D01*
X176230000Y-133885000D02*
X176830000Y-133885000D01*
X177530000Y-134585000D02*
X177530000Y-135985000D01*
X176830000Y-136685000D02*
X176230000Y-136685000D01*
X175530000Y-135985000D02*
G75*
G03*
X176230000Y-136685000I700000J0D01*
G01*
X176230000Y-133885000D02*
G75*
G03*
X175530000Y-134585000I-1J-699999D01*
G01*
X176830000Y-136685000D02*
G75*
G03*
X177530000Y-135985000I0J700000D01*
G01*
X177530000Y-134585000D02*
G75*
G03*
X176830000Y-133885000I-699999J1D01*
G01*
%TO.C,JP5*%
X155940000Y-146555000D02*
X155940000Y-149355000D01*
X155240000Y-150005000D02*
X154640000Y-150005000D01*
X153940000Y-149355000D02*
X153940000Y-146555000D01*
X154640000Y-145905000D02*
X155240000Y-145905000D01*
X155940000Y-146605000D02*
G75*
G03*
X155240000Y-145905000I-699999J1D01*
G01*
X153940000Y-149305000D02*
G75*
G03*
X154640000Y-150005000I700000J0D01*
G01*
X154640000Y-145905000D02*
G75*
G03*
X153940000Y-146605000I-1J-699999D01*
G01*
X155240000Y-150005000D02*
G75*
G03*
X155940000Y-149305000I0J700000D01*
G01*
%TO.C,Q1*%
X157440000Y-112540000D02*
X167680000Y-112540000D01*
X164411000Y-111030000D02*
X164411000Y-112540000D01*
X167680000Y-111030000D02*
X167680000Y-115671000D01*
X157440000Y-111030000D02*
X157440000Y-115671000D01*
X157440000Y-115671000D02*
X167680000Y-115671000D01*
X157440000Y-111030000D02*
X167680000Y-111030000D01*
X160710000Y-111030000D02*
X160710000Y-112540000D01*
%TO.C,J11*%
X121070000Y-119320000D02*
X121070000Y-129600000D01*
X123130000Y-119320000D02*
X123130000Y-129600000D01*
X127005000Y-128070000D02*
X126969000Y-128035000D01*
X124707000Y-125773000D02*
X124661000Y-125726000D01*
X126799000Y-128275000D02*
X126753000Y-128228000D01*
X120830000Y-119080000D02*
X120830000Y-119580000D01*
X130991000Y-129600000D02*
X121070000Y-129600000D01*
X121570000Y-119080000D02*
X120830000Y-119080000D01*
X130991000Y-119320000D02*
X121070000Y-119320000D01*
X121630000Y-119320000D02*
X121630000Y-129600000D01*
X124491000Y-125966000D02*
X124456000Y-125931000D01*
X130991000Y-119320000D02*
X130991000Y-129600000D01*
X128031000Y-119320000D02*
X128031000Y-129600000D01*
X125046000Y-123455001D02*
G75*
G03*
X126413042Y-123455427I684000J1535001D01*
G01*
X127265000Y-122604000D02*
G75*
G03*
X127265427Y-121236958I-1534993J684001D01*
G01*
X124195000Y-121236000D02*
G75*
G03*
X124049747Y-121948805I1535001J-683999D01*
G01*
X126414000Y-120385000D02*
G75*
G03*
X125046958Y-120384573I-684001J-1534993D01*
G01*
X124050000Y-121920000D02*
G75*
G03*
X124195244Y-122603318I1680000J0D01*
G01*
X127410000Y-127000000D02*
G75*
G03*
X127410000Y-127000000I-1680000J0D01*
G01*
%TO.C,C2*%
X171550000Y-115630000D02*
X171550000Y-110390000D01*
X168810000Y-115630000D02*
X168810000Y-110390000D01*
X168810000Y-110390000D02*
X171550000Y-110390000D01*
X168810000Y-115630000D02*
X171550000Y-115630000D01*
%TO.C,JP1*%
X151430000Y-150005000D02*
X150830000Y-150005000D01*
X152130000Y-146555000D02*
X152130000Y-149355000D01*
X150130000Y-149355000D02*
X150130000Y-146555000D01*
X150830000Y-145905000D02*
X151430000Y-145905000D01*
X151430000Y-150005000D02*
G75*
G03*
X152130000Y-149305000I0J700000D01*
G01*
X150830000Y-145905000D02*
G75*
G03*
X150130000Y-146605000I-1J-699999D01*
G01*
X152130000Y-146605000D02*
G75*
G03*
X151430000Y-145905000I-699999J1D01*
G01*
X150130000Y-149305000D02*
G75*
G03*
X150830000Y-150005000I700000J0D01*
G01*
%TO.C,D2*%
X201261000Y-114005000D02*
X201105000Y-114005000D01*
X198945000Y-114005000D02*
X198789000Y-114005000D01*
X201103608Y-117237335D02*
G75*
G03*
X201260516Y-114005000I-1078608J1672335D01*
G01*
X198789484Y-114005000D02*
G75*
G03*
X198946392Y-117237335I1235516J-1560000D01*
G01*
X201104837Y-116606130D02*
G75*
G03*
X201105000Y-114524039I-1079837J1041130D01*
G01*
X198945000Y-114524039D02*
G75*
G03*
X198945163Y-116606130I1080000J-1040961D01*
G01*
%TO.C,R13*%
X163600000Y-123190000D02*
X164370000Y-123190000D01*
X164370000Y-124560000D02*
X170910000Y-124560000D01*
X170910000Y-124560000D02*
X170910000Y-121820000D01*
X170910000Y-121820000D02*
X164370000Y-121820000D01*
X171680000Y-123190000D02*
X170910000Y-123190000D01*
X164370000Y-121820000D02*
X164370000Y-124560000D01*
%TO.C,D21*%
X169200000Y-136080000D02*
X169200000Y-135924000D01*
X169200000Y-138396000D02*
X169200000Y-138240000D01*
X166598870Y-138239837D02*
G75*
G03*
X168680961Y-138240000I1041130J1079837D01*
G01*
X168680961Y-136080000D02*
G75*
G03*
X166598870Y-136080163I-1040961J-1080000D01*
G01*
X169200000Y-135924484D02*
G75*
G03*
X165967665Y-136081392I-1560000J-1235516D01*
G01*
X165967665Y-138238608D02*
G75*
G03*
X169200000Y-138395516I1672335J1078608D01*
G01*
%TO.C,J21*%
X126799000Y-138435000D02*
X126753000Y-138388000D01*
X128031000Y-129480000D02*
X128031000Y-139760000D01*
X120830000Y-129240000D02*
X120830000Y-129740000D01*
X127005000Y-138230000D02*
X126969000Y-138195000D01*
X124707000Y-135933000D02*
X124661000Y-135886000D01*
X121070000Y-129480000D02*
X121070000Y-139760000D01*
X130991000Y-139760000D02*
X121070000Y-139760000D01*
X130991000Y-129480000D02*
X130991000Y-139760000D01*
X121570000Y-129240000D02*
X120830000Y-129240000D01*
X130991000Y-129480000D02*
X121070000Y-129480000D01*
X121630000Y-129480000D02*
X121630000Y-139760000D01*
X124491000Y-136126000D02*
X124456000Y-136091000D01*
X123130000Y-129480000D02*
X123130000Y-139760000D01*
X126414000Y-130545000D02*
G75*
G03*
X125046958Y-130544573I-684001J-1534993D01*
G01*
X125046000Y-133615001D02*
G75*
G03*
X126413042Y-133615427I684000J1535001D01*
G01*
X124050000Y-132080000D02*
G75*
G03*
X124195244Y-132763318I1680000J0D01*
G01*
X124195000Y-131396000D02*
G75*
G03*
X124049747Y-132108805I1535001J-683999D01*
G01*
X127265000Y-132764000D02*
G75*
G03*
X127265427Y-131396958I-1534993J684001D01*
G01*
X127410000Y-137160000D02*
G75*
G03*
X127410000Y-137160000I-1680000J0D01*
G01*
%TO.C,C5*%
X173890000Y-125830000D02*
X176630000Y-125830000D01*
X173890000Y-120590000D02*
X176630000Y-120590000D01*
X176630000Y-125830000D02*
X176630000Y-120590000D01*
X173890000Y-125830000D02*
X173890000Y-120590000D01*
%TO.C,J12*%
X209369000Y-129600000D02*
X209369000Y-119320000D01*
X219530000Y-129840000D02*
X219530000Y-129340000D01*
X212329000Y-129600000D02*
X212329000Y-119320000D01*
X215869000Y-122954000D02*
X215904000Y-122989000D01*
X215653000Y-123147000D02*
X215699000Y-123194000D01*
X217230000Y-129600000D02*
X217230000Y-119320000D01*
X219290000Y-129600000D02*
X219290000Y-119320000D01*
X209369000Y-129600000D02*
X219290000Y-129600000D01*
X218730000Y-129600000D02*
X218730000Y-119320000D01*
X213355000Y-120850000D02*
X213391000Y-120885000D01*
X209369000Y-119320000D02*
X219290000Y-119320000D01*
X218790000Y-129840000D02*
X219530000Y-129840000D01*
X213561000Y-120645000D02*
X213607000Y-120692000D01*
X215314000Y-125464999D02*
G75*
G03*
X213946958Y-125464573I-684000J-1535001D01*
G01*
X213095000Y-126316000D02*
G75*
G03*
X213094573Y-127683042I1534993J-684001D01*
G01*
X216310000Y-127000000D02*
G75*
G03*
X216164756Y-126316682I-1680000J0D01*
G01*
X213946000Y-128535000D02*
G75*
G03*
X215313042Y-128535427I684001J1534993D01*
G01*
X216165000Y-127684000D02*
G75*
G03*
X216310253Y-126971195I-1535001J683999D01*
G01*
X216310000Y-121920000D02*
G75*
G03*
X216310000Y-121920000I-1680000J0D01*
G01*
%TO.C,R1*%
X193770000Y-115035000D02*
X193770000Y-112295000D01*
X194540000Y-113665000D02*
X193770000Y-113665000D01*
X187230000Y-115035000D02*
X193770000Y-115035000D01*
X187230000Y-112295000D02*
X187230000Y-115035000D01*
X193770000Y-112295000D02*
X187230000Y-112295000D01*
X186460000Y-113665000D02*
X187230000Y-113665000D01*
%TO.C,JP23*%
X176800000Y-121380000D02*
X176800000Y-119980000D01*
X177500000Y-119280000D02*
X178100000Y-119280000D01*
X178100000Y-122080000D02*
X177500000Y-122080000D01*
X178800000Y-119980000D02*
X178800000Y-121380000D01*
X177500000Y-119280000D02*
G75*
G03*
X176800000Y-119980000I0J-700000D01*
G01*
X178800000Y-119980000D02*
G75*
G03*
X178100000Y-119280000I-700000J0D01*
G01*
X176800000Y-121380000D02*
G75*
G03*
X177500000Y-122080000I699999J-1D01*
G01*
X178100000Y-122080000D02*
G75*
G03*
X178800000Y-121380000I1J699999D01*
G01*
%TO.C,J2*%
X130991000Y-104080000D02*
X130991000Y-119440000D01*
X121630000Y-104080000D02*
X121630000Y-119440000D01*
X121070000Y-104080000D02*
X121070000Y-119440000D01*
X121570000Y-103840000D02*
X120830000Y-103840000D01*
X130991000Y-119440000D02*
X121070000Y-119440000D01*
X124491000Y-115806000D02*
X124456000Y-115771000D01*
X120830000Y-103840000D02*
X120830000Y-104340000D01*
X127005000Y-112830000D02*
X126969000Y-112795000D01*
X123130000Y-104080000D02*
X123130000Y-119440000D01*
X130991000Y-104080000D02*
X121070000Y-104080000D01*
X124707000Y-115613000D02*
X124661000Y-115566000D01*
X126799000Y-113035000D02*
X126753000Y-112988000D01*
X128031000Y-104080000D02*
X128031000Y-119440000D01*
X124491000Y-110726000D02*
X124456000Y-110691000D01*
X124707000Y-110533000D02*
X124661000Y-110486000D01*
X126799000Y-118115000D02*
X126753000Y-118068000D01*
X127005000Y-117910000D02*
X126969000Y-117875000D01*
X125046000Y-108215001D02*
G75*
G03*
X126413042Y-108215427I684000J1535001D01*
G01*
X127265000Y-107364000D02*
G75*
G03*
X127265427Y-105996958I-1534993J684001D01*
G01*
X126414000Y-105145000D02*
G75*
G03*
X125046958Y-105144573I-684001J-1534993D01*
G01*
X124050000Y-106680000D02*
G75*
G03*
X124195244Y-107363318I1680000J0D01*
G01*
X124195000Y-105996000D02*
G75*
G03*
X124049747Y-106708805I1535001J-683999D01*
G01*
X127410000Y-111760000D02*
G75*
G03*
X127410000Y-111760000I-1680000J0D01*
G01*
X127410000Y-116840000D02*
G75*
G03*
X127410000Y-116840000I-1680000J0D01*
G01*
%TO.C,JP4*%
X157750000Y-149385000D02*
X157750000Y-146585000D01*
X159050000Y-150035000D02*
X158450000Y-150035000D01*
X158450000Y-145935000D02*
X159050000Y-145935000D01*
X159750000Y-146585000D02*
X159750000Y-149385000D01*
X158450000Y-145935000D02*
G75*
G03*
X157750000Y-146635000I-1J-699999D01*
G01*
X157750000Y-149335000D02*
G75*
G03*
X158450000Y-150035000I700000J0D01*
G01*
X159750000Y-146635000D02*
G75*
G03*
X159050000Y-145935000I-699999J1D01*
G01*
X159050000Y-150035000D02*
G75*
G03*
X159750000Y-149335000I0J700000D01*
G01*
%TO.C,C3*%
X158650000Y-123885000D02*
X158650000Y-118645000D01*
X161390000Y-123885000D02*
X161390000Y-118645000D01*
X158650000Y-123885000D02*
X161390000Y-123885000D01*
X158650000Y-118645000D02*
X161390000Y-118645000D01*
%TO.C,U1*%
X159595000Y-129540000D02*
X159595000Y-127340000D01*
X152825000Y-129540000D02*
X152825000Y-127340000D01*
X152825000Y-129540000D02*
X152825000Y-133140000D01*
X159595000Y-129540000D02*
X159595000Y-131740000D01*
%TO.C,J22*%
X217230000Y-139760000D02*
X217230000Y-129480000D01*
X215653000Y-133307000D02*
X215699000Y-133354000D01*
X215869000Y-133114000D02*
X215904000Y-133149000D01*
X213355000Y-131010000D02*
X213391000Y-131045000D01*
X213561000Y-130805000D02*
X213607000Y-130852000D01*
X209369000Y-139760000D02*
X219290000Y-139760000D01*
X219290000Y-139760000D02*
X219290000Y-129480000D01*
X209369000Y-139760000D02*
X209369000Y-129480000D01*
X209369000Y-129480000D02*
X219290000Y-129480000D01*
X219530000Y-140000000D02*
X219530000Y-139500000D01*
X218790000Y-140000000D02*
X219530000Y-140000000D01*
X212329000Y-139760000D02*
X212329000Y-129480000D01*
X218730000Y-139760000D02*
X218730000Y-129480000D01*
X216310000Y-137160000D02*
G75*
G03*
X216164756Y-136476682I-1680000J0D01*
G01*
X215314000Y-135624999D02*
G75*
G03*
X213946958Y-135624573I-684000J-1535001D01*
G01*
X213946000Y-138695000D02*
G75*
G03*
X215313042Y-138695427I684001J1534993D01*
G01*
X213095000Y-136476000D02*
G75*
G03*
X213094573Y-137843042I1534993J-684001D01*
G01*
X216165000Y-137844000D02*
G75*
G03*
X216310253Y-137131195I-1535001J683999D01*
G01*
X216310000Y-132080000D02*
G75*
G03*
X216310000Y-132080000I-1680000J0D01*
G01*
%TO.C,J31*%
X121070000Y-139640000D02*
X121070000Y-149920000D01*
X127005000Y-148390000D02*
X126969000Y-148355000D01*
X121630000Y-139640000D02*
X121630000Y-149920000D01*
X130991000Y-139640000D02*
X121070000Y-139640000D01*
X120830000Y-139400000D02*
X120830000Y-139900000D01*
X128031000Y-139640000D02*
X128031000Y-149920000D01*
X124491000Y-146286000D02*
X124456000Y-146251000D01*
X121570000Y-139400000D02*
X120830000Y-139400000D01*
X123130000Y-139640000D02*
X123130000Y-149920000D01*
X130991000Y-139640000D02*
X130991000Y-149920000D01*
X124707000Y-146093000D02*
X124661000Y-146046000D01*
X130991000Y-149920000D02*
X121070000Y-149920000D01*
X126799000Y-148595000D02*
X126753000Y-148548000D01*
X124195000Y-141556000D02*
G75*
G03*
X124049747Y-142268805I1535001J-683999D01*
G01*
X125046000Y-143775001D02*
G75*
G03*
X126413042Y-143775427I684000J1535001D01*
G01*
X126414000Y-140705000D02*
G75*
G03*
X125046958Y-140704573I-684001J-1534993D01*
G01*
X127265000Y-142924000D02*
G75*
G03*
X127265427Y-141556958I-1534993J684001D01*
G01*
X124050000Y-142240000D02*
G75*
G03*
X124195244Y-142923318I1680000J0D01*
G01*
X127410000Y-147320000D02*
G75*
G03*
X127410000Y-147320000I-1680000J0D01*
G01*
%TO.C,C4*%
X156110000Y-123885000D02*
X156110000Y-118645000D01*
X156110000Y-123885000D02*
X158850000Y-123885000D01*
X158850000Y-123885000D02*
X158850000Y-118645000D01*
X156110000Y-118645000D02*
X158850000Y-118645000D01*
%TO.C,JP33*%
X176230000Y-137075000D02*
X176830000Y-137075000D01*
X175530000Y-139175000D02*
X175530000Y-137775000D01*
X177530000Y-137775000D02*
X177530000Y-139175000D01*
X176830000Y-139875000D02*
X176230000Y-139875000D01*
X177530000Y-137775000D02*
G75*
G03*
X176830000Y-137075000I-699999J1D01*
G01*
X175530000Y-139175000D02*
G75*
G03*
X176230000Y-139875000I700000J0D01*
G01*
X176830000Y-139875000D02*
G75*
G03*
X177530000Y-139175000I0J700000D01*
G01*
X176230000Y-137075000D02*
G75*
G03*
X175530000Y-137775000I-1J-699999D01*
G01*
%TO.C,J1*%
X215653000Y-107907000D02*
X215699000Y-107954000D01*
X215653000Y-112987000D02*
X215699000Y-113034000D01*
X213561000Y-110485000D02*
X213607000Y-110532000D01*
X212329000Y-119440000D02*
X212329000Y-104080000D01*
X219290000Y-119440000D02*
X219290000Y-104080000D01*
X209369000Y-119440000D02*
X209369000Y-104080000D01*
X215869000Y-112794000D02*
X215904000Y-112829000D01*
X219530000Y-119680000D02*
X219530000Y-119180000D01*
X217230000Y-119440000D02*
X217230000Y-104080000D01*
X215869000Y-107714000D02*
X215904000Y-107749000D01*
X213561000Y-105405000D02*
X213607000Y-105452000D01*
X218790000Y-119680000D02*
X219530000Y-119680000D01*
X209369000Y-104080000D02*
X219290000Y-104080000D01*
X209369000Y-119440000D02*
X219290000Y-119440000D01*
X213355000Y-105610000D02*
X213391000Y-105645000D01*
X218730000Y-119440000D02*
X218730000Y-104080000D01*
X213355000Y-110690000D02*
X213391000Y-110725000D01*
X215314000Y-115304999D02*
G75*
G03*
X213946958Y-115304573I-684000J-1535001D01*
G01*
X216310000Y-116840000D02*
G75*
G03*
X216164756Y-116156682I-1680000J0D01*
G01*
X213095000Y-116156000D02*
G75*
G03*
X213094573Y-117523042I1534993J-684001D01*
G01*
X213946000Y-118375000D02*
G75*
G03*
X215313042Y-118375427I684001J1534993D01*
G01*
X216165000Y-117524000D02*
G75*
G03*
X216310253Y-116811195I-1535001J683999D01*
G01*
X216310000Y-111760000D02*
G75*
G03*
X216310000Y-111760000I-1680000J0D01*
G01*
X216310000Y-106680000D02*
G75*
G03*
X216310000Y-106680000I-1680000J0D01*
G01*
%TO.C,C1*%
X153267000Y-109691000D02*
X150900000Y-109691000D01*
X152265000Y-110931000D02*
X147455000Y-110931000D01*
X148820000Y-109411000D02*
X146324000Y-109411000D01*
X151874000Y-111211000D02*
X147846000Y-111211000D01*
X148820000Y-108731000D02*
X146113000Y-108731000D01*
X153644000Y-108530000D02*
X150900000Y-108530000D01*
X148820000Y-108971000D02*
X146172000Y-108971000D01*
X153687000Y-108090000D02*
X146033000Y-108090000D01*
X153607000Y-108731000D02*
X150900000Y-108731000D01*
X152650000Y-110571000D02*
X147070000Y-110571000D01*
X152918000Y-110251000D02*
X146802000Y-110251000D01*
X153670000Y-108330000D02*
X150900000Y-108330000D01*
X153665000Y-108370000D02*
X150900000Y-108370000D01*
X148820000Y-108610000D02*
X146090000Y-108610000D01*
X148820000Y-109531000D02*
X146376000Y-109531000D01*
X148820000Y-109491000D02*
X146358000Y-109491000D01*
X148820000Y-108891000D02*
X146150000Y-108891000D01*
X153690000Y-107970000D02*
X146030000Y-107970000D01*
X153650000Y-108490000D02*
X150900000Y-108490000D01*
X153683000Y-108170000D02*
X150900000Y-108170000D01*
X148820000Y-109251000D02*
X146262000Y-109251000D01*
X152824000Y-110371000D02*
X146896000Y-110371000D01*
X153623000Y-108651000D02*
X150900000Y-108651000D01*
X148820000Y-109931000D02*
X146586000Y-109931000D01*
X152110000Y-111051000D02*
X147610000Y-111051000D01*
X153513000Y-109091000D02*
X150900000Y-109091000D01*
X153380000Y-109451000D02*
X150900000Y-109451000D01*
X153326000Y-109571000D02*
X150900000Y-109571000D01*
X153225000Y-109771000D02*
X150900000Y-109771000D01*
X153690000Y-107930000D02*
X146030000Y-107930000D01*
X148820000Y-108530000D02*
X146076000Y-108530000D01*
X148820000Y-108290000D02*
X146046000Y-108290000D01*
X153203000Y-109811000D02*
X150900000Y-109811000D01*
X152314000Y-110891000D02*
X147406000Y-110891000D01*
X148820000Y-109691000D02*
X146453000Y-109691000D01*
X148820000Y-108370000D02*
X146055000Y-108370000D01*
X153655000Y-108450000D02*
X150900000Y-108450000D01*
X148820000Y-109651000D02*
X146433000Y-109651000D01*
X153589000Y-108811000D02*
X150900000Y-108811000D01*
X152055000Y-111091000D02*
X147665000Y-111091000D01*
X148820000Y-109131000D02*
X146220000Y-109131000D01*
X148820000Y-109811000D02*
X146517000Y-109811000D01*
X152791000Y-110411000D02*
X146929000Y-110411000D01*
X153680000Y-108210000D02*
X150900000Y-108210000D01*
X153486000Y-109171000D02*
X150900000Y-109171000D01*
X153580000Y-108851000D02*
X150900000Y-108851000D01*
X152758000Y-110451000D02*
X146962000Y-110451000D01*
X151593000Y-111371000D02*
X148127000Y-111371000D01*
X152492000Y-110731000D02*
X147228000Y-110731000D01*
X152410000Y-104162789D02*
X151660000Y-104162789D01*
X153598000Y-108771000D02*
X150900000Y-108771000D01*
X153287000Y-109651000D02*
X150900000Y-109651000D01*
X148820000Y-109611000D02*
X146413000Y-109611000D01*
X148820000Y-109331000D02*
X146292000Y-109331000D01*
X148820000Y-108771000D02*
X146122000Y-108771000D01*
X153689000Y-108050000D02*
X146031000Y-108050000D01*
X148820000Y-109091000D02*
X146207000Y-109091000D01*
X148820000Y-109371000D02*
X146307000Y-109371000D01*
X153428000Y-109331000D02*
X150900000Y-109331000D01*
X153630000Y-108610000D02*
X150900000Y-108610000D01*
X152164000Y-111011000D02*
X147556000Y-111011000D01*
X148820000Y-110171000D02*
X146744000Y-110171000D01*
X153058000Y-110051000D02*
X150900000Y-110051000D01*
X148820000Y-108330000D02*
X146050000Y-108330000D01*
X153344000Y-109531000D02*
X150900000Y-109531000D01*
X148820000Y-109771000D02*
X146495000Y-109771000D01*
X148820000Y-109571000D02*
X146394000Y-109571000D01*
X148820000Y-108410000D02*
X146059000Y-108410000D01*
X153246000Y-109731000D02*
X150900000Y-109731000D01*
X152533000Y-110691000D02*
X147187000Y-110691000D01*
X148820000Y-109291000D02*
X146276000Y-109291000D01*
X148820000Y-109171000D02*
X146234000Y-109171000D01*
X148820000Y-108450000D02*
X146065000Y-108450000D01*
X151429000Y-111451000D02*
X148291000Y-111451000D01*
X148820000Y-110091000D02*
X146688000Y-110091000D01*
X152687000Y-110531000D02*
X147033000Y-110531000D01*
X152215000Y-110971000D02*
X147505000Y-110971000D01*
X152449000Y-110771000D02*
X147271000Y-110771000D01*
X148820000Y-110211000D02*
X146772000Y-110211000D01*
X151241000Y-111531000D02*
X148479000Y-111531000D01*
X153032000Y-110091000D02*
X150900000Y-110091000D01*
X153134000Y-109931000D02*
X150900000Y-109931000D01*
X153500000Y-109131000D02*
X150900000Y-109131000D01*
X153004000Y-110131000D02*
X150900000Y-110131000D01*
X153690000Y-108010000D02*
X146030000Y-108010000D01*
X148820000Y-109051000D02*
X146195000Y-109051000D01*
X153537000Y-109011000D02*
X150900000Y-109011000D01*
X152035000Y-103787789D02*
X152035000Y-104537789D01*
X153570000Y-108891000D02*
X150900000Y-108891000D01*
X152360000Y-110851000D02*
X147360000Y-110851000D01*
X153661000Y-108410000D02*
X150900000Y-108410000D01*
X152612000Y-110611000D02*
X147108000Y-110611000D01*
X153685000Y-108130000D02*
X146035000Y-108130000D01*
X152573000Y-110651000D02*
X147147000Y-110651000D01*
X153548000Y-108971000D02*
X150900000Y-108971000D01*
X148820000Y-110011000D02*
X146636000Y-110011000D01*
X152888000Y-110291000D02*
X146832000Y-110291000D01*
X153473000Y-109211000D02*
X150900000Y-109211000D01*
X153362000Y-109491000D02*
X150900000Y-109491000D01*
X151741000Y-111291000D02*
X147979000Y-111291000D01*
X148820000Y-108851000D02*
X146140000Y-108851000D01*
X148820000Y-109211000D02*
X146247000Y-109211000D01*
X152856000Y-110331000D02*
X146864000Y-110331000D01*
X152948000Y-110211000D02*
X150900000Y-110211000D01*
X148820000Y-109971000D02*
X146611000Y-109971000D01*
X148820000Y-108931000D02*
X146161000Y-108931000D01*
X148820000Y-109731000D02*
X146474000Y-109731000D01*
X148820000Y-109011000D02*
X146183000Y-109011000D01*
X151937000Y-111171000D02*
X147783000Y-111171000D01*
X153396000Y-109411000D02*
X150900000Y-109411000D01*
X153674000Y-108290000D02*
X150900000Y-108290000D01*
X153413000Y-109371000D02*
X150900000Y-109371000D01*
X153525000Y-109051000D02*
X150900000Y-109051000D01*
X152406000Y-110811000D02*
X147314000Y-110811000D01*
X152723000Y-110491000D02*
X146997000Y-110491000D01*
X153559000Y-108931000D02*
X150900000Y-108931000D01*
X150553000Y-111731000D02*
X149167000Y-111731000D01*
X148820000Y-108490000D02*
X146070000Y-108490000D01*
X148820000Y-108250000D02*
X146043000Y-108250000D01*
X153307000Y-109611000D02*
X150900000Y-109611000D01*
X148820000Y-110051000D02*
X146662000Y-110051000D01*
X153157000Y-109891000D02*
X150900000Y-109891000D01*
X153458000Y-109251000D02*
X150900000Y-109251000D01*
X153615000Y-108691000D02*
X150900000Y-108691000D01*
X150888000Y-111651000D02*
X148832000Y-111651000D01*
X148820000Y-108570000D02*
X146083000Y-108570000D01*
X151338000Y-111491000D02*
X148382000Y-111491000D01*
X148820000Y-109451000D02*
X146340000Y-109451000D01*
X150737000Y-111691000D02*
X148983000Y-111691000D01*
X151135000Y-111571000D02*
X148585000Y-111571000D01*
X151018000Y-111611000D02*
X148702000Y-111611000D01*
X148820000Y-108691000D02*
X146105000Y-108691000D01*
X153637000Y-108570000D02*
X150900000Y-108570000D01*
X153444000Y-109291000D02*
X150900000Y-109291000D01*
X148820000Y-108811000D02*
X146131000Y-108811000D01*
X148820000Y-109851000D02*
X146539000Y-109851000D01*
X153084000Y-110011000D02*
X150900000Y-110011000D01*
X148820000Y-108210000D02*
X146040000Y-108210000D01*
X148820000Y-108170000D02*
X146037000Y-108170000D01*
X152976000Y-110171000D02*
X150900000Y-110171000D01*
X151514000Y-111411000D02*
X148206000Y-111411000D01*
X148820000Y-109891000D02*
X146563000Y-109891000D01*
X148820000Y-110131000D02*
X146716000Y-110131000D01*
X153677000Y-108250000D02*
X150900000Y-108250000D01*
X151809000Y-111251000D02*
X147911000Y-111251000D01*
X153181000Y-109851000D02*
X150900000Y-109851000D01*
X151997000Y-111131000D02*
X147723000Y-111131000D01*
X153109000Y-109971000D02*
X150900000Y-109971000D01*
X148820000Y-108651000D02*
X146097000Y-108651000D01*
X151669000Y-111331000D02*
X148051000Y-111331000D01*
X150301000Y-111771000D02*
X149419000Y-111771000D01*
X153730000Y-107930000D02*
G75*
G03*
X153730000Y-107930000I-3870000J0D01*
G01*
%TO.C,JP2*%
X148320000Y-146585000D02*
X148320000Y-149385000D01*
X147020000Y-145935000D02*
X147620000Y-145935000D01*
X146320000Y-149385000D02*
X146320000Y-146585000D01*
X147620000Y-150035000D02*
X147020000Y-150035000D01*
X147020000Y-145935000D02*
G75*
G03*
X146320000Y-146635000I-1J-699999D01*
G01*
X148320000Y-146635000D02*
G75*
G03*
X147620000Y-145935000I-699999J1D01*
G01*
X147620000Y-150035000D02*
G75*
G03*
X148320000Y-149335000I0J700000D01*
G01*
X146320000Y-149335000D02*
G75*
G03*
X147020000Y-150035000I700000J0D01*
G01*
%TO.C,U2*%
X175915000Y-129570000D02*
X175915000Y-127620000D01*
X186035000Y-129570000D02*
X186035000Y-131520000D01*
X175915000Y-129570000D02*
X175915000Y-131520000D01*
X186035000Y-129570000D02*
X186035000Y-126120000D01*
%TO.C,R22*%
X151130000Y-139165000D02*
X151130000Y-139235000D01*
X152500000Y-137795000D02*
G75*
G03*
X152500000Y-137795000I-1370000J0D01*
G01*
%TO.C,R3*%
X144685000Y-116940000D02*
X151225000Y-116940000D01*
X151225000Y-114200000D02*
X144685000Y-114200000D01*
X144685000Y-114200000D02*
X144685000Y-116940000D01*
X151225000Y-116940000D02*
X151225000Y-114200000D01*
X143915000Y-115570000D02*
X144685000Y-115570000D01*
X151995000Y-115570000D02*
X151225000Y-115570000D01*
%TO.C,J3*%
X134320000Y-131540000D02*
X132820000Y-131540000D01*
X134320000Y-126540000D02*
X136320000Y-126540000D01*
D13*
X133570000Y-137840000D02*
X131680000Y-137840000D01*
D12*
X136320000Y-132540000D02*
X134320000Y-132540000D01*
D13*
X133570000Y-121240000D02*
X131680000Y-121240000D01*
D12*
X134320000Y-132540000D02*
X134320000Y-131540000D01*
X143320000Y-135540000D02*
X143320000Y-123540000D01*
X136320000Y-135540000D02*
X136320000Y-132540000D01*
X136320000Y-126540000D02*
X136320000Y-123540000D01*
X136320000Y-135540000D02*
X136570000Y-135540000D01*
D13*
X131680000Y-137840000D02*
X131680000Y-121240000D01*
D12*
X132820000Y-127540000D02*
X134320000Y-127540000D01*
X132820000Y-131540000D02*
X132820000Y-127540000D01*
X143320000Y-135540000D02*
X140320000Y-135540000D01*
D13*
X148980000Y-121240000D02*
X148980000Y-137840000D01*
X148980000Y-121240000D02*
X137070000Y-121240000D01*
X148980000Y-137840000D02*
X137070000Y-137840000D01*
D12*
X136320000Y-123540000D02*
X136570000Y-123540000D01*
X143320000Y-123540000D02*
X140320000Y-123540000D01*
X134320000Y-127540000D02*
X134320000Y-126540000D01*
%TO.C,JP6*%
X154005000Y-117995000D02*
X154605000Y-117995000D01*
X155305000Y-118695000D02*
X155305000Y-120095000D01*
X153305000Y-120095000D02*
X153305000Y-118695000D01*
X154605000Y-120795000D02*
X154005000Y-120795000D01*
X154605000Y-120795000D02*
G75*
G03*
X155305000Y-120095000I0J700000D01*
G01*
X155305000Y-118695000D02*
G75*
G03*
X154605000Y-117995000I-699999J1D01*
G01*
X154005000Y-117995000D02*
G75*
G03*
X153305000Y-118695000I-1J-699999D01*
G01*
X153305000Y-120095000D02*
G75*
G03*
X154005000Y-120795000I700000J0D01*
G01*
%TO.C,R2*%
X174530000Y-109882000D02*
X174530000Y-112622000D01*
X174530000Y-112622000D02*
X181070000Y-112622000D01*
X181070000Y-112622000D02*
X181070000Y-109882000D01*
X181840000Y-111252000D02*
X181070000Y-111252000D01*
X173760000Y-111252000D02*
X174530000Y-111252000D01*
X181070000Y-109882000D02*
X174530000Y-109882000D01*
%TO.C,R11*%
X151130000Y-120115000D02*
X151130000Y-120185000D01*
X152500000Y-118745000D02*
G75*
G03*
X152500000Y-118745000I-1370000J0D01*
G01*
D13*
%TO.C,J4*%
X207410000Y-121240000D02*
X207410000Y-137840000D01*
D12*
X204770000Y-127540000D02*
X206270000Y-127540000D01*
X206270000Y-131540000D02*
X204770000Y-131540000D01*
X195770000Y-123540000D02*
X195770000Y-135540000D01*
D13*
X190110000Y-121240000D02*
X202020000Y-121240000D01*
D12*
X202770000Y-126540000D02*
X204770000Y-126540000D01*
X202770000Y-132540000D02*
X202770000Y-135540000D01*
X195770000Y-123540000D02*
X198770000Y-123540000D01*
D13*
X190110000Y-137840000D02*
X190110000Y-121240000D01*
D12*
X202770000Y-135540000D02*
X202520000Y-135540000D01*
X195770000Y-135540000D02*
X198770000Y-135540000D01*
X204770000Y-126540000D02*
X204770000Y-127540000D01*
D13*
X205520000Y-121240000D02*
X207410000Y-121240000D01*
X205520000Y-137840000D02*
X207410000Y-137840000D01*
D12*
X204770000Y-132540000D02*
X202770000Y-132540000D01*
D13*
X190110000Y-137840000D02*
X202020000Y-137840000D01*
D12*
X206270000Y-127540000D02*
X206270000Y-131540000D01*
X202770000Y-123540000D02*
X202520000Y-123540000D01*
X202770000Y-123540000D02*
X202770000Y-126540000D01*
X204770000Y-131540000D02*
X204770000Y-132540000D01*
%TO.C,R12*%
X151130000Y-125195000D02*
X151130000Y-125265000D01*
X152500000Y-123825000D02*
G75*
G03*
X152500000Y-123825000I-1370000J0D01*
G01*
%TO.C,JP21*%
X152670000Y-136575000D02*
X152670000Y-135175000D01*
X153370000Y-134475000D02*
X153970000Y-134475000D01*
X153970000Y-137275000D02*
X153370000Y-137275000D01*
X154670000Y-135175000D02*
X154670000Y-136575000D01*
X152670000Y-136575000D02*
G75*
G03*
X153370000Y-137275000I700000J0D01*
G01*
X153370000Y-134475000D02*
G75*
G03*
X152670000Y-135175000I-1J-699999D01*
G01*
X154670000Y-135175000D02*
G75*
G03*
X153970000Y-134475000I-699999J1D01*
G01*
X153970000Y-137275000D02*
G75*
G03*
X154670000Y-136575000I0J700000D01*
G01*
%TO.C,D11*%
X169200000Y-128236000D02*
X169200000Y-128080000D01*
X169200000Y-125920000D02*
X169200000Y-125764000D01*
X166598870Y-128079837D02*
G75*
G03*
X168680961Y-128080000I1041130J1079837D01*
G01*
X169200000Y-125764484D02*
G75*
G03*
X165967665Y-125921392I-1560000J-1235516D01*
G01*
X168680961Y-125920000D02*
G75*
G03*
X166598870Y-125920163I-1040961J-1080000D01*
G01*
X165967665Y-128078608D02*
G75*
G03*
X169200000Y-128235516I1672335J1078608D01*
G01*
%TO.C,D31*%
X169200000Y-148556000D02*
X169200000Y-148400000D01*
X169200000Y-146240000D02*
X169200000Y-146084000D01*
X165967665Y-148398608D02*
G75*
G03*
X169200000Y-148555516I1672335J1078608D01*
G01*
X166598870Y-148399837D02*
G75*
G03*
X168680961Y-148400000I1041130J1079837D01*
G01*
X169200000Y-146084484D02*
G75*
G03*
X165967665Y-146241392I-1560000J-1235516D01*
G01*
X168680961Y-146240000D02*
G75*
G03*
X166598870Y-146240163I-1040961J-1080000D01*
G01*
%TO.C,R21*%
X151130000Y-134085000D02*
X151130000Y-134155000D01*
X152500000Y-132715000D02*
G75*
G03*
X152500000Y-132715000I-1370000J0D01*
G01*
%TO.C,JP22*%
X176800000Y-124540000D02*
X176800000Y-123140000D01*
X178800000Y-123140000D02*
X178800000Y-124540000D01*
X178100000Y-125240000D02*
X177500000Y-125240000D01*
X177500000Y-122440000D02*
X178100000Y-122440000D01*
X178100000Y-125240000D02*
G75*
G03*
X178800000Y-124540000I1J699999D01*
G01*
X177500000Y-122440000D02*
G75*
G03*
X176800000Y-123140000I0J-700000D01*
G01*
X178800000Y-123140000D02*
G75*
G03*
X178100000Y-122440000I-700000J0D01*
G01*
X176800000Y-124540000D02*
G75*
G03*
X177500000Y-125240000I699999J-1D01*
G01*
%TO.C,J32*%
X218790000Y-150160000D02*
X219530000Y-150160000D01*
X209369000Y-139640000D02*
X219290000Y-139640000D01*
X209369000Y-149920000D02*
X209369000Y-139640000D01*
X212329000Y-149920000D02*
X212329000Y-139640000D01*
X215869000Y-143274000D02*
X215904000Y-143309000D01*
X213561000Y-140965000D02*
X213607000Y-141012000D01*
X213355000Y-141170000D02*
X213391000Y-141205000D01*
X215653000Y-143467000D02*
X215699000Y-143514000D01*
X218730000Y-149920000D02*
X218730000Y-139640000D01*
X219290000Y-149920000D02*
X219290000Y-139640000D01*
X209369000Y-149920000D02*
X219290000Y-149920000D01*
X217230000Y-149920000D02*
X217230000Y-139640000D01*
X219530000Y-150160000D02*
X219530000Y-149660000D01*
X215314000Y-145784999D02*
G75*
G03*
X213946958Y-145784573I-684000J-1535001D01*
G01*
X216165000Y-148004000D02*
G75*
G03*
X216310253Y-147291195I-1535001J683999D01*
G01*
X213095000Y-146636000D02*
G75*
G03*
X213094573Y-148003042I1534993J-684001D01*
G01*
X216310000Y-147320000D02*
G75*
G03*
X216164756Y-146636682I-1680000J0D01*
G01*
X213946000Y-148855000D02*
G75*
G03*
X215313042Y-148855427I684001J1534993D01*
G01*
X216310000Y-142240000D02*
G75*
G03*
X216310000Y-142240000I-1680000J0D01*
G01*
%TO.C,D1*%
X188800000Y-115370000D02*
X188800000Y-118310000D01*
X187780000Y-118310000D02*
X193220000Y-118310000D01*
X186760000Y-116840000D02*
X187780000Y-116840000D01*
X188560000Y-115370000D02*
X188560000Y-118310000D01*
X187780000Y-115370000D02*
X187780000Y-118310000D01*
X188680000Y-115370000D02*
X188680000Y-118310000D01*
X193220000Y-115370000D02*
X187780000Y-115370000D01*
X194240000Y-116840000D02*
X193220000Y-116840000D01*
X193220000Y-118310000D02*
X193220000Y-115370000D01*
%TO.C,R23*%
X163600000Y-133350000D02*
X164370000Y-133350000D01*
X171680000Y-133350000D02*
X170910000Y-133350000D01*
X164370000Y-131980000D02*
X164370000Y-134720000D01*
X170910000Y-131980000D02*
X164370000Y-131980000D01*
X164370000Y-134720000D02*
X170910000Y-134720000D01*
X170910000Y-134720000D02*
X170910000Y-131980000D01*
%TO.C,R33*%
X164370000Y-144880000D02*
X170910000Y-144880000D01*
X171680000Y-143510000D02*
X170910000Y-143510000D01*
X170910000Y-144880000D02*
X170910000Y-142140000D01*
X164370000Y-142140000D02*
X164370000Y-144880000D01*
X170910000Y-142140000D02*
X164370000Y-142140000D01*
X163600000Y-143510000D02*
X164370000Y-143510000D01*
%TO.C,JP12*%
X186420000Y-123140000D02*
X186420000Y-124540000D01*
X185720000Y-125240000D02*
X185120000Y-125240000D01*
X185120000Y-122440000D02*
X185720000Y-122440000D01*
X184420000Y-124540000D02*
X184420000Y-123140000D01*
X185720000Y-125240000D02*
G75*
G03*
X186420000Y-124540000I1J699999D01*
G01*
X185120000Y-122440000D02*
G75*
G03*
X184420000Y-123140000I0J-700000D01*
G01*
X184420000Y-124540000D02*
G75*
G03*
X185120000Y-125240000I699999J-1D01*
G01*
X186420000Y-123140000D02*
G75*
G03*
X185720000Y-122440000I-700000J0D01*
G01*
%TO.C,JP11*%
X154005000Y-121805000D02*
X154605000Y-121805000D01*
X153305000Y-123905000D02*
X153305000Y-122505000D01*
X154605000Y-124605000D02*
X154005000Y-124605000D01*
X155305000Y-122505000D02*
X155305000Y-123905000D01*
X153305000Y-123905000D02*
G75*
G03*
X154005000Y-124605000I699999J-1D01*
G01*
X154005000Y-121805000D02*
G75*
G03*
X153305000Y-122505000I0J-700000D01*
G01*
X155305000Y-122505000D02*
G75*
G03*
X154605000Y-121805000I-700000J0D01*
G01*
X154605000Y-124605000D02*
G75*
G03*
X155305000Y-123905000I1J699999D01*
G01*
%TO.C,D3*%
X174410000Y-113180000D02*
X174410000Y-115420000D01*
X173760000Y-114300000D02*
X174410000Y-114300000D01*
X174410000Y-115420000D02*
X178650000Y-115420000D01*
X177930000Y-115420000D02*
X177930000Y-113180000D01*
X178050000Y-115420000D02*
X178050000Y-113180000D01*
X179300000Y-114300000D02*
X178650000Y-114300000D01*
X178650000Y-115420000D02*
X178650000Y-113180000D01*
X178650000Y-113180000D02*
X174410000Y-113180000D01*
X177810000Y-115420000D02*
X177810000Y-113180000D01*
%TO.C,JP13*%
X186450000Y-119995000D02*
X186450000Y-121395000D01*
X185150000Y-119295000D02*
X185750000Y-119295000D01*
X184450000Y-121395000D02*
X184450000Y-119995000D01*
X185750000Y-122095000D02*
X185150000Y-122095000D01*
X185150000Y-119295000D02*
G75*
G03*
X184450000Y-119995000I0J-700000D01*
G01*
X186450000Y-119995000D02*
G75*
G03*
X185750000Y-119295000I-700000J0D01*
G01*
X185750000Y-122095000D02*
G75*
G03*
X186450000Y-121395000I1J699999D01*
G01*
X184450000Y-121395000D02*
G75*
G03*
X185150000Y-122095000I699999J-1D01*
G01*
%TO.C,F1*%
X177440000Y-109180000D02*
X188140000Y-109180000D01*
X192140000Y-103930000D02*
X192140000Y-105280000D01*
X177440000Y-109430000D02*
X177440000Y-107680000D01*
X173440000Y-107680000D02*
X173440000Y-109430000D01*
X188140000Y-103930000D02*
X188140000Y-105280000D01*
X177440000Y-103930000D02*
X177440000Y-105680000D01*
X177440000Y-103930000D02*
X173440000Y-103930000D01*
X177440000Y-104180000D02*
X188140000Y-104180000D01*
X192140000Y-109430000D02*
X192140000Y-108080000D01*
X188140000Y-109430000D02*
X188140000Y-108080000D01*
X173440000Y-105680000D02*
X173440000Y-103930000D01*
X188140000Y-103930000D02*
X192140000Y-103930000D01*
X188140000Y-109430000D02*
X192140000Y-109430000D01*
X173440000Y-109430000D02*
X177440000Y-109430000D01*
%TO.C,JP3*%
X162860000Y-150005000D02*
X162260000Y-150005000D01*
X162260000Y-145905000D02*
X162860000Y-145905000D01*
X161560000Y-149355000D02*
X161560000Y-146555000D01*
X163560000Y-146555000D02*
X163560000Y-149355000D01*
X163560000Y-146605000D02*
G75*
G03*
X162860000Y-145905000I-699999J1D01*
G01*
X162860000Y-150005000D02*
G75*
G03*
X163560000Y-149305000I0J700000D01*
G01*
X161560000Y-149305000D02*
G75*
G03*
X162260000Y-150005000I700000J0D01*
G01*
X162260000Y-145905000D02*
G75*
G03*
X161560000Y-146605000I-1J-699999D01*
G01*
%TD*%
%LPC*%
D14*
%TO.C,JP32*%
X176530000Y-134635000D03*
D15*
X176530000Y-135935000D03*
%TD*%
D16*
%TO.C,H2*%
X140000000Y-147000000D03*
%TD*%
D17*
%TO.C,JP5*%
X154940000Y-146655000D03*
D18*
X154940000Y-147955000D03*
D19*
X154940000Y-149255000D03*
%TD*%
D20*
%TO.C,Q1*%
X160020000Y-114300000D03*
D21*
X162560000Y-114300000D03*
X165100000Y-114300000D03*
%TD*%
D22*
%TO.C,J11*%
X125730000Y-121920000D03*
D23*
X125730000Y-127000000D03*
%TD*%
D24*
%TO.C,C2*%
X170180000Y-114260000D03*
X170180000Y-111760000D03*
%TD*%
D17*
%TO.C,JP1*%
X151130000Y-146655000D03*
D18*
X151130000Y-147955000D03*
D19*
X151130000Y-149255000D03*
%TD*%
D25*
%TO.C,D2*%
X200025000Y-114295000D03*
D26*
X200025000Y-116835000D03*
%TD*%
D24*
%TO.C,R13*%
X172720000Y-123190000D03*
D27*
X162560000Y-123190000D03*
%TD*%
D25*
%TO.C,D21*%
X168910000Y-137160000D03*
D26*
X166370000Y-137160000D03*
%TD*%
D22*
%TO.C,J21*%
X125730000Y-132080000D03*
D23*
X125730000Y-137160000D03*
%TD*%
D24*
%TO.C,C5*%
X175260000Y-124460000D03*
X175260000Y-121960000D03*
%TD*%
D16*
%TO.C,H3*%
X200000000Y-107000000D03*
%TD*%
%TO.C,H1*%
X140000000Y-107000000D03*
%TD*%
D22*
%TO.C,J12*%
X214630000Y-127000000D03*
D23*
X214630000Y-121920000D03*
%TD*%
D24*
%TO.C,R1*%
X195580000Y-113665000D03*
D27*
X185420000Y-113665000D03*
%TD*%
D28*
%TO.C,JP23*%
X177800000Y-121330000D03*
D29*
X177800000Y-120030000D03*
%TD*%
D22*
%TO.C,J2*%
X125730000Y-106680000D03*
D23*
X125730000Y-111760000D03*
X125730000Y-116840000D03*
%TD*%
D17*
%TO.C,JP4*%
X158750000Y-146685000D03*
D18*
X158750000Y-147985000D03*
D19*
X158750000Y-149285000D03*
%TD*%
D24*
%TO.C,C3*%
X160020000Y-122515000D03*
X160020000Y-120015000D03*
%TD*%
D30*
%TO.C,U1*%
X153285000Y-132402500D03*
X153935000Y-132402500D03*
X154585000Y-132402500D03*
X155235000Y-132402500D03*
X155885000Y-132402500D03*
X156535000Y-132402500D03*
X157185000Y-132402500D03*
X157835000Y-132402500D03*
X158485000Y-132402500D03*
X159135000Y-132402500D03*
X159135000Y-126677500D03*
X158485000Y-126677500D03*
X157835000Y-126677500D03*
X157185000Y-126677500D03*
X156535000Y-126677500D03*
X155885000Y-126677500D03*
X155235000Y-126677500D03*
X154585000Y-126677500D03*
X153935000Y-126677500D03*
X153285000Y-126677500D03*
%TD*%
D22*
%TO.C,J22*%
X214630000Y-137160000D03*
D23*
X214630000Y-132080000D03*
%TD*%
D22*
%TO.C,J31*%
X125730000Y-142240000D03*
D23*
X125730000Y-147320000D03*
%TD*%
D24*
%TO.C,C4*%
X157480000Y-122515000D03*
X157480000Y-120015000D03*
%TD*%
D14*
%TO.C,JP33*%
X176530000Y-137825000D03*
D15*
X176530000Y-139125000D03*
%TD*%
D22*
%TO.C,J1*%
X214630000Y-116840000D03*
D23*
X214630000Y-111760000D03*
X214630000Y-106680000D03*
%TD*%
D31*
%TO.C,C1*%
X149860000Y-106680000D03*
D24*
X149860000Y-109180000D03*
%TD*%
D17*
%TO.C,JP2*%
X147320000Y-146685000D03*
D18*
X147320000Y-147985000D03*
D19*
X147320000Y-149285000D03*
%TD*%
D32*
%TO.C,U2*%
X185420000Y-127095000D03*
X184150000Y-127095000D03*
X182880000Y-127095000D03*
X181610000Y-127095000D03*
X180340000Y-127095000D03*
X179070000Y-127095000D03*
X177800000Y-127095000D03*
X176530000Y-127095000D03*
X176530000Y-132045000D03*
X177800000Y-132045000D03*
X179070000Y-132045000D03*
X180340000Y-132045000D03*
X181610000Y-132045000D03*
X182880000Y-132045000D03*
X184150000Y-132045000D03*
X185420000Y-132045000D03*
%TD*%
D16*
%TO.C,H4*%
X200000000Y-147000000D03*
%TD*%
D24*
%TO.C,R22*%
X151130000Y-137795000D03*
D27*
X151130000Y-140335000D03*
%TD*%
D24*
%TO.C,R3*%
X153035000Y-115570000D03*
D27*
X142875000Y-115570000D03*
%TD*%
D33*
%TO.C,J3*%
X138430000Y-123825000D03*
X138430000Y-135255000D03*
D34*
X144780000Y-125095000D03*
D24*
X147320000Y-126365000D03*
X144780000Y-127635000D03*
X147320000Y-128905000D03*
X144780000Y-130175000D03*
X147320000Y-131445000D03*
X144780000Y-132715000D03*
X147320000Y-133985000D03*
D35*
X135380000Y-137340000D03*
X135380000Y-121740000D03*
%TD*%
D14*
%TO.C,JP6*%
X154305000Y-118745000D03*
D15*
X154305000Y-120045000D03*
%TD*%
D24*
%TO.C,R2*%
X172720000Y-111252000D03*
D27*
X182880000Y-111252000D03*
%TD*%
D24*
%TO.C,R11*%
X151130000Y-118745000D03*
D27*
X151130000Y-121285000D03*
%TD*%
D33*
%TO.C,J4*%
X200660000Y-123825000D03*
X200660000Y-135255000D03*
D36*
X194310000Y-133985000D03*
D24*
X191770000Y-132715000D03*
X194310000Y-131445000D03*
X191770000Y-130175000D03*
X194310000Y-128905000D03*
X191770000Y-127635000D03*
X194310000Y-126365000D03*
X191770000Y-125095000D03*
D35*
X203710000Y-137340000D03*
X203710000Y-121740000D03*
%TD*%
D24*
%TO.C,R12*%
X151130000Y-123825000D03*
D27*
X151130000Y-126365000D03*
%TD*%
D14*
%TO.C,JP21*%
X153670000Y-135225000D03*
D15*
X153670000Y-136525000D03*
%TD*%
D25*
%TO.C,D11*%
X168910000Y-127000000D03*
D26*
X166370000Y-127000000D03*
%TD*%
D25*
%TO.C,D31*%
X168910000Y-147320000D03*
D26*
X166370000Y-147320000D03*
%TD*%
D24*
%TO.C,R21*%
X151130000Y-132715000D03*
D27*
X151130000Y-135255000D03*
%TD*%
D28*
%TO.C,JP22*%
X177800000Y-124490000D03*
D29*
X177800000Y-123190000D03*
%TD*%
D22*
%TO.C,J32*%
X214630000Y-147320000D03*
D23*
X214630000Y-142240000D03*
%TD*%
D37*
%TO.C,D1*%
X185420000Y-116840000D03*
D38*
X195580000Y-116840000D03*
%TD*%
D24*
%TO.C,R23*%
X172720000Y-133350000D03*
D27*
X162560000Y-133350000D03*
%TD*%
D24*
%TO.C,R33*%
X172720000Y-143510000D03*
D27*
X162560000Y-143510000D03*
%TD*%
D28*
%TO.C,JP12*%
X185420000Y-124490000D03*
D29*
X185420000Y-123190000D03*
%TD*%
D28*
%TO.C,JP11*%
X154305000Y-123855000D03*
D29*
X154305000Y-122555000D03*
%TD*%
D31*
%TO.C,D3*%
X180340000Y-114300000D03*
D27*
X172720000Y-114300000D03*
%TD*%
D28*
%TO.C,JP13*%
X185450000Y-121345000D03*
D29*
X185450000Y-120045000D03*
%TD*%
D39*
%TO.C,F1*%
X193040000Y-106680000D03*
X187240000Y-106680000D03*
D40*
X178340000Y-106680000D03*
X172540000Y-106680000D03*
%TD*%
D17*
%TO.C,JP3*%
X162560000Y-146655000D03*
D18*
X162560000Y-147955000D03*
D19*
X162560000Y-149255000D03*
%TD*%
M02*
